BookItalic.ufo
<glyph name="numbersign" format="1">
  <advance width="605"/>
  <unicode hex="0023"/>
  <outline>
    <contour>
      <point x="153" y="440" type="line"/>
      <point x="164" y="505" type="line"/>
      <point x="659" y="505" type="line"/>
      <point x="648" y="440" type="line"/>
      <point x="508" y="440" type="line" smooth="yes"/>
      <point x="494" y="440" type="line" smooth="yes"/>
      <point x="302" y="440" type="line" smooth="yes"/>
      <point x="288" y="440" type="line" smooth="yes"/>
    </contour>
    <contour>
      <point x="70" y="200" type="line"/>
      <point x="82" y="265" type="line"/>
      <point x="213" y="265" type="line" smooth="yes"/>
      <point x="229" y="265" type="line" smooth="yes"/>
      <point x="429" y="265" type="line" smooth="yes"/>
      <point x="449" y="265" type="line" smooth="yes"/>
      <point x="577" y="265" type="line"/>
      <point x="565" y="200" type="line"/>
    </contour>
    <contour>
      <point x="578" y="700" type="line"/>
      <point x="653" y="700" type="line"/>
      <point x="360" y="0" type="line"/>
      <point x="285" y="0" type="line"/>
      <point x="380" y="228" type="line" smooth="yes"/>
      <point x="388" y="246" type="line" smooth="yes"/>
      <point x="478" y="462" type="line" smooth="yes"/>
      <point x="485" y="478" type="line" smooth="yes"/>
    </contour>
    <contour>
      <point x="368" y="700" type="line"/>
      <point x="443" y="700" type="line"/>
      <point x="352" y="482" type="line" smooth="yes"/>
      <point x="345" y="466" type="line" smooth="yes"/>
      <point x="252" y="244" type="line" smooth="yes"/>
      <point x="245" y="226" type="line" smooth="yes"/>
      <point x="150" y="0" type="line"/>
      <point x="75" y="0" type="line"/>
    </contour>
  </outline>
</glyph>
<glyph name="quotesingle" format="1">
  <advance width="285"/>
  <unicode hex="0027"/>
  <outline>
    <contour>
      <point x="253" y="700" type="line"/>
      <point x="348" y="700" type="line"/>
      <point x="206" y="400" type="line"/>
      <point x="151" y="400" type="line"/>
    </contour>
  </outline>
</glyph>
<glyph name="parenleft" format="1">
  <advance width="310"/>
  <unicode hex="0028"/>
  <outline>
    <contour>
      <point x="343" y="780" type="curve"/>
      <point x="418" y="780" type="line"/>
      <point x="322" y="630"/>
      <point x="261" y="460"/>
      <point x="231" y="290" type="curve" smooth="yes"/>
      <point x="201" y="120"/>
      <point x="201" y="-50"/>
      <point x="245" y="-200" type="curve"/>
      <point x="170" y="-200" type="line"/>
      <point x="116" y="-50"/>
      <point x="111" y="120"/>
      <point x="141" y="290" type="curve" smooth="yes"/>
      <point x="171" y="460"/>
      <point x="237" y="630"/>
    </contour>
  </outline>
</glyph>
<glyph name="parenright" format="1">
  <advance width="310"/>
  <unicode hex="0029"/>
  <outline>
    <contour>
      <point x="70" y="-200" type="curve"/>
      <point x="-5" y="-200" type="line"/>
      <point x="91" y="-50"/>
      <point x="151" y="120"/>
      <point x="181" y="290" type="curve" smooth="yes"/>
      <point x="211" y="460"/>
      <point x="212" y="630"/>
      <point x="168" y="780" type="curve"/>
      <point x="243" y="780" type="line"/>
      <point x="297" y="630"/>
      <point x="301" y="460"/>
      <point x="271" y="290" type="curve" smooth="yes"/>
      <point x="241" y="120"/>
      <point x="176" y="-50"/>
    </contour>
  </outline>
</glyph>
<glyph name="asterisk" format="1">
  <advance width="592"/>
  <unicode hex="002A"/>
  <outline>
    <contour>
      <point x="577" y="599" type="line"/>
      <point x="586" y="532" type="line"/>
      <point x="389" y="481" type="line"/>
      <point x="381" y="529" type="line"/>
    </contour>
    <contour>
      <point x="504" y="368" type="line"/>
      <point x="440" y="327" type="line"/>
      <point x="362" y="490" type="line"/>
      <point x="408" y="520" type="line"/>
    </contour>
    <contour>
      <point x="268" y="327" type="line"/>
      <point x="218" y="368" type="line"/>
      <point x="368" y="520" type="line"/>
      <point x="402" y="490" type="line"/>
    </contour>
    <contour>
      <point x="194" y="532" type="line"/>
      <point x="227" y="599" type="line"/>
      <point x="397" y="529" type="line"/>
      <point x="373" y="481" type="line"/>
    </contour>
    <contour>
      <point x="384" y="700" type="line"/>
      <point x="454" y="700" type="line"/>
      <point x="410" y="505" type="line"/>
      <point x="360" y="505" type="line"/>
    </contour>
  </outline>
</glyph>
<glyph name="comma" format="1">
  <advance width="308"/>
  <unicode hex="002C"/>
  <outline>
    <contour>
      <point x="167" y="110" type="line"/>
      <point x="242" y="80" type="line"/>
      <point x="88" y="-170" type="line"/>
      <point x="34" y="-149" type="line"/>
    </contour>
  </outline>
</glyph>
<glyph name="slash" format="1">
  <advance width="515"/>
  <unicode hex="002F"/>
  <outline>
    <contour>
      <point x="543" y="700" type="line"/>
      <point x="623" y="700" type="line"/>
      <point x="69" y="-150" type="line"/>
      <point x="-11" y="-150" type="line"/>
    </contour>
  </outline>
</glyph>
<glyph name="zero" format="1">
  <advance width="600"/>
  <unicode hex="0030"/>
  <outline>
    <contour>
      <point x="187" y="350" type="curve" smooth="yes"/>
      <point x="158" y="187"/>
      <point x="204" y="70"/>
      <point x="312" y="70" type="curve" smooth="yes"/>
      <point x="420" y="70"/>
      <point x="508" y="187"/>
      <point x="537" y="350" type="curve" smooth="yes"/>
      <point x="566" y="513"/>
      <point x="519" y="630"/>
      <point x="411" y="630" type="curve" smooth="yes"/>
      <point x="303" y="630"/>
      <point x="216" y="513"/>
    </contour>
    <contour>
      <point x="102" y="350" type="curve" smooth="yes"/>
      <point x="139" y="559"/>
      <point x="271" y="710"/>
      <point x="425" y="710" type="curve" smooth="yes"/>
      <point x="579" y="710"/>
      <point x="659" y="559"/>
      <point x="622" y="350" type="curve" smooth="yes"/>
      <point x="585" y="141"/>
      <point x="452" y="-10"/>
      <point x="298" y="-10" type="curve" smooth="yes"/>
      <point x="144" y="-10"/>
      <point x="65" y="141"/>
    </contour>
  </outline>
</glyph>
<glyph name="two" format="1">
  <advance width="569"/>
  <unicode hex="0032"/>
  <outline>
    <contour>
      <point x="20" y="0" type="line"/>
      <point x="413" y="353" type="line" smooth="yes"/>
      <point x="468" y="402"/>
      <point x="503" y="450"/>
      <point x="513" y="506" type="curve" smooth="yes"/>
      <point x="524" y="567"/>
      <point x="485" y="631"/>
      <point x="400" y="631" type="curve" smooth="yes"/>
      <point x="310" y="631"/>
      <point x="245" y="566"/>
      <point x="226" y="460" type="curve"/>
      <point x="141" y="460" type="line"/>
      <point x="167" y="609"/>
      <point x="269" y="711"/>
      <point x="414" y="711" type="curve" smooth="yes"/>
      <point x="568" y="711"/>
      <point x="616" y="593"/>
      <point x="601" y="509" type="curve" smooth="yes"/>
      <point x="588" y="437"/>
      <point x="537" y="363"/>
      <point x="472" y="307" type="curve" smooth="yes"/>
      <point x="209" y="80" type="line"/>
      <point x="528" y="80" type="line"/>
      <point x="514" y="0" type="line"/>
    </contour>
  </outline>
</glyph>
<glyph name="three" format="1">
  <advance width="546"/>
  <unicode hex="0033"/>
  <outline>
    <contour>
      <point x="314" y="345" type="curve"/>
      <point x="324" y="400" type="line"/>
      <point x="414" y="400"/>
      <point x="474" y="455"/>
      <point x="486" y="521" type="curve" smooth="yes"/>
      <point x="498" y="587"/>
      <point x="470" y="633"/>
      <point x="400" y="633" type="curve" smooth="yes"/>
      <point x="335" y="633"/>
      <point x="275" y="587"/>
      <point x="264" y="526" type="curve"/>
      <point x="183" y="526" type="line"/>
      <point x="202" y="635"/>
      <point x="297" y="710"/>
      <point x="412" y="710" type="curve" smooth="yes"/>
      <point x="532" y="710"/>
      <point x="590" y="623"/>
      <point x="573" y="524" type="curve" smooth="yes"/>
      <point x="556" y="425"/>
      <point x="449" y="345"/>
    </contour>
    <contour>
      <point x="281" y="-10" type="curve" smooth="yes"/>
      <point x="146" y="-10"/>
      <point x="74" y="76"/>
      <point x="93" y="185" type="curve"/>
      <point x="179" y="185" type="line"/>
      <point x="167" y="119"/>
      <point x="215" y="70"/>
      <point x="295" y="70" type="curve" smooth="yes"/>
      <point x="375" y="70"/>
      <point x="435" y="119"/>
      <point x="448" y="195" type="curve" smooth="yes"/>
      <point x="463" y="281"/>
      <point x="400" y="325"/>
      <point x="310" y="325" type="curve"/>
      <point x="320" y="380" type="line"/>
      <point x="455" y="380"/>
      <point x="559" y="324"/>
      <point x="534" y="185" type="curve" smooth="yes"/>
      <point x="513" y="66"/>
      <point x="406" y="-10"/>
    </contour>
  </outline>
</glyph>
<glyph name="five" format="1">
  <advance width="564"/>
  <unicode hex="0035"/>
  <outline>
    <contour>
      <point x="565" y="230" type="curve" smooth="yes"/>
      <point x="537" y="71"/>
      <point x="412" y="-10"/>
      <point x="277" y="-10" type="curve" smooth="yes"/>
      <point x="148" y="-10"/>
      <point x="86" y="57"/>
      <point x="54" y="137" type="curve"/>
      <point x="135" y="186" type="line"/>
      <point x="155" y="126"/>
      <point x="214" y="70"/>
      <point x="291" y="70" type="curve" smooth="yes"/>
      <point x="391" y="70"/>
      <point x="460" y="134"/>
      <point x="477" y="230" type="curve" smooth="yes"/>
      <point x="494" y="326"/>
      <point x="438" y="390"/>
      <point x="348" y="390" type="curve" smooth="yes"/>
      <point x="281" y="390"/>
      <point x="238" y="377"/>
      <point x="158" y="327" type="curve"/>
      <point x="219" y="393" type="line"/>
      <point x="274" y="443"/>
      <point x="338" y="466"/>
      <point x="397" y="466" type="curve" smooth="yes"/>
      <point x="517" y="466"/>
      <point x="590" y="369"/>
    </contour>
    <contour>
      <point x="368" y="625" type="line"/>
      <point x="279" y="417" type="line"/>
      <point x="158" y="327" type="line"/>
      <point x="315" y="700" type="line"/>
      <point x="645" y="700" type="line"/>
      <point x="632" y="625" type="line"/>
    </contour>
  </outline>
</glyph>
<glyph name="six" format="1">
  <advance width="576"/>
  <unicode hex="0036"/>
  <outline>
    <contour>
      <point x="172" y="230" type="curve" smooth="yes"/>
      <point x="155" y="134"/>
      <point x="210" y="67"/>
      <point x="300" y="67" type="curve" smooth="yes"/>
      <point x="390" y="67"/>
      <point x="469" y="134"/>
      <point x="486" y="230" type="curve" smooth="yes"/>
      <point x="503" y="326"/>
      <point x="448" y="395"/>
      <point x="358" y="395" type="curve" smooth="yes"/>
      <point x="268" y="395"/>
      <point x="189" y="326"/>
    </contour>
    <contour>
      <point x="453" y="700" type="line"/>
      <point x="560" y="700" type="line"/>
      <point x="290" y="411" type="line"/>
      <point x="285" y="416" type="line"/>
      <point x="318" y="449"/>
      <point x="355" y="457"/>
      <point x="400" y="457" type="curve" smooth="yes"/>
      <point x="514" y="457"/>
      <point x="590" y="359"/>
      <point x="567" y="230" type="curve" smooth="yes"/>
      <point x="542" y="86"/>
      <point x="421" y="-10"/>
      <point x="286" y="-10" type="curve" smooth="yes"/>
      <point x="151" y="-10"/>
      <point x="66" y="86"/>
      <point x="91" y="230" type="curve" smooth="yes"/>
      <point x="101" y="287"/>
      <point x="126" y="338"/>
      <point x="160" y="375" type="curve" smooth="yes"/>
    </contour>
  </outline>
</glyph>
<glyph name="seven" format="1">
  <advance width="525"/>
  <unicode hex="0037"/>
  <outline>
    <contour>
      <point x="139" y="620" type="line"/>
      <point x="153" y="700" type="line"/>
      <point x="643" y="700" type="line"/>
      <point x="185" y="0" type="line"/>
      <point x="96" y="0" type="line"/>
      <point x="502" y="620" type="line"/>
    </contour>
  </outline>
</glyph>
<glyph name="eight" format="1">
  <advance width="546"/>
  <unicode hex="0038"/>
  <outline>
    <contour>
      <point x="174" y="531" type="curve" smooth="yes"/>
      <point x="191" y="630"/>
      <point x="288" y="710"/>
      <point x="398" y="710" type="curve" smooth="yes"/>
      <point x="508" y="710"/>
      <point x="577" y="630"/>
      <point x="560" y="531" type="curve" smooth="yes"/>
      <point x="541" y="422"/>
      <point x="451" y="355"/>
      <point x="336" y="355" type="curve" smooth="yes"/>
      <point x="221" y="355"/>
      <point x="155" y="422"/>
    </contour>
    <contour>
      <point x="253" y="521" type="curve" smooth="yes"/>
      <point x="241" y="455"/>
      <point x="285" y="410"/>
      <point x="345" y="410" type="curve" smooth="yes"/>
      <point x="405" y="410"/>
      <point x="465" y="455"/>
      <point x="477" y="521" type="curve" smooth="yes"/>
      <point x="489" y="587"/>
      <point x="450" y="635"/>
      <point x="385" y="635" type="curve" smooth="yes"/>
      <point x="320" y="635"/>
      <point x="265" y="587"/>
    </contour>
    <contour>
      <point x="89" y="190" type="curve" smooth="yes"/>
      <point x="112" y="319"/>
      <point x="227" y="390"/>
      <point x="342" y="390" type="curve" smooth="yes"/>
      <point x="457" y="390"/>
      <point x="548" y="319"/>
      <point x="525" y="190" type="curve" smooth="yes"/>
      <point x="506" y="81"/>
      <point x="396" y="-10"/>
      <point x="271" y="-10" type="curve" smooth="yes"/>
      <point x="146" y="-10"/>
      <point x="70" y="81"/>
    </contour>
    <contour>
      <point x="171" y="200" type="curve" smooth="yes"/>
      <point x="156" y="114"/>
      <point x="214" y="65"/>
      <point x="284" y="65" type="curve" smooth="yes"/>
      <point x="354" y="65"/>
      <point x="430" y="114"/>
      <point x="445" y="200" type="curve" smooth="yes"/>
      <point x="458" y="276"/>
      <point x="402" y="335"/>
      <point x="332" y="335" type="curve" smooth="yes"/>
      <point x="262" y="335"/>
      <point x="184" y="276"/>
    </contour>
  </outline>
</glyph>
<glyph name="colon" format="1">
  <advance width="300"/>
  <unicode hex="003A"/>
  <outline>
    <contour>
      <point x="102" y="40" type="curve" smooth="yes"/>
      <point x="107" y="70"/>
      <point x="137" y="95"/>
      <point x="167" y="95" type="curve" smooth="yes"/>
      <point x="197" y="95"/>
      <point x="217" y="70"/>
      <point x="212" y="40" type="curve" smooth="yes"/>
      <point x="207" y="10"/>
      <point x="177" y="-15"/>
      <point x="147" y="-15" type="curve" smooth="yes"/>
      <point x="117" y="-15"/>
      <point x="97" y="10"/>
    </contour>
    <contour>
      <point x="169" y="420" type="curve" smooth="yes"/>
      <point x="174" y="450"/>
      <point x="204" y="475"/>
      <point x="234" y="475" type="curve" smooth="yes"/>
      <point x="264" y="475"/>
      <point x="284" y="450"/>
      <point x="279" y="420" type="curve" smooth="yes"/>
      <point x="274" y="390"/>
      <point x="244" y="365"/>
      <point x="214" y="365" type="curve" smooth="yes"/>
      <point x="184" y="365"/>
      <point x="164" y="390"/>
    </contour>
  </outline>
</glyph>
<glyph name="semicolon" format="1">
  <advance width="330"/>
  <unicode hex="003B"/>
  <outline>
    <contour>
      <point x="199" y="420" type="curve" smooth="yes"/>
      <point x="204" y="450"/>
      <point x="234" y="475"/>
      <point x="264" y="475" type="curve" smooth="yes"/>
      <point x="294" y="475"/>
      <point x="314" y="450"/>
      <point x="309" y="420" type="curve" smooth="yes"/>
      <point x="304" y="390"/>
      <point x="274" y="365"/>
      <point x="244" y="365" type="curve" smooth="yes"/>
      <point x="214" y="365"/>
      <point x="194" y="390"/>
    </contour>
    <contour>
      <point x="167" y="110" type="line"/>
      <point x="242" y="80" type="line"/>
      <point x="88" y="-170" type="line"/>
      <point x="34" y="-149" type="line"/>
    </contour>
  </outline>
</glyph>
<glyph name="less" format="1">
  <advance width="640"/>
  <unicode hex="003C"/>
  <outline>
    <contour>
      <point x="243" y="262" type="line"/>
      <point x="592" y="95" type="line"/>
      <point x="578" y="15" type="line"/>
      <point x="106" y="235" type="line"/>
      <point x="114" y="280" type="line"/>
      <point x="663" y="500" type="line"/>
      <point x="649" y="420" type="line"/>
    </contour>
  </outline>
</glyph>
<glyph name="equal" format="1">
  <advance width="615"/>
  <unicode hex="003D"/>
  <outline>
    <contour>
      <point x="90" y="140" type="line"/>
      <point x="103" y="215" type="line"/>
      <point x="588" y="215" type="line"/>
      <point x="575" y="140" type="line"/>
    </contour>
    <contour>
      <point x="116" y="290" type="line"/>
      <point x="129" y="365" type="line"/>
      <point x="614" y="365" type="line"/>
      <point x="601" y="290" type="line"/>
    </contour>
  </outline>
</glyph>
<glyph name="greater" format="1">
  <advance width="640"/>
  <unicode hex="003E"/>
  <outline>
    <contour>
      <point x="488" y="253" type="line"/>
      <point x="139" y="420" type="line"/>
      <point x="153" y="500" type="line"/>
      <point x="624" y="280" type="line"/>
      <point x="616" y="235" type="line"/>
      <point x="68" y="15" type="line"/>
      <point x="82" y="95" type="line"/>
    </contour>
  </outline>
</glyph>
<glyph name="F" format="1">
  <advance width="500"/>
  <unicode hex="0046"/>
  <outline>
    <contour>
      <point x="236" y="620" type="line"/>
      <point x="250" y="700" type="line"/>
      <point x="563" y="700" type="line"/>
      <point x="549" y="620" type="line"/>
    </contour>
    <contour>
      <point x="187" y="340" type="line"/>
      <point x="201" y="420" type="line"/>
      <point x="504" y="420" type="line"/>
      <point x="490" y="340" type="line"/>
    </contour>
    <contour>
      <point x="203" y="700" type="line"/>
      <point x="288" y="700" type="line"/>
      <point x="165" y="0" type="line"/>
      <point x="80" y="0" type="line"/>
    </contour>
  </outline>
</glyph>
<glyph name="P" format="1">
  <advance width="548"/>
  <unicode hex="0050"/>
  <outline>
    <contour>
      <point x="203" y="700" type="line"/>
      <point x="288" y="700" type="line"/>
      <point x="165" y="0" type="line"/>
      <point x="80" y="0" type="line"/>
    </contour>
    <contour>
      <point x="236" y="620" type="line"/>
      <point x="250" y="700" type="line"/>
      <point x="393" y="700" type="line" smooth="yes"/>
      <point x="528" y="700"/>
      <point x="617" y="619"/>
      <point x="594" y="490" type="curve" smooth="yes"/>
      <point x="571" y="361"/>
      <point x="454" y="280"/>
      <point x="319" y="280" type="curve" smooth="yes"/>
      <point x="176" y="280" type="line"/>
      <point x="190" y="360" type="line"/>
      <point x="333" y="360" type="line" smooth="yes"/>
      <point x="423" y="360"/>
      <point x="494" y="404"/>
      <point x="509" y="490" type="curve" smooth="yes"/>
      <point x="524" y="576"/>
      <point x="469" y="620"/>
      <point x="379" y="620" type="curve" smooth="yes"/>
    </contour>
  </outline>
</glyph>
<glyph name="T" format="1">
  <advance width="465"/>
  <unicode hex="0054"/>
  <outline>
    <contour>
      <point x="119" y="620" type="line"/>
      <point x="133" y="700" type="line"/>
      <point x="578" y="700" type="line"/>
      <point x="564" y="620" type="line"/>
      <point x="384" y="620" type="line"/>
      <point x="275" y="0" type="line"/>
      <point x="190" y="0" type="line"/>
      <point x="299" y="620" type="line"/>
    </contour>
  </outline>
</glyph>
<glyph name="bracketleft" format="1">
  <advance width="300"/>
  <unicode hex="005B"/>
  <outline>
    <contour>
      <point x="303" y="705" type="line"/>
      <point x="153" y="-145" type="line"/>
      <point x="254" y="-145" type="line"/>
      <point x="241" y="-220" type="line"/>
      <point x="61" y="-220" type="line"/>
      <point x="238" y="780" type="line"/>
      <point x="418" y="780" type="line"/>
      <point x="404" y="705" type="line"/>
    </contour>
  </outline>
</glyph>
<glyph name="backslash" format="1">
  <advance width="515"/>
  <unicode hex="005C"/>
  <outline>
    <contour>
      <point x="138" y="700" type="line"/>
      <point x="223" y="700" type="line"/>
      <point x="500" y="0" type="line"/>
      <point x="415" y="0" type="line"/>
    </contour>
  </outline>
</glyph>
<glyph name="grave" format="1">
  <advance width="375"/>
  <unicode hex="0060"/>
  <outline>
    <contour>
      <point x="191" y="660" type="line"/>
      <point x="273" y="700" type="line"/>
      <point x="395" y="540" type="line"/>
      <point x="345" y="510" type="line"/>
    </contour>
  </outline>
</glyph>
<glyph name="b" format="1">
  <advance width="570"/>
  <unicode hex="0062"/>
  <outline>
    <contour>
      <point x="288" y="780" type="line"/>
      <point x="150" y="0" type="line"/>
      <point x="70" y="0" type="line"/>
      <point x="208" y="780" type="line"/>
    </contour>
    <contour>
      <point x="576" y="230" type="curve" smooth="yes"/>
      <point x="550" y="81"/>
      <point x="430" y="-10"/>
      <point x="305" y="-10" type="curve" smooth="yes"/>
      <point x="190" y="-10"/>
      <point x="129" y="81"/>
      <point x="155" y="230" type="curve" smooth="yes"/>
      <point x="181" y="379"/>
      <point x="275" y="470"/>
      <point x="390" y="470" type="curve" smooth="yes"/>
      <point x="515" y="470"/>
      <point x="602" y="379"/>
    </contour>
    <contour>
      <point x="495" y="230" type="curve" smooth="yes"/>
      <point x="514" y="336"/>
      <point x="452" y="395"/>
      <point x="367" y="395" type="curve" smooth="yes"/>
      <point x="297" y="395"/>
      <point x="210" y="336"/>
      <point x="191" y="230" type="curve" smooth="yes"/>
      <point x="172" y="124"/>
      <point x="238" y="65"/>
      <point x="308" y="65" type="curve" smooth="yes"/>
      <point x="393" y="65"/>
      <point x="476" y="124"/>
    </contour>
  </outline>
</glyph>
<glyph name="j" format="1">
  <advance width="250"/>
  <unicode hex="006A"/>
  <outline>
    <contour>
      <point x="180" y="650" type="curve" smooth="yes"/>
      <point x="185" y="680"/>
      <point x="214" y="705"/>
      <point x="244" y="705" type="curve" smooth="yes"/>
      <point x="274" y="705"/>
      <point x="295" y="680"/>
      <point x="290" y="650" type="curve" smooth="yes"/>
      <point x="285" y="620"/>
      <point x="255" y="595"/>
      <point x="225" y="595" type="curve" smooth="yes"/>
      <point x="195" y="595"/>
      <point x="175" y="620"/>
    </contour>
    <contour>
      <point x="-37" y="-114" type="line"/>
      <point x="-27" y="-137"/>
      <point x="-9" y="-140"/>
      <point x="7" y="-140" type="curve" smooth="yes"/>
      <point x="37" y="-140"/>
      <point x="59" y="-116"/>
      <point x="71" y="-50" type="curve" smooth="yes"/>
      <point x="161" y="460" type="line"/>
      <point x="241" y="460" type="line"/>
      <point x="149" y="-60" type="line" smooth="yes"/>
      <point x="130" y="-169"/>
      <point x="72" y="-220"/>
      <point x="-12" y="-220" type="curve" smooth="yes"/>
      <point x="-55" y="-220"/>
      <point x="-82" y="-200"/>
      <point x="-93" y="-180" type="curve"/>
    </contour>
  </outline>
</glyph>
<glyph name="r" format="1">
  <advance width="343"/>
  <unicode hex="0072"/>
  <outline>
    <contour>
      <point x="236" y="460" type="line"/>
      <point x="155" y="0" type="line"/>
      <point x="75" y="0" type="line"/>
      <point x="156" y="460" type="line"/>
    </contour>
    <contour>
      <point x="360" y="372" type="line"/>
      <point x="341" y="388"/>
      <point x="328" y="395"/>
      <point x="302" y="395" type="curve" smooth="yes"/>
      <point x="242" y="395"/>
      <point x="216" y="346"/>
      <point x="204" y="280" type="curve"/>
      <point x="168" y="280" type="line"/>
      <point x="187" y="389"/>
      <point x="270" y="470"/>
      <point x="335" y="470" type="curve" smooth="yes"/>
      <point x="368" y="470"/>
      <point x="395" y="463"/>
      <point x="415" y="438" type="curve"/>
    </contour>
  </outline>
</glyph>
<glyph name="s" format="1">
  <advance width="403"/>
  <unicode hex="0073"/>
  <outline>
    <contour>
      <point x="117" y="162" type="line"/>
      <point x="139" y="106"/>
      <point x="182" y="65"/>
      <point x="226" y="65" type="curve" smooth="yes"/>
      <point x="269" y="65"/>
      <point x="304" y="82"/>
      <point x="311" y="121" type="curve" smooth="yes"/>
      <point x="319" y="169"/>
      <point x="272" y="190"/>
      <point x="223" y="211" type="curve" smooth="yes"/>
      <point x="164" y="236"/>
      <point x="100" y="259"/>
      <point x="115" y="346" type="curve" smooth="yes"/>
      <point x="130" y="432"/>
      <point x="212" y="470"/>
      <point x="286" y="470" type="curve" smooth="yes"/>
      <point x="359" y="470"/>
      <point x="417" y="431"/>
      <point x="436" y="380" type="curve"/>
      <point x="365" y="339" type="line"/>
      <point x="348" y="370"/>
      <point x="311" y="397"/>
      <point x="274" y="397" type="curve" smooth="yes"/>
      <point x="234" y="397"/>
      <point x="200" y="385"/>
      <point x="194" y="349" type="curve" smooth="yes"/>
      <point x="186" y="305"/>
      <point x="247" y="291"/>
      <point x="294" y="270" type="curve" smooth="yes"/>
      <point x="354" y="243"/>
      <point x="410" y="207"/>
      <point x="396" y="130" type="curve" smooth="yes"/>
      <point x="379" y="31"/>
      <point x="302" y="-10"/>
      <point x="213" y="-10" type="curve" smooth="yes"/>
      <point x="128" y="-10"/>
      <point x="68" y="48"/>
      <point x="47" y="123" type="curve"/>
    </contour>
  </outline>
</glyph>
<glyph name="v" format="1">
  <advance width="440"/>
  <unicode hex="0076"/>
  <outline>
    <contour>
      <point x="81" y="460" type="line"/>
      <point x="171" y="460" type="line"/>
      <point x="244" y="135" type="line"/>
      <point x="431" y="460" type="line"/>
      <point x="521" y="460" type="line"/>
      <point x="214" y="-35" type="line"/>
    </contour>
  </outline>
</glyph>
<glyph name="w" format="1">
  <advance width="680"/>
  <unicode hex="0077"/>
  <outline>
    <contour>
      <point x="666" y="460" type="line"/>
      <point x="756" y="460" type="line"/>
      <point x="469" y="-35" type="line"/>
      <point x="462" y="95" type="line"/>
    </contour>
    <contour>
      <point x="371" y="375" type="line"/>
      <point x="422" y="495" type="line"/>
      <point x="512" y="95" type="line"/>
      <point x="469" y="-35" type="line"/>
    </contour>
    <contour>
      <point x="422" y="495" type="line"/>
      <point x="431" y="375" type="line"/>
      <point x="199" y="-35" type="line"/>
      <point x="202" y="95" type="line"/>
    </contour>
    <contour>
      <point x="86" y="460" type="line"/>
      <point x="176" y="460" type="line"/>
      <point x="252" y="95" type="line"/>
      <point x="199" y="-35" type="line"/>
    </contour>
  </outline>
</glyph>
<glyph name="y" format="1">
  <advance width="440"/>
  <unicode hex="0079"/>
  <outline>
    <contour>
      <point x="521" y="460" type="line"/>
      <point x="101" y="-220" type="line"/>
      <point x="11" y="-220" type="line"/>
      <point x="187" y="65" type="line"/>
      <point x="81" y="460" type="line"/>
      <point x="176" y="460" type="line"/>
      <point x="259" y="100" type="line"/>
      <point x="226" y="104" type="line"/>
      <point x="431" y="460" type="line"/>
    </contour>
  </outline>
</glyph>
<glyph name="bar" format="1">
  <advance width="274"/>
  <unicode hex="007C"/>
  <outline>
    <contour>
      <point x="238" y="785" type="line"/>
      <point x="312" y="785" type="line"/>
      <point x="136" y="-215" type="line"/>
      <point x="62" y="-215" type="line"/>
    </contour>
  </outline>
</glyph>
<glyph name="braceright" format="1">
  <advance width="311"/>
  <unicode hex="007D"/>
  <outline>
    <contour>
      <point x="128" y="-80" type="curve" smooth="yes"/>
      <point x="158" y="90" type="line" smooth="yes"/>
      <point x="174" y="179"/>
      <point x="199" y="300"/>
      <point x="308" y="300" type="curve"/>
      <point x="304" y="280" type="line"/>
      <point x="195" y="280"/>
      <point x="212" y="401"/>
      <point x="228" y="490" type="curve" smooth="yes"/>
      <point x="258" y="660" type="line" smooth="yes"/>
      <point x="263" y="686"/>
      <point x="249" y="710"/>
      <point x="219" y="710" type="curve" smooth="yes"/>
      <point x="184" y="710" type="line"/>
      <point x="197" y="780" type="line"/>
      <point x="257" y="780" type="line" smooth="yes"/>
      <point x="301" y="780"/>
      <point x="352" y="739"/>
      <point x="335" y="640" type="curve" smooth="yes"/>
      <point x="298" y="430" type="line" smooth="yes"/>
      <point x="285" y="354"/>
      <point x="298" y="330"/>
      <point x="326" y="320" type="curve"/>
      <point x="316" y="260" type="line"/>
      <point x="284" y="250"/>
      <point x="261" y="226"/>
      <point x="248" y="150" type="curve" smooth="yes"/>
      <point x="211" y="-60" type="line" smooth="yes"/>
      <point x="194" y="-159"/>
      <point x="128" y="-200"/>
      <point x="84" y="-200" type="curve" smooth="yes"/>
      <point x="24" y="-200" type="line"/>
      <point x="36" y="-130" type="line"/>
      <point x="71" y="-130" type="line" smooth="yes"/>
      <point x="101" y="-130"/>
      <point x="123" y="-106"/>
    </contour>
  </outline>
</glyph>
<glyph name="asciitilde" format="1">
  <advance width="575"/>
  <unicode hex="007E"/>
  <outline>
    <contour>
      <point x="173" y="176" type="curve"/>
      <point x="100" y="181" type="line"/>
      <point x="99" y="188"/>
      <point x="99" y="196"/>
      <point x="101" y="205" type="curve" smooth="yes"/>
      <point x="105" y="226"/>
      <point x="115" y="251"/>
      <point x="137" y="275" type="curve" smooth="yes"/>
      <point x="169" y="310"/>
      <point x="210" y="327"/>
      <point x="252" y="327" type="curve" smooth="yes"/>
      <point x="291" y="327"/>
      <point x="330" y="311"/>
      <point x="366" y="279" type="curve" smooth="yes"/>
      <point x="392" y="256"/>
      <point x="416" y="247"/>
      <point x="434" y="247" type="curve" smooth="yes"/>
      <point x="463" y="247"/>
      <point x="478" y="264"/>
      <point x="484" y="296" type="curve" smooth="yes"/>
      <point x="485" y="304"/>
      <point x="486" y="313"/>
      <point x="484" y="323" type="curve"/>
      <point x="562" y="318" type="line"/>
      <point x="563" y="310"/>
      <point x="563" y="300"/>
      <point x="561" y="290" type="curve" smooth="yes"/>
      <point x="557" y="270"/>
      <point x="548" y="242"/>
      <point x="527" y="219" type="curve" smooth="yes"/>
      <point x="495" y="185"/>
      <point x="460" y="172"/>
      <point x="424" y="172" type="curve" smooth="yes"/>
      <point x="390" y="172"/>
      <point x="355" y="188"/>
      <point x="318" y="220" type="curve" smooth="yes"/>
      <point x="292" y="243"/>
      <point x="263" y="253"/>
      <point x="238" y="253" type="curve" smooth="yes"/>
      <point x="202" y="253"/>
      <point x="179" y="233"/>
      <point x="173" y="198" type="curve" smooth="yes"/>
      <point x="172" y="191"/>
      <point x="171" y="184"/>
    </contour>
  </outline>
</glyph>
<glyph name="exclamdown" format="1">
  <advance width="300"/>
  <unicode hex="00A1"/>
  <outline>
    <contour>
      <point x="157" y="-245" type="line"/>
      <point x="57" y="-245" type="line"/>
      <point x="165" y="255" type="line"/>
      <point x="225" y="255" type="line"/>
    </contour>
    <contour>
      <point x="278" y="415" type="curve" smooth="yes"/>
      <point x="273" y="385"/>
      <point x="243" y="360"/>
      <point x="213" y="360" type="curve" smooth="yes"/>
      <point x="183" y="360"/>
      <point x="163" y="385"/>
      <point x="168" y="415" type="curve" smooth="yes"/>
      <point x="173" y="445"/>
      <point x="203" y="470"/>
      <point x="233" y="470" type="curve" smooth="yes"/>
      <point x="263" y="470"/>
      <point x="283" y="445"/>
    </contour>
  </outline>
</glyph>
<glyph name="currency" format="1">
  <advance width="580"/>
  <unicode hex="00A4"/>
  <outline>
    <contour>
      <point x="126" y="503" type="line"/>
      <point x="185" y="553" type="line"/>
      <point x="261" y="459" type="line"/>
      <point x="203" y="410" type="line"/>
    </contour>
    <contour>
      <point x="95" y="47" type="line"/>
      <point x="54" y="97" type="line"/>
      <point x="165" y="190" type="line"/>
      <point x="205" y="141" type="line"/>
    </contour>
    <contour>
      <point x="521" y="410" type="line"/>
      <point x="480" y="459" type="line"/>
      <point x="591" y="553" type="line"/>
      <point x="631" y="503" type="line"/>
    </contour>
    <contour>
      <point x="424" y="141" type="line"/>
      <point x="483" y="190" type="line"/>
      <point x="559" y="97" type="line"/>
      <point x="501" y="47" type="line"/>
    </contour>
    <contour>
      <point x="105" y="300" type="curve" smooth="yes"/>
      <point x="130" y="439"/>
      <point x="250" y="540"/>
      <point x="385" y="540" type="curve" smooth="yes"/>
      <point x="520" y="540"/>
      <point x="606" y="439"/>
      <point x="581" y="300" type="curve" smooth="yes"/>
      <point x="556" y="161"/>
      <point x="436" y="60"/>
      <point x="301" y="60" type="curve" smooth="yes"/>
      <point x="166" y="60"/>
      <point x="80" y="161"/>
    </contour>
    <contour>
      <point x="186" y="300" type="curve" smooth="yes"/>
      <point x="169" y="204"/>
      <point x="224" y="135"/>
      <point x="314" y="135" type="curve" smooth="yes"/>
      <point x="404" y="135"/>
      <point x="483" y="204"/>
      <point x="500" y="300" type="curve" smooth="yes"/>
      <point x="517" y="396"/>
      <point x="462" y="465"/>
      <point x="372" y="465" type="curve" smooth="yes"/>
      <point x="282" y="465"/>
      <point x="203" y="396"/>
    </contour>
  </outline>
</glyph>
<glyph name="yen" format="1">
  <advance width="580"/>
  <unicode hex="00A5"/>
  <outline>
    <contour>
      <point x="311" y="360" type="line"/>
      <point x="397" y="360" type="line"/>
      <point x="334" y="0" type="line"/>
      <point x="248" y="0" type="line"/>
    </contour>
    <contour>
      <point x="595" y="700" type="line"/>
      <point x="689" y="700" type="line"/>
      <point x="330" y="229" type="line"/>
      <point x="139" y="700" type="line"/>
      <point x="233" y="700" type="line"/>
      <point x="356" y="376" type="line"/>
    </contour>
    <contour>
      <point x="70" y="140" type="line"/>
      <point x="83" y="215" type="line"/>
      <point x="568" y="215" type="line"/>
      <point x="555" y="140" type="line"/>
    </contour>
    <contour>
      <point x="96" y="290" type="line"/>
      <point x="109" y="365" type="line"/>
      <point x="594" y="365" type="line"/>
      <point x="581" y="290" type="line"/>
    </contour>
  </outline>
</glyph>
<glyph name="section" format="1">
  <advance width="408"/>
  <unicode hex="00A7"/>
  <outline>
    <contour>
      <point x="412" y="579" type="line"/>
      <point x="399" y="617"/>
      <point x="358" y="634"/>
      <point x="321" y="634" type="curve" smooth="yes"/>
      <point x="281" y="634"/>
      <point x="248" y="620"/>
      <point x="243" y="589" type="curve" smooth="yes"/>
      <point x="237" y="553"/>
      <point x="293" y="527"/>
      <point x="340" y="506" type="curve" smooth="yes"/>
      <point x="400" y="479"/>
      <point x="455" y="437"/>
      <point x="443" y="370" type="curve" smooth="yes"/>
      <point x="426" y="271"/>
      <point x="351" y="240"/>
      <point x="252" y="240" type="curve"/>
      <point x="258" y="275" type="line"/>
      <point x="308" y="275"/>
      <point x="352" y="323"/>
      <point x="359" y="363" type="curve" smooth="yes"/>
      <point x="368" y="413"/>
      <point x="320" y="434"/>
      <point x="271" y="455" type="curve" smooth="yes"/>
      <point x="212" y="480"/>
      <point x="149" y="512"/>
      <point x="163" y="589" type="curve" smooth="yes"/>
      <point x="176" y="665"/>
      <point x="259" y="710"/>
      <point x="333" y="710" type="curve" smooth="yes"/>
      <point x="406" y="710"/>
      <point x="474" y="671"/>
      <point x="483" y="620" type="curve"/>
    </contour>
    <contour>
      <point x="124" y="161" type="line"/>
      <point x="126" y="105"/>
      <point x="169" y="65"/>
      <point x="226" y="65" type="curve" smooth="yes"/>
      <point x="276" y="65"/>
      <point x="310" y="83"/>
      <point x="317" y="123" type="curve" smooth="yes"/>
      <point x="326" y="173"/>
      <point x="278" y="194"/>
      <point x="229" y="215" type="curve" smooth="yes"/>
      <point x="170" y="240"/>
      <point x="108" y="282"/>
      <point x="122" y="359" type="curve" smooth="yes"/>
      <point x="135" y="435"/>
      <point x="199" y="480"/>
      <point x="313" y="480" type="curve"/>
      <point x="308" y="454" type="line"/>
      <point x="244" y="434"/>
      <point x="211" y="410"/>
      <point x="204" y="369" type="curve" smooth="yes"/>
      <point x="192" y="303"/>
      <point x="251" y="287"/>
      <point x="298" y="266" type="curve" smooth="yes"/>
      <point x="358" y="239"/>
      <point x="413" y="197"/>
      <point x="401" y="130" type="curve" smooth="yes"/>
      <point x="384" y="31"/>
      <point x="307" y="-10"/>
      <point x="208" y="-10" type="curve" smooth="yes"/>
      <point x="123" y="-10"/>
      <point x="53" y="48"/>
      <point x="52" y="123" type="curve"/>
    </contour>
  </outline>
</glyph>
<glyph name="logicalnot" format="1">
  <advance width="620"/>
  <unicode hex="00AC"/>
  <outline>
    <contour>
      <point x="118" y="300" type="line"/>
      <point x="131" y="375" type="line"/>
      <point x="621" y="375" type="line"/>
      <point x="608" y="300" type="line"/>
    </contour>
    <contour>
      <point x="546" y="375" type="line"/>
      <point x="621" y="375" type="line"/>
      <point x="586" y="175" type="line"/>
      <point x="511" y="175" type="line"/>
    </contour>
  </outline>
</glyph>
<glyph name="macron" format="1">
  <advance width="510"/>
  <unicode hex="00AF"/>
  <outline>
    <contour>
      <point x="186" y="600" type="line"/>
      <point x="199" y="675" type="line"/>
      <point x="549" y="675" type="line"/>
      <point x="536" y="600" type="line"/>
    </contour>
  </outline>
</glyph>
<glyph name="uni00B3" format="1">
  <advance width="312"/>
  <unicode hex="00B3"/>
  <outline>
    <contour>
      <point x="227" y="487" type="curve"/>
      <point x="233" y="520" type="line"/>
      <point x="287" y="520"/>
      <point x="324" y="553"/>
      <point x="331" y="593" type="curve" smooth="yes"/>
      <point x="338" y="633"/>
      <point x="320" y="660"/>
      <point x="278" y="660" type="curve" smooth="yes"/>
      <point x="239" y="660"/>
      <point x="204" y="633"/>
      <point x="197" y="596" type="curve"/>
      <point x="148" y="596" type="line"/>
      <point x="159" y="661"/>
      <point x="217" y="706"/>
      <point x="286" y="706" type="curve" smooth="yes"/>
      <point x="358" y="706"/>
      <point x="393" y="653"/>
      <point x="383" y="594" type="curve" smooth="yes"/>
      <point x="373" y="535"/>
      <point x="308" y="487"/>
    </contour>
    <contour>
      <point x="207" y="274" type="curve" smooth="yes"/>
      <point x="126" y="274"/>
      <point x="83" y="326"/>
      <point x="94" y="391" type="curve"/>
      <point x="146" y="391" type="line"/>
      <point x="139" y="351"/>
      <point x="168" y="322"/>
      <point x="216" y="322" type="curve" smooth="yes"/>
      <point x="264" y="322"/>
      <point x="300" y="351"/>
      <point x="308" y="397" type="curve" smooth="yes"/>
      <point x="317" y="449"/>
      <point x="279" y="475"/>
      <point x="225" y="475" type="curve"/>
      <point x="231" y="508" type="line"/>
      <point x="312" y="508"/>
      <point x="374" y="474"/>
      <point x="359" y="391" type="curve" smooth="yes"/>
      <point x="346" y="320"/>
      <point x="282" y="274"/>
    </contour>
  </outline>
</glyph>
<glyph name="paragraph" format="1">
  <advance width="578"/>
  <unicode hex="00B6"/>
  <outline>
    <contour>
      <point x="400" y="635" type="line"/>
      <point x="411" y="700" type="line"/>
      <point x="611" y="700" type="line"/>
      <point x="600" y="635" type="line"/>
    </contour>
    <contour>
      <point x="571" y="700" type="line"/>
      <point x="641" y="700" type="line"/>
      <point x="479" y="-220" type="line"/>
      <point x="409" y="-220" type="line"/>
    </contour>
    <contour>
      <point x="411" y="700" type="line"/>
      <point x="481" y="700" type="line"/>
      <point x="319" y="-220" type="line"/>
      <point x="249" y="-220" type="line"/>
    </contour>
    <contour>
      <point x="336" y="270" type="line"/>
      <point x="211" y="270"/>
      <point x="121" y="346"/>
      <point x="146" y="485" type="curve" smooth="yes"/>
      <point x="171" y="624"/>
      <point x="286" y="700"/>
      <point x="411" y="700" type="curve"/>
    </contour>
  </outline>
</glyph>
<glyph name="uni00B9" format="1">
  <advance width="470"/>
  <unicode hex="00B9"/>
  <outline>
    <contour>
      <point x="260" y="611" type="line"/>
      <point x="269" y="664" type="line"/>
      <point x="419" y="700" type="line"/>
      <point x="344" y="274" type="line"/>
      <point x="293" y="274" type="line"/>
      <point x="358" y="639" type="line"/>
    </contour>
  </outline>
</glyph>
<glyph name="onequarter" format="1">
  <advance width="754"/>
  <unicode hex="00BC"/>
  <outline>
    <contour>
      <point x="741" y="700" type="line"/>
      <point x="806" y="700" type="line"/>
      <point x="163" y="0" type="line"/>
      <point x="98" y="0" type="line"/>
    </contour>
    <contour>
      <point x="138" y="611" type="line"/>
      <point x="147" y="664" type="line"/>
      <point x="297" y="700" type="line"/>
      <point x="222" y="274" type="line"/>
      <point x="171" y="274" type="line"/>
      <point x="236" y="639" type="line"/>
    </contour>
    <contour>
      <point x="413" y="84" type="line"/>
      <point x="463" y="129" type="line"/>
      <point x="645" y="129" type="line" smooth="yes"/>
      <point x="655" y="129" type="line" smooth="yes"/>
      <point x="741" y="129" type="line"/>
      <point x="733" y="84" type="line"/>
    </contour>
    <contour>
      <point x="467" y="84" type="line"/>
      <point x="413" y="84" type="line"/>
      <point x="705" y="420" type="line"/>
      <point x="726" y="420" type="line"/>
      <point x="652" y="0" type="line"/>
      <point x="601" y="0" type="line"/>
      <point x="620" y="106" type="line" smooth="yes"/>
      <point x="621" y="112" type="line" smooth="yes"/>
      <point x="655" y="307" type="line"/>
    </contour>
  </outline>
</glyph>
<glyph name="questiondown" format="1">
  <advance width="557"/>
  <unicode hex="00BF"/>
  <outline>
    <contour>
      <point x="478" y="660" type="curve" smooth="yes"/>
      <point x="473" y="630"/>
      <point x="444" y="605"/>
      <point x="414" y="605" type="curve" smooth="yes"/>
      <point x="384" y="605"/>
      <point x="363" y="630"/>
      <point x="368" y="660" type="curve" smooth="yes"/>
      <point x="373" y="690"/>
      <point x="403" y="715"/>
      <point x="433" y="715" type="curve" smooth="yes"/>
      <point x="463" y="715"/>
      <point x="483" y="690"/>
    </contour>
    <contour>
      <point x="422" y="355" type="line"/>
      <point x="332" y="355" type="line"/>
      <point x="372" y="530" type="line"/>
      <point x="432" y="530" type="line"/>
    </contour>
    <contour>
      <point x="176" y="200" type="curve" smooth="yes"/>
      <point x="161" y="114"/>
      <point x="209" y="65"/>
      <point x="299" y="65" type="curve" smooth="yes"/>
      <point x="366" y="65"/>
      <point x="418" y="98"/>
      <point x="458" y="148" type="curve"/>
      <point x="516" y="107" type="line"/>
      <point x="458" y="37"/>
      <point x="395" y="-10"/>
      <point x="276" y="-10" type="curve" smooth="yes"/>
      <point x="151" y="-10"/>
      <point x="74" y="81"/>
      <point x="95" y="200" type="curve" smooth="yes"/>
      <point x="116" y="319"/>
      <point x="240" y="410"/>
      <point x="355" y="410" type="curve"/>
      <point x="396" y="355" type="line"/>
      <point x="276" y="355"/>
      <point x="189" y="276"/>
    </contour>
  </outline>
</glyph>
<glyph name="Acircumflex" format="1">
  <advance width="660"/>
  <unicode hex="00C2"/>
  <outline>
    <contour>
      <point x="184" y="210" type="line"/>
      <point x="228" y="290" type="line"/>
      <point x="538" y="290" type="line"/>
      <point x="554" y="210" type="line"/>
    </contour>
    <contour>
      <point x="426" y="542" type="line"/>
      <point x="259" y="264" type="line"/>
      <point x="247" y="246" type="line"/>
      <point x="100" y="0" type="line"/>
      <point x="5" y="0" type="line"/>
      <point x="460" y="735" type="line"/>
      <point x="655" y="0" type="line"/>
      <point x="560" y="0" type="line"/>
      <point x="500" y="240" type="line"/>
      <point x="496" y="260" type="line"/>
    </contour>
    <contour>
      <point x="480" y="850" type="line"/>
      <point x="353" y="755" type="line"/>
      <point x="310" y="795" type="line"/>
      <point x="495" y="935" type="line"/>
      <point x="630" y="795" type="line"/>
      <point x="573" y="755" type="line"/>
    </contour>
  </outline>
</glyph>
<glyph name="Atilde" format="1">
  <advance width="660"/>
  <unicode hex="00C3"/>
  <outline>
    <contour>
      <point x="184" y="210" type="line"/>
      <point x="228" y="290" type="line"/>
      <point x="538" y="290" type="line"/>
      <point x="554" y="210" type="line"/>
    </contour>
    <contour>
      <point x="426" y="542" type="line"/>
      <point x="259" y="264" type="line"/>
      <point x="247" y="246" type="line"/>
      <point x="100" y="0" type="line"/>
      <point x="5" y="0" type="line"/>
      <point x="460" y="735" type="line"/>
      <point x="655" y="0" type="line"/>
      <point x="560" y="0" type="line"/>
      <point x="500" y="240" type="line"/>
      <point x="496" y="260" type="line"/>
    </contour>
    <contour>
      <point x="308" y="812" type="line"/>
      <point x="327" y="861"/>
      <point x="382" y="894"/>
      <point x="427" y="894" type="curve" smooth="yes"/>
      <point x="492" y="894"/>
      <point x="488" y="847"/>
      <point x="542" y="847" type="curve" smooth="yes"/>
      <point x="561" y="847"/>
      <point x="581" y="863"/>
      <point x="607" y="895" type="curve"/>
      <point x="645" y="852" type="line"/>
      <point x="622" y="815"/>
      <point x="576" y="779"/>
      <point x="526" y="779" type="curve" smooth="yes"/>
      <point x="471" y="779"/>
      <point x="459" y="826"/>
      <point x="414" y="826" type="curve" smooth="yes"/>
      <point x="373" y="826"/>
      <point x="358" y="790"/>
      <point x="355" y="775" type="curve"/>
    </contour>
  </outline>
</glyph>
<glyph name="Adieresis" format="1">
  <advance width="660"/>
  <unicode hex="00C4"/>
  <outline>
    <contour>
      <point x="184" y="210" type="line"/>
      <point x="228" y="290" type="line"/>
      <point x="538" y="290" type="line"/>
      <point x="554" y="210" type="line"/>
    </contour>
    <contour>
      <point x="426" y="542" type="line"/>
      <point x="259" y="264" type="line"/>
      <point x="247" y="246" type="line"/>
      <point x="100" y="0" type="line"/>
      <point x="5" y="0" type="line"/>
      <point x="460" y="735" type="line"/>
      <point x="655" y="0" type="line"/>
      <point x="560" y="0" type="line"/>
      <point x="500" y="240" type="line"/>
      <point x="496" y="260" type="line"/>
    </contour>
    <contour>
      <point x="525" y="850" type="curve" smooth="yes"/>
      <point x="530" y="880"/>
      <point x="560" y="905"/>
      <point x="590" y="905" type="curve" smooth="yes"/>
      <point x="620" y="905"/>
      <point x="640" y="880"/>
      <point x="635" y="850" type="curve" smooth="yes"/>
      <point x="630" y="820"/>
      <point x="600" y="795"/>
      <point x="570" y="795" type="curve" smooth="yes"/>
      <point x="540" y="795"/>
      <point x="520" y="820"/>
    </contour>
    <contour>
      <point x="325" y="850" type="curve" smooth="yes"/>
      <point x="330" y="880"/>
      <point x="360" y="905"/>
      <point x="390" y="905" type="curve" smooth="yes"/>
      <point x="420" y="905"/>
      <point x="440" y="880"/>
      <point x="435" y="850" type="curve" smooth="yes"/>
      <point x="430" y="820"/>
      <point x="400" y="795"/>
      <point x="370" y="795" type="curve" smooth="yes"/>
      <point x="340" y="795"/>
      <point x="320" y="820"/>
    </contour>
  </outline>
</glyph>
<glyph name="Aring" format="1">
  <advance width="660"/>
  <unicode hex="00C5"/>
  <outline>
    <contour>
      <point x="184" y="210" type="line"/>
      <point x="228" y="290" type="line"/>
      <point x="538" y="290" type="line"/>
      <point x="554" y="210" type="line"/>
    </contour>
    <contour>
      <point x="426" y="542" type="line"/>
      <point x="259" y="264" type="line"/>
      <point x="247" y="246" type="line"/>
      <point x="100" y="0" type="line"/>
      <point x="5" y="0" type="line"/>
      <point x="460" y="735" type="line"/>
      <point x="655" y="0" type="line"/>
      <point x="560" y="0" type="line"/>
      <point x="500" y="240" type="line"/>
      <point x="496" y="260" type="line"/>
    </contour>
    <contour>
      <point x="369" y="798" type="curve" smooth="yes"/>
      <point x="380" y="858"/>
      <point x="436" y="898"/>
      <point x="488" y="898" type="curve" smooth="yes"/>
      <point x="540" y="898"/>
      <point x="584" y="858"/>
      <point x="573" y="798" type="curve" smooth="yes"/>
      <point x="562" y="738"/>
      <point x="505" y="698"/>
      <point x="453" y="698" type="curve" smooth="yes"/>
      <point x="401" y="698"/>
      <point x="358" y="738"/>
    </contour>
    <contour>
      <point x="420" y="798" type="curve" smooth="yes"/>
      <point x="414" y="765"/>
      <point x="436" y="745"/>
      <point x="461" y="745" type="curve" smooth="yes"/>
      <point x="486" y="745"/>
      <point x="516" y="765"/>
      <point x="522" y="798" type="curve" smooth="yes"/>
      <point x="528" y="831"/>
      <point x="505" y="851"/>
      <point x="480" y="851" type="curve" smooth="yes"/>
      <point x="455" y="851"/>
      <point x="426" y="831"/>
    </contour>
  </outline>
</glyph>
<glyph name="AE" format="1">
  <advance width="960"/>
  <unicode hex="00C6"/>
  <outline>
    <contour>
      <point x="254" y="210" type="line"/>
      <point x="268" y="290" type="line"/>
      <point x="568" y="290" type="line"/>
      <point x="554" y="210" type="line"/>
    </contour>
    <contour>
      <point x="558" y="700" type="line"/>
      <point x="620" y="660" type="line"/>
      <point x="100" y="0" type="line"/>
      <point x="5" y="0" type="line"/>
    </contour>
    <contour>
      <point x="537" y="0" type="line"/>
      <point x="551" y="80" type="line"/>
      <point x="904" y="80" type="line"/>
      <point x="890" y="0" type="line"/>
    </contour>
    <contour>
      <point x="654" y="620" type="line"/>
      <point x="558" y="700" type="line"/>
      <point x="1013" y="700" type="line"/>
      <point x="999" y="620" type="line"/>
    </contour>
    <contour>
      <point x="597" y="340" type="line"/>
      <point x="611" y="420" type="line"/>
      <point x="944" y="420" type="line"/>
      <point x="930" y="340" type="line"/>
    </contour>
    <contour>
      <point x="613" y="700" type="line"/>
      <point x="698" y="700" type="line"/>
      <point x="575" y="0" type="line"/>
      <point x="490" y="0" type="line"/>
    </contour>
  </outline>
</glyph>
<glyph name="Ccedilla" format="1">
  <advance width="685"/>
  <unicode hex="00C7"/>
  <outline>
    <contour>
      <point x="192" y="350" type="curve" smooth="yes"/>
      <point x="163" y="187"/>
      <point x="265" y="75"/>
      <point x="403" y="75" type="curve" smooth="yes"/>
      <point x="502" y="75"/>
      <point x="587" y="117"/>
      <point x="647" y="179" type="curve"/>
      <point x="627" y="67" type="line"/>
      <point x="559" y="15"/>
      <point x="490" y="-10"/>
      <point x="388" y="-10" type="curve" smooth="yes"/>
      <point x="194" y="-10"/>
      <point x="65" y="141"/>
      <point x="102" y="350" type="curve" smooth="yes"/>
      <point x="139" y="559"/>
      <point x="321" y="710"/>
      <point x="515" y="710" type="curve" smooth="yes"/>
      <point x="617" y="710"/>
      <point x="677" y="685"/>
      <point x="727" y="633" type="curve"/>
      <point x="707" y="521" type="line"/>
      <point x="669" y="583"/>
      <point x="599" y="625"/>
      <point x="500" y="625" type="curve" smooth="yes"/>
      <point x="362" y="625"/>
      <point x="221" y="513"/>
    </contour>
    <contour>
      <point x="410" y="57" type="line"/>
      <point x="471" y="57" type="line"/>
      <point x="386" y="-57" type="line"/>
      <point x="295" y="-111" type="line"/>
    </contour>
    <contour>
      <point x="456" y="-129" type="curve"/>
      <point x="399" y="-129" type="line"/>
      <point x="403" y="-105"/>
      <point x="390" y="-93"/>
      <point x="356" y="-93" type="curve" smooth="yes"/>
      <point x="346" y="-93"/>
      <point x="321" y="-95"/>
      <point x="295" y="-111" type="curve"/>
      <point x="342" y="-71" type="line"/>
      <point x="371" y="-55"/>
      <point x="383" y="-55"/>
      <point x="396" y="-55" type="curve" smooth="yes"/>
      <point x="429" y="-55"/>
      <point x="465" y="-80"/>
    </contour>
    <contour>
      <point x="456" y="-129" type="line"/>
      <point x="445" y="-190"/>
      <point x="388" y="-223"/>
      <point x="333" y="-223" type="curve" smooth="yes"/>
      <point x="296" y="-223"/>
      <point x="273" y="-213"/>
      <point x="250" y="-185" type="curve"/>
      <point x="290" y="-145" type="line"/>
      <point x="306" y="-161"/>
      <point x="316" y="-169"/>
      <point x="342" y="-169" type="curve" smooth="yes"/>
      <point x="376" y="-169"/>
      <point x="395" y="-153"/>
      <point x="399" y="-129" type="curve"/>
    </contour>
  </outline>
</glyph>
<glyph name="Igrave" format="1">
  <advance width="245"/>
  <unicode hex="00CC"/>
  <outline>
    <contour>
      <point x="203" y="700" type="line"/>
      <point x="288" y="700" type="line"/>
      <point x="165" y="0" type="line"/>
      <point x="80" y="0" type="line"/>
    </contour>
    <contour>
      <point x="154" y="920" type="line"/>
      <point x="237" y="960" type="line"/>
      <point x="359" y="800" type="line"/>
      <point x="308" y="770" type="line"/>
    </contour>
  </outline>
</glyph>
<glyph name="Icircumflex" format="1">
  <advance width="245"/>
  <unicode hex="00CE"/>
  <outline>
    <contour>
      <point x="203" y="700" type="line"/>
      <point x="288" y="700" type="line"/>
      <point x="165" y="0" type="line"/>
      <point x="80" y="0" type="line"/>
    </contour>
    <contour>
      <point x="275" y="865" type="line"/>
      <point x="148" y="770" type="line"/>
      <point x="105" y="810" type="line"/>
      <point x="290" y="950" type="line"/>
      <point x="425" y="810" type="line"/>
      <point x="368" y="770" type="line"/>
    </contour>
  </outline>
</glyph>
<glyph name="Eth" format="1">
  <advance width="680"/>
  <unicode hex="00D0"/>
  <outline>
    <contour>
      <point x="235" y="615" type="line"/>
      <point x="250" y="700" type="line"/>
      <point x="413" y="700" type="line" smooth="yes"/>
      <point x="617" y="700"/>
      <point x="739" y="559"/>
      <point x="702" y="350" type="curve"/>
      <point x="617" y="350" type="line"/>
      <point x="646" y="513"/>
      <point x="556" y="615"/>
      <point x="398" y="615" type="curve" smooth="yes"/>
    </contour>
    <contour>
      <point x="290" y="0" type="curve" smooth="yes"/>
      <point x="127" y="0" type="line"/>
      <point x="142" y="85" type="line"/>
      <point x="305" y="85" type="line" smooth="yes"/>
      <point x="463" y="85"/>
      <point x="588" y="187"/>
      <point x="617" y="350" type="curve"/>
      <point x="702" y="350" type="line"/>
      <point x="665" y="141"/>
      <point x="494" y="0"/>
    </contour>
    <contour>
      <point x="203" y="700" type="line"/>
      <point x="288" y="700" type="line"/>
      <point x="165" y="0" type="line"/>
      <point x="80" y="0" type="line"/>
    </contour>
    <contour>
      <point x="60" y="310" type="line"/>
      <point x="73" y="385" type="line"/>
      <point x="373" y="385" type="line"/>
      <point x="360" y="310" type="line"/>
    </contour>
  </outline>
</glyph>
<glyph name="Otilde" format="1">
  <advance width="790"/>
  <unicode hex="00D5"/>
  <outline>
    <contour>
      <point x="192" y="350" type="curve" smooth="yes"/>
      <point x="164" y="192"/>
      <point x="255" y="75"/>
      <point x="408" y="75" type="curve" smooth="yes"/>
      <point x="561" y="75"/>
      <point x="694" y="192"/>
      <point x="722" y="350" type="curve" smooth="yes"/>
      <point x="750" y="508"/>
      <point x="658" y="625"/>
      <point x="505" y="625" type="curve" smooth="yes"/>
      <point x="352" y="625"/>
      <point x="220" y="508"/>
    </contour>
    <contour>
      <point x="102" y="350" type="curve" smooth="yes"/>
      <point x="138" y="554"/>
      <point x="316" y="710"/>
      <point x="520" y="710" type="curve" smooth="yes"/>
      <point x="724" y="710"/>
      <point x="848" y="554"/>
      <point x="812" y="350" type="curve" smooth="yes"/>
      <point x="776" y="146"/>
      <point x="597" y="-10"/>
      <point x="393" y="-10" type="curve" smooth="yes"/>
      <point x="189" y="-10"/>
      <point x="66" y="146"/>
    </contour>
    <contour>
      <point x="372" y="807" type="line"/>
      <point x="391" y="856"/>
      <point x="446" y="889"/>
      <point x="491" y="889" type="curve" smooth="yes"/>
      <point x="556" y="889"/>
      <point x="552" y="842"/>
      <point x="606" y="842" type="curve" smooth="yes"/>
      <point x="625" y="842"/>
      <point x="645" y="858"/>
      <point x="671" y="890" type="curve"/>
      <point x="709" y="847" type="line"/>
      <point x="686" y="810"/>
      <point x="640" y="774"/>
      <point x="590" y="774" type="curve" smooth="yes"/>
      <point x="535" y="774"/>
      <point x="523" y="821"/>
      <point x="478" y="821" type="curve" smooth="yes"/>
      <point x="437" y="821"/>
      <point x="422" y="785"/>
      <point x="419" y="770" type="curve"/>
    </contour>
  </outline>
</glyph>
<glyph name="Odieresis" format="1">
  <advance width="790"/>
  <unicode hex="00D6"/>
  <outline>
    <contour>
      <point x="192" y="350" type="curve" smooth="yes"/>
      <point x="164" y="192"/>
      <point x="255" y="75"/>
      <point x="408" y="75" type="curve" smooth="yes"/>
      <point x="561" y="75"/>
      <point x="694" y="192"/>
      <point x="722" y="350" type="curve" smooth="yes"/>
      <point x="750" y="508"/>
      <point x="658" y="625"/>
      <point x="505" y="625" type="curve" smooth="yes"/>
      <point x="352" y="625"/>
      <point x="220" y="508"/>
    </contour>
    <contour>
      <point x="102" y="350" type="curve" smooth="yes"/>
      <point x="138" y="554"/>
      <point x="316" y="710"/>
      <point x="520" y="710" type="curve" smooth="yes"/>
      <point x="724" y="710"/>
      <point x="848" y="554"/>
      <point x="812" y="350" type="curve" smooth="yes"/>
      <point x="776" y="146"/>
      <point x="597" y="-10"/>
      <point x="393" y="-10" type="curve" smooth="yes"/>
      <point x="189" y="-10"/>
      <point x="66" y="146"/>
    </contour>
    <contour>
      <point x="585" y="825" type="curve" smooth="yes"/>
      <point x="590" y="855"/>
      <point x="620" y="880"/>
      <point x="650" y="880" type="curve" smooth="yes"/>
      <point x="680" y="880"/>
      <point x="700" y="855"/>
      <point x="695" y="825" type="curve" smooth="yes"/>
      <point x="690" y="795"/>
      <point x="661" y="770"/>
      <point x="631" y="770" type="curve" smooth="yes"/>
      <point x="601" y="770"/>
      <point x="580" y="795"/>
    </contour>
    <contour>
      <point x="385" y="825" type="curve" smooth="yes"/>
      <point x="390" y="855"/>
      <point x="420" y="880"/>
      <point x="450" y="880" type="curve" smooth="yes"/>
      <point x="480" y="880"/>
      <point x="500" y="855"/>
      <point x="495" y="825" type="curve" smooth="yes"/>
      <point x="490" y="795"/>
      <point x="461" y="770"/>
      <point x="431" y="770" type="curve" smooth="yes"/>
      <point x="401" y="770"/>
      <point x="380" y="795"/>
    </contour>
  </outline>
</glyph>
<glyph name="Uacute" format="1">
  <advance width="626"/>
  <unicode hex="00DA"/>
  <outline>
    <contour>
      <point x="198" y="700" type="line"/>
      <point x="283" y="700" type="line"/>
      <point x="201" y="230" type="line" smooth="yes"/>
      <point x="184" y="134"/>
      <point x="225" y="70"/>
      <point x="325" y="70" type="curve" smooth="yes"/>
      <point x="425" y="70"/>
      <point x="490" y="134"/>
      <point x="507" y="230" type="curve" smooth="yes"/>
      <point x="589" y="700" type="line"/>
      <point x="674" y="700" type="line"/>
      <point x="592" y="230" type="line" smooth="yes"/>
      <point x="567" y="91"/>
      <point x="456" y="-10"/>
      <point x="311" y="-10" type="curve" smooth="yes"/>
      <point x="166" y="-10"/>
      <point x="91" y="91"/>
      <point x="116" y="230" type="curve" smooth="yes"/>
    </contour>
    <contour>
      <point x="605" y="920" type="line"/>
      <point x="399" y="770" type="line"/>
      <point x="359" y="800" type="line"/>
      <point x="537" y="960" type="line"/>
    </contour>
  </outline>
</glyph>
<glyph name="Ucircumflex" format="1">
  <advance width="626"/>
  <unicode hex="00DB"/>
  <outline>
    <contour>
      <point x="198" y="700" type="line"/>
      <point x="283" y="700" type="line"/>
      <point x="201" y="230" type="line" smooth="yes"/>
      <point x="184" y="134"/>
      <point x="225" y="70"/>
      <point x="325" y="70" type="curve" smooth="yes"/>
      <point x="425" y="70"/>
      <point x="490" y="134"/>
      <point x="507" y="230" type="curve" smooth="yes"/>
      <point x="589" y="700" type="line"/>
      <point x="674" y="700" type="line"/>
      <point x="592" y="230" type="line" smooth="yes"/>
      <point x="567" y="91"/>
      <point x="456" y="-10"/>
      <point x="311" y="-10" type="curve" smooth="yes"/>
      <point x="166" y="-10"/>
      <point x="91" y="91"/>
      <point x="116" y="230" type="curve" smooth="yes"/>
    </contour>
    <contour>
      <point x="466" y="865" type="line"/>
      <point x="339" y="770" type="line"/>
      <point x="296" y="810" type="line"/>
      <point x="481" y="950" type="line"/>
      <point x="616" y="810" type="line"/>
      <point x="559" y="770" type="line"/>
    </contour>
  </outline>
</glyph>
<glyph name="Thorn" format="1">
  <advance width="550"/>
  <unicode hex="00DE"/>
  <outline>
    <contour>
      <point x="295" y="140" type="curve"/>
      <point x="309" y="220" type="line"/>
      <point x="399" y="220"/>
      <point x="470" y="264"/>
      <point x="485" y="350" type="curve" smooth="yes"/>
      <point x="500" y="436"/>
      <point x="445" y="480"/>
      <point x="355" y="480" type="curve"/>
      <point x="369" y="560" type="line"/>
      <point x="504" y="560"/>
      <point x="593" y="479"/>
      <point x="570" y="350" type="curve" smooth="yes"/>
      <point x="547" y="221"/>
      <point x="430" y="140"/>
    </contour>
    <contour>
      <point x="152" y="140" type="line"/>
      <point x="166" y="220" type="line"/>
      <point x="309" y="220" type="line"/>
      <point x="295" y="140" type="line"/>
    </contour>
    <contour>
      <point x="212" y="480" type="line"/>
      <point x="226" y="560" type="line"/>
      <point x="369" y="560" type="line"/>
      <point x="355" y="480" type="line"/>
    </contour>
    <contour>
      <point x="203" y="700" type="line"/>
      <point x="288" y="700" type="line"/>
      <point x="165" y="0" type="line"/>
      <point x="80" y="0" type="line"/>
    </contour>
  </outline>
</glyph>
<glyph name="germandbls" format="1">
  <advance width="570"/>
  <unicode hex="00DF"/>
  <outline>
    <contour>
      <point x="187" y="606" type="line"/>
      <point x="267" y="606" type="line"/>
      <point x="160" y="0" type="line"/>
      <point x="80" y="0" type="line"/>
    </contour>
    <contour>
      <point x="327" y="425" type="curve"/>
      <point x="337" y="480" type="line"/>
      <point x="447" y="480"/>
      <point x="499" y="540"/>
      <point x="509" y="596" type="curve" smooth="yes"/>
      <point x="521" y="662"/>
      <point x="493" y="715"/>
      <point x="403" y="715" type="curve" smooth="yes"/>
      <point x="343" y="715"/>
      <point x="280" y="682"/>
      <point x="267" y="606" type="curve"/>
      <point x="187" y="606" type="line"/>
      <point x="206" y="715"/>
      <point x="311" y="790"/>
      <point x="416" y="790" type="curve" smooth="yes"/>
      <point x="551" y="790"/>
      <point x="611" y="715"/>
      <point x="592" y="606" type="curve" smooth="yes"/>
      <point x="571" y="487"/>
      <point x="482" y="425"/>
    </contour>
    <contour>
      <point x="283" y="65" type="line"/>
      <point x="363" y="65"/>
      <point x="466" y="129"/>
      <point x="485" y="235" type="curve" smooth="yes"/>
      <point x="500" y="321"/>
      <point x="433" y="405"/>
      <point x="323" y="405" type="curve"/>
      <point x="333" y="460" type="line"/>
      <point x="488" y="460"/>
      <point x="590" y="364"/>
      <point x="565" y="225" type="curve" smooth="yes"/>
      <point x="540" y="86"/>
      <point x="405" y="-10"/>
      <point x="270" y="-10" type="curve"/>
    </contour>
  </outline>
</glyph>
<glyph name="acircumflex" format="1">
  <advance width="570"/>
  <unicode hex="00E2"/>
  <outline>
    <contour>
      <point x="506" y="460" type="line"/>
      <point x="581" y="460" type="line"/>
      <point x="500" y="0" type="line"/>
      <point x="425" y="0" type="line"/>
    </contour>
    <contour>
      <point x="76" y="230" type="curve" smooth="yes"/>
      <point x="102" y="379"/>
      <point x="221" y="470"/>
      <point x="346" y="470" type="curve" smooth="yes"/>
      <point x="461" y="470"/>
      <point x="523" y="379"/>
      <point x="497" y="230" type="curve" smooth="yes"/>
      <point x="471" y="81"/>
      <point x="376" y="-10"/>
      <point x="261" y="-10" type="curve" smooth="yes"/>
      <point x="136" y="-10"/>
      <point x="50" y="81"/>
    </contour>
    <contour>
      <point x="157" y="230" type="curve" smooth="yes"/>
      <point x="138" y="124"/>
      <point x="199" y="65"/>
      <point x="284" y="65" type="curve" smooth="yes"/>
      <point x="354" y="65"/>
      <point x="442" y="124"/>
      <point x="461" y="230" type="curve" smooth="yes"/>
      <point x="480" y="336"/>
      <point x="413" y="395"/>
      <point x="343" y="395" type="curve" smooth="yes"/>
      <point x="258" y="395"/>
      <point x="176" y="336"/>
    </contour>
    <contour>
      <point x="393" y="625" type="line"/>
      <point x="266" y="530" type="line"/>
      <point x="224" y="570" type="line"/>
      <point x="408" y="710" type="line"/>
      <point x="544" y="570" type="line"/>
      <point x="486" y="530" type="line"/>
    </contour>
  </outline>
</glyph>
<glyph name="ae" format="1">
  <advance width="825"/>
  <unicode hex="00E6"/>
  <outline>
    <contour>
      <point x="135" y="135" type="curve" smooth="yes"/>
      <point x="126" y="86"/>
      <point x="155" y="61"/>
      <point x="219" y="61" type="curve" smooth="yes"/>
      <point x="299" y="61"/>
      <point x="362" y="94"/>
      <point x="377" y="180" type="curve"/>
      <point x="414" y="130" type="line"/>
      <point x="398" y="41"/>
      <point x="301" y="-10"/>
      <point x="206" y="-10" type="curve" smooth="yes"/>
      <point x="91" y="-10"/>
      <point x="37" y="41"/>
      <point x="52" y="125" type="curve" smooth="yes"/>
      <point x="71" y="232"/>
      <point x="165" y="286"/>
      <point x="276" y="286" type="curve" smooth="yes"/>
      <point x="364" y="286"/>
      <point x="407" y="242"/>
      <point x="418" y="225" type="curve"/>
      <point x="409" y="178" type="line"/>
      <point x="370" y="210"/>
      <point x="328" y="225"/>
      <point x="270" y="225" type="curve" smooth="yes"/>
      <point x="189" y="225"/>
      <point x="145" y="191"/>
    </contour>
    <contour>
      <point x="173" y="352" type="curve"/>
      <point x="145" y="413" type="line"/>
      <point x="183" y="438"/>
      <point x="248" y="470"/>
      <point x="331" y="470" type="curve" smooth="yes"/>
      <point x="436" y="470"/>
      <point x="479" y="419"/>
      <point x="463" y="330" type="curve" smooth="yes"/>
      <point x="428" y="130" type="line"/>
      <point x="368" y="130" type="line"/>
      <point x="401" y="320" type="line" smooth="yes"/>
      <point x="409" y="366"/>
      <point x="369" y="400"/>
      <point x="319" y="400" type="curve" smooth="yes"/>
      <point x="253" y="400"/>
      <point x="198" y="368"/>
    </contour>
    <contour>
      <point x="443" y="210" type="line"/>
      <point x="455" y="278" type="line"/>
      <point x="818" y="278" type="line"/>
      <point x="826" y="210" type="line"/>
    </contour>
    <contour>
      <point x="749" y="250" type="line" smooth="yes"/>
      <point x="764" y="336"/>
      <point x="734" y="400"/>
      <point x="644" y="400" type="curve" smooth="yes"/>
      <point x="564" y="400"/>
      <point x="489" y="346"/>
      <point x="474" y="260" type="curve"/>
      <point x="467" y="230" type="line"/>
      <point x="448" y="124"/>
      <point x="494" y="65"/>
      <point x="584" y="65" type="curve" smooth="yes"/>
      <point x="651" y="65"/>
      <point x="703" y="98"/>
      <point x="743" y="148" type="curve"/>
      <point x="801" y="107" type="line"/>
      <point x="743" y="37"/>
      <point x="680" y="-10"/>
      <point x="561" y="-10" type="curve" smooth="yes"/>
      <point x="436" y="-10"/>
      <point x="371" y="91"/>
      <point x="396" y="230" type="curve" smooth="yes"/>
      <point x="399" y="247"/>
      <point x="412" y="263"/>
      <point x="418" y="279" type="curve" smooth="yes"/>
      <point x="457" y="392"/>
      <point x="547" y="470"/>
      <point x="666" y="470" type="curve" smooth="yes"/>
      <point x="776" y="470"/>
      <point x="857" y="379"/>
      <point x="831" y="234" type="curve" smooth="yes"/>
      <point x="830" y="226"/>
      <point x="828" y="218"/>
      <point x="826" y="210" type="curve"/>
      <point x="746" y="230" type="line"/>
    </contour>
  </outline>
</glyph>
<glyph name="edieresis" format="1">
  <advance width="515"/>
  <unicode hex="00EB"/>
  <outline>
    <contour>
      <point x="133" y="210" type="line"/>
      <point x="145" y="278" type="line"/>
      <point x="508" y="278" type="line"/>
      <point x="516" y="210" type="line"/>
    </contour>
    <contour>
      <point x="439" y="250" type="line" smooth="yes"/>
      <point x="454" y="336"/>
      <point x="424" y="400"/>
      <point x="334" y="400" type="curve" smooth="yes"/>
      <point x="254" y="400"/>
      <point x="179" y="346"/>
      <point x="164" y="260" type="curve"/>
      <point x="157" y="230" type="line"/>
      <point x="138" y="124"/>
      <point x="184" y="65"/>
      <point x="274" y="65" type="curve" smooth="yes"/>
      <point x="341" y="65"/>
      <point x="393" y="98"/>
      <point x="433" y="148" type="curve"/>
      <point x="491" y="107" type="line"/>
      <point x="433" y="37"/>
      <point x="370" y="-10"/>
      <point x="251" y="-10" type="curve" smooth="yes"/>
      <point x="126" y="-10"/>
      <point x="51" y="91"/>
      <point x="76" y="230" type="curve" smooth="yes"/>
      <point x="79" y="247"/>
      <point x="82" y="263"/>
      <point x="88" y="279" type="curve" smooth="yes"/>
      <point x="127" y="392"/>
      <point x="227" y="470"/>
      <point x="346" y="470" type="curve" smooth="yes"/>
      <point x="476" y="470"/>
      <point x="547" y="379"/>
      <point x="521" y="234" type="curve" smooth="yes"/>
      <point x="520" y="226"/>
      <point x="518" y="218"/>
      <point x="516" y="210" type="curve"/>
      <point x="436" y="230" type="line"/>
    </contour>
    <contour>
      <point x="411" y="585" type="curve" smooth="yes"/>
      <point x="416" y="615"/>
      <point x="446" y="640"/>
      <point x="476" y="640" type="curve" smooth="yes"/>
      <point x="506" y="640"/>
      <point x="526" y="615"/>
      <point x="521" y="585" type="curve" smooth="yes"/>
      <point x="516" y="555"/>
      <point x="486" y="530"/>
      <point x="456" y="530" type="curve" smooth="yes"/>
      <point x="426" y="530"/>
      <point x="406" y="555"/>
    </contour>
    <contour>
      <point x="211" y="585" type="curve" smooth="yes"/>
      <point x="216" y="615"/>
      <point x="246" y="640"/>
      <point x="276" y="640" type="curve" smooth="yes"/>
      <point x="306" y="640"/>
      <point x="326" y="615"/>
      <point x="321" y="585" type="curve" smooth="yes"/>
      <point x="316" y="555"/>
      <point x="286" y="530"/>
      <point x="256" y="530" type="curve" smooth="yes"/>
      <point x="226" y="530"/>
      <point x="206" y="555"/>
    </contour>
  </outline>
</glyph>
<glyph name="igrave" format="1">
  <advance width="260"/>
  <unicode hex="00EC"/>
  <outline>
    <contour>
      <point x="171" y="460" type="line"/>
      <point x="251" y="460" type="line"/>
      <point x="170" y="0" type="line"/>
      <point x="90" y="0" type="line"/>
    </contour>
    <contour>
      <point x="93" y="700" type="line"/>
      <point x="175" y="740" type="line"/>
      <point x="297" y="580" type="line"/>
      <point x="247" y="550" type="line"/>
    </contour>
  </outline>
</glyph>
<glyph name="iacute" format="1">
  <advance width="260"/>
  <unicode hex="00ED"/>
  <outline>
    <contour>
      <point x="171" y="460" type="line"/>
      <point x="251" y="460" type="line"/>
      <point x="170" y="0" type="line"/>
      <point x="90" y="0" type="line"/>
    </contour>
    <contour>
      <point x="413" y="700" type="line"/>
      <point x="207" y="550" type="line"/>
      <point x="167" y="580" type="line"/>
      <point x="345" y="740" type="line"/>
    </contour>
  </outline>
</glyph>
<glyph name="idieresis" format="1">
  <advance width="260"/>
  <unicode hex="00EF"/>
  <outline>
    <contour>
      <point x="171" y="460" type="line"/>
      <point x="251" y="460" type="line"/>
      <point x="170" y="0" type="line"/>
      <point x="90" y="0" type="line"/>
    </contour>
    <contour>
      <point x="283" y="615" type="curve" smooth="yes"/>
      <point x="288" y="645"/>
      <point x="318" y="670"/>
      <point x="348" y="670" type="curve" smooth="yes"/>
      <point x="378" y="670"/>
      <point x="398" y="645"/>
      <point x="393" y="615" type="curve" smooth="yes"/>
      <point x="388" y="585"/>
      <point x="359" y="560"/>
      <point x="329" y="560" type="curve" smooth="yes"/>
      <point x="299" y="560"/>
      <point x="278" y="585"/>
    </contour>
    <contour>
      <point x="83" y="615" type="curve" smooth="yes"/>
      <point x="88" y="645"/>
      <point x="118" y="670"/>
      <point x="148" y="670" type="curve" smooth="yes"/>
      <point x="178" y="670"/>
      <point x="198" y="645"/>
      <point x="193" y="615" type="curve" smooth="yes"/>
      <point x="188" y="585"/>
      <point x="159" y="560"/>
      <point x="129" y="560" type="curve" smooth="yes"/>
      <point x="99" y="560"/>
      <point x="78" y="585"/>
    </contour>
  </outline>
</glyph>
<glyph name="otilde" format="1">
  <advance width="546"/>
  <unicode hex="00F5"/>
  <outline>
    <contour>
      <point x="76" y="230" type="curve" smooth="yes"/>
      <point x="101" y="369"/>
      <point x="221" y="470"/>
      <point x="356" y="470" type="curve" smooth="yes"/>
      <point x="491" y="470"/>
      <point x="577" y="369"/>
      <point x="552" y="230" type="curve" smooth="yes"/>
      <point x="527" y="91"/>
      <point x="406" y="-10"/>
      <point x="271" y="-10" type="curve" smooth="yes"/>
      <point x="136" y="-10"/>
      <point x="51" y="91"/>
    </contour>
    <contour>
      <point x="157" y="230" type="curve" smooth="yes"/>
      <point x="140" y="134"/>
      <point x="194" y="65"/>
      <point x="284" y="65" type="curve" smooth="yes"/>
      <point x="374" y="65"/>
      <point x="454" y="134"/>
      <point x="471" y="230" type="curve" smooth="yes"/>
      <point x="488" y="326"/>
      <point x="433" y="395"/>
      <point x="343" y="395" type="curve" smooth="yes"/>
      <point x="253" y="395"/>
      <point x="174" y="326"/>
    </contour>
    <contour>
      <point x="208" y="567" type="line"/>
      <point x="227" y="616"/>
      <point x="281" y="649"/>
      <point x="326" y="649" type="curve" smooth="yes"/>
      <point x="391" y="649"/>
      <point x="388" y="602"/>
      <point x="442" y="602" type="curve" smooth="yes"/>
      <point x="461" y="602"/>
      <point x="481" y="618"/>
      <point x="507" y="650" type="curve"/>
      <point x="545" y="607" type="line"/>
      <point x="522" y="570"/>
      <point x="476" y="534"/>
      <point x="426" y="534" type="curve" smooth="yes"/>
      <point x="371" y="534"/>
      <point x="358" y="581"/>
      <point x="313" y="581" type="curve" smooth="yes"/>
      <point x="272" y="581"/>
      <point x="257" y="545"/>
      <point x="254" y="530" type="curve"/>
    </contour>
  </outline>
</glyph>
<glyph name="divide" format="1">
  <advance width="623"/>
  <unicode hex="00F7"/>
  <outline>
    <contour>
      <point x="334" y="450" type="curve" smooth="yes"/>
      <point x="339" y="480"/>
      <point x="369" y="505"/>
      <point x="399" y="505" type="curve" smooth="yes"/>
      <point x="429" y="505"/>
      <point x="449" y="480"/>
      <point x="444" y="450" type="curve" smooth="yes"/>
      <point x="439" y="420"/>
      <point x="410" y="395"/>
      <point x="380" y="395" type="curve" smooth="yes"/>
      <point x="350" y="395"/>
      <point x="329" y="420"/>
    </contour>
    <contour>
      <point x="267" y="70" type="curve" smooth="yes"/>
      <point x="272" y="100"/>
      <point x="302" y="125"/>
      <point x="332" y="125" type="curve" smooth="yes"/>
      <point x="362" y="125"/>
      <point x="382" y="100"/>
      <point x="377" y="70" type="curve" smooth="yes"/>
      <point x="372" y="40"/>
      <point x="343" y="15"/>
      <point x="313" y="15" type="curve" smooth="yes"/>
      <point x="283" y="15"/>
      <point x="262" y="40"/>
    </contour>
    <contour>
      <point x="100" y="225" type="line"/>
      <point x="114" y="305" type="line"/>
      <point x="614" y="305" type="line"/>
      <point x="600" y="225" type="line"/>
    </contour>
  </outline>
</glyph>
<glyph name="ugrave" format="1">
  <advance width="525"/>
  <unicode hex="00F9"/>
  <outline>
    <contour>
      <point x="370" y="0" type="line"/>
      <point x="451" y="460" type="line"/>
      <point x="531" y="460" type="line"/>
      <point x="450" y="0" type="line"/>
    </contour>
    <contour>
      <point x="187" y="180" type="line" smooth="yes"/>
      <point x="174" y="104"/>
      <point x="199" y="65"/>
      <point x="264" y="65" type="curve" smooth="yes"/>
      <point x="334" y="65"/>
      <point x="390" y="114"/>
      <point x="402" y="180" type="curve"/>
      <point x="438" y="180" type="line"/>
      <point x="419" y="71"/>
      <point x="326" y="-10"/>
      <point x="231" y="-10" type="curve" smooth="yes"/>
      <point x="136" y="-10"/>
      <point x="84" y="51"/>
      <point x="105" y="170" type="curve" smooth="yes"/>
      <point x="156" y="460" type="line"/>
      <point x="236" y="460" type="line"/>
    </contour>
    <contour>
      <point x="265" y="700" type="line"/>
      <point x="348" y="740" type="line"/>
      <point x="470" y="580" type="line"/>
      <point x="419" y="550" type="line"/>
    </contour>
  </outline>
</glyph>
<glyph name="ucircumflex" format="1">
  <advance width="525"/>
  <unicode hex="00FB"/>
  <outline>
    <contour>
      <point x="370" y="0" type="line"/>
      <point x="451" y="460" type="line"/>
      <point x="531" y="460" type="line"/>
      <point x="450" y="0" type="line"/>
    </contour>
    <contour>
      <point x="187" y="180" type="line" smooth="yes"/>
      <point x="174" y="104"/>
      <point x="199" y="65"/>
      <point x="264" y="65" type="curve" smooth="yes"/>
      <point x="334" y="65"/>
      <point x="390" y="114"/>
      <point x="402" y="180" type="curve"/>
      <point x="438" y="180" type="line"/>
      <point x="419" y="71"/>
      <point x="326" y="-10"/>
      <point x="231" y="-10" type="curve" smooth="yes"/>
      <point x="136" y="-10"/>
      <point x="84" y="51"/>
      <point x="105" y="170" type="curve" smooth="yes"/>
      <point x="156" y="460" type="line"/>
      <point x="236" y="460" type="line"/>
    </contour>
    <contour>
      <point x="376" y="645" type="line"/>
      <point x="249" y="550" type="line"/>
      <point x="206" y="590" type="line"/>
      <point x="391" y="730" type="line"/>
      <point x="526" y="590" type="line"/>
      <point x="469" y="550" type="line"/>
    </contour>
  </outline>
</glyph>
<glyph name="udieresis" format="1">
  <advance width="525"/>
  <unicode hex="00FC"/>
  <outline>
    <contour>
      <point x="370" y="0" type="line"/>
      <point x="451" y="460" type="line"/>
      <point x="531" y="460" type="line"/>
      <point x="450" y="0" type="line"/>
    </contour>
    <contour>
      <point x="187" y="180" type="line" smooth="yes"/>
      <point x="174" y="104"/>
      <point x="199" y="65"/>
      <point x="264" y="65" type="curve" smooth="yes"/>
      <point x="334" y="65"/>
      <point x="390" y="114"/>
      <point x="402" y="180" type="curve"/>
      <point x="438" y="180" type="line"/>
      <point x="419" y="71"/>
      <point x="326" y="-10"/>
      <point x="231" y="-10" type="curve" smooth="yes"/>
      <point x="136" y="-10"/>
      <point x="84" y="51"/>
      <point x="105" y="170" type="curve" smooth="yes"/>
      <point x="156" y="460" type="line"/>
      <point x="236" y="460" type="line"/>
    </contour>
    <contour>
      <point x="415" y="605" type="curve" smooth="yes"/>
      <point x="420" y="635"/>
      <point x="448" y="660"/>
      <point x="478" y="660" type="curve" smooth="yes"/>
      <point x="508" y="660"/>
      <point x="530" y="635"/>
      <point x="525" y="605" type="curve" smooth="yes"/>
      <point x="520" y="575"/>
      <point x="489" y="550"/>
      <point x="459" y="550" type="curve" smooth="yes"/>
      <point x="429" y="550"/>
      <point x="410" y="575"/>
    </contour>
    <contour>
      <point x="215" y="605" type="curve" smooth="yes"/>
      <point x="220" y="635"/>
      <point x="248" y="660"/>
      <point x="278" y="660" type="curve" smooth="yes"/>
      <point x="308" y="660"/>
      <point x="330" y="635"/>
      <point x="325" y="605" type="curve" smooth="yes"/>
      <point x="320" y="575"/>
      <point x="289" y="550"/>
      <point x="259" y="550" type="curve" smooth="yes"/>
      <point x="229" y="550"/>
      <point x="210" y="575"/>
    </contour>
  </outline>
</glyph>
<glyph name="ydieresis" format="1">
  <advance width="440"/>
  <unicode hex="00FF"/>
  <outline>
    <contour>
      <point x="521" y="460" type="line"/>
      <point x="101" y="-220" type="line"/>
      <point x="11" y="-220" type="line"/>
      <point x="187" y="65" type="line"/>
      <point x="81" y="460" type="line"/>
      <point x="176" y="460" type="line"/>
      <point x="259" y="100" type="line"/>
      <point x="226" y="104" type="line"/>
      <point x="431" y="460" type="line"/>
    </contour>
    <contour>
      <point x="368" y="585" type="curve" smooth="yes"/>
      <point x="373" y="615"/>
      <point x="403" y="640"/>
      <point x="433" y="640" type="curve" smooth="yes"/>
      <point x="463" y="640"/>
      <point x="483" y="615"/>
      <point x="478" y="585" type="curve" smooth="yes"/>
      <point x="473" y="555"/>
      <point x="443" y="530"/>
      <point x="413" y="530" type="curve" smooth="yes"/>
      <point x="383" y="530"/>
      <point x="363" y="555"/>
    </contour>
    <contour>
      <point x="168" y="585" type="curve" smooth="yes"/>
      <point x="173" y="615"/>
      <point x="203" y="640"/>
      <point x="233" y="640" type="curve" smooth="yes"/>
      <point x="263" y="640"/>
      <point x="283" y="615"/>
      <point x="278" y="585" type="curve" smooth="yes"/>
      <point x="273" y="555"/>
      <point x="243" y="530"/>
      <point x="213" y="530" type="curve" smooth="yes"/>
      <point x="183" y="530"/>
      <point x="163" y="555"/>
    </contour>
  </outline>
</glyph>
<glyph name="cacute" format="1">
  <advance width="478"/>
  <unicode hex="0107"/>
  <outline>
    <contour>
      <point x="152" y="230" type="curve" smooth="yes"/>
      <point x="135" y="134"/>
      <point x="189" y="65"/>
      <point x="279" y="65" type="curve" smooth="yes"/>
      <point x="353" y="65"/>
      <point x="425" y="104"/>
      <point x="454" y="149" type="curve"/>
      <point x="437" y="49" type="line"/>
      <point x="398" y="11"/>
      <point x="329" y="-10"/>
      <point x="266" y="-10" type="curve" smooth="yes"/>
      <point x="131" y="-10"/>
      <point x="46" y="91"/>
      <point x="71" y="230" type="curve" smooth="yes"/>
      <point x="96" y="369"/>
      <point x="216" y="470"/>
      <point x="351" y="470" type="curve" smooth="yes"/>
      <point x="414" y="470"/>
      <point x="475" y="448"/>
      <point x="500" y="411" type="curve"/>
      <point x="483" y="311" type="line"/>
      <point x="470" y="356"/>
      <point x="412" y="395"/>
      <point x="338" y="395" type="curve" smooth="yes"/>
      <point x="248" y="395"/>
      <point x="169" y="326"/>
    </contour>
    <contour>
      <point x="518" y="680" type="line"/>
      <point x="311" y="530" type="line"/>
      <point x="272" y="560" type="line"/>
      <point x="450" y="720" type="line"/>
    </contour>
  </outline>
</glyph>
<glyph name="Ccircumflex" format="1">
  <advance width="685"/>
  <unicode hex="0108"/>
  <outline>
    <contour>
      <point x="192" y="350" type="curve" smooth="yes"/>
      <point x="163" y="187"/>
      <point x="265" y="75"/>
      <point x="403" y="75" type="curve" smooth="yes"/>
      <point x="502" y="75"/>
      <point x="587" y="117"/>
      <point x="647" y="179" type="curve"/>
      <point x="627" y="67" type="line"/>
      <point x="559" y="15"/>
      <point x="490" y="-10"/>
      <point x="388" y="-10" type="curve" smooth="yes"/>
      <point x="194" y="-10"/>
      <point x="65" y="141"/>
      <point x="102" y="350" type="curve" smooth="yes"/>
      <point x="139" y="559"/>
      <point x="321" y="710"/>
      <point x="515" y="710" type="curve" smooth="yes"/>
      <point x="617" y="710"/>
      <point x="677" y="685"/>
      <point x="727" y="633" type="curve"/>
      <point x="707" y="521" type="line"/>
      <point x="669" y="583"/>
      <point x="599" y="625"/>
      <point x="500" y="625" type="curve" smooth="yes"/>
      <point x="362" y="625"/>
      <point x="221" y="513"/>
    </contour>
    <contour>
      <point x="543" y="865" type="line"/>
      <point x="416" y="770" type="line"/>
      <point x="373" y="810" type="line"/>
      <point x="558" y="950" type="line"/>
      <point x="693" y="810" type="line"/>
      <point x="636" y="770" type="line"/>
    </contour>
  </outline>
</glyph>
<glyph name="ccircumflex" format="1">
  <advance width="478"/>
  <unicode hex="0109"/>
  <outline>
    <contour>
      <point x="152" y="230" type="curve" smooth="yes"/>
      <point x="135" y="134"/>
      <point x="189" y="65"/>
      <point x="279" y="65" type="curve" smooth="yes"/>
      <point x="353" y="65"/>
      <point x="425" y="104"/>
      <point x="454" y="149" type="curve"/>
      <point x="437" y="49" type="line"/>
      <point x="398" y="11"/>
      <point x="329" y="-10"/>
      <point x="266" y="-10" type="curve" smooth="yes"/>
      <point x="131" y="-10"/>
      <point x="46" y="91"/>
      <point x="71" y="230" type="curve" smooth="yes"/>
      <point x="96" y="369"/>
      <point x="216" y="470"/>
      <point x="351" y="470" type="curve" smooth="yes"/>
      <point x="414" y="470"/>
      <point x="475" y="448"/>
      <point x="500" y="411" type="curve"/>
      <point x="483" y="311" type="line"/>
      <point x="470" y="356"/>
      <point x="412" y="395"/>
      <point x="338" y="395" type="curve" smooth="yes"/>
      <point x="248" y="395"/>
      <point x="169" y="326"/>
    </contour>
    <contour>
      <point x="378" y="625" type="line"/>
      <point x="251" y="530" type="line"/>
      <point x="209" y="570" type="line"/>
      <point x="393" y="710" type="line"/>
      <point x="529" y="570" type="line"/>
      <point x="471" y="530" type="line"/>
    </contour>
  </outline>
</glyph>
<glyph name="Cdotaccent" format="1">
  <advance width="685"/>
  <unicode hex="010A"/>
  <outline>
    <contour>
      <point x="192" y="350" type="curve" smooth="yes"/>
      <point x="163" y="187"/>
      <point x="265" y="75"/>
      <point x="403" y="75" type="curve" smooth="yes"/>
      <point x="502" y="75"/>
      <point x="587" y="117"/>
      <point x="647" y="179" type="curve"/>
      <point x="627" y="67" type="line"/>
      <point x="559" y="15"/>
      <point x="490" y="-10"/>
      <point x="388" y="-10" type="curve" smooth="yes"/>
      <point x="194" y="-10"/>
      <point x="65" y="141"/>
      <point x="102" y="350" type="curve" smooth="yes"/>
      <point x="139" y="559"/>
      <point x="321" y="710"/>
      <point x="515" y="710" type="curve" smooth="yes"/>
      <point x="617" y="710"/>
      <point x="677" y="685"/>
      <point x="727" y="633" type="curve"/>
      <point x="707" y="521" type="line"/>
      <point x="669" y="583"/>
      <point x="599" y="625"/>
      <point x="500" y="625" type="curve" smooth="yes"/>
      <point x="362" y="625"/>
      <point x="221" y="513"/>
    </contour>
    <contour>
      <point x="480" y="825" type="curve" smooth="yes"/>
      <point x="485" y="855"/>
      <point x="515" y="880"/>
      <point x="545" y="880" type="curve" smooth="yes"/>
      <point x="575" y="880"/>
      <point x="595" y="855"/>
      <point x="590" y="825" type="curve" smooth="yes"/>
      <point x="585" y="795"/>
      <point x="556" y="770"/>
      <point x="526" y="770" type="curve" smooth="yes"/>
      <point x="496" y="770"/>
      <point x="475" y="795"/>
    </contour>
  </outline>
</glyph>
<glyph name="cdotaccent" format="1">
  <advance width="478"/>
  <unicode hex="010B"/>
  <outline>
    <contour>
      <point x="152" y="230" type="curve" smooth="yes"/>
      <point x="135" y="134"/>
      <point x="189" y="65"/>
      <point x="279" y="65" type="curve" smooth="yes"/>
      <point x="353" y="65"/>
      <point x="425" y="104"/>
      <point x="454" y="149" type="curve"/>
      <point x="437" y="49" type="line"/>
      <point x="398" y="11"/>
      <point x="329" y="-10"/>
      <point x="266" y="-10" type="curve" smooth="yes"/>
      <point x="131" y="-10"/>
      <point x="46" y="91"/>
      <point x="71" y="230" type="curve" smooth="yes"/>
      <point x="96" y="369"/>
      <point x="216" y="470"/>
      <point x="351" y="470" type="curve" smooth="yes"/>
      <point x="414" y="470"/>
      <point x="475" y="448"/>
      <point x="500" y="411" type="curve"/>
      <point x="483" y="311" type="line"/>
      <point x="470" y="356"/>
      <point x="412" y="395"/>
      <point x="338" y="395" type="curve" smooth="yes"/>
      <point x="248" y="395"/>
      <point x="169" y="326"/>
    </contour>
    <contour>
      <point x="316" y="585" type="curve" smooth="yes"/>
      <point x="321" y="615"/>
      <point x="351" y="640"/>
      <point x="381" y="640" type="curve" smooth="yes"/>
      <point x="411" y="640"/>
      <point x="431" y="615"/>
      <point x="426" y="585" type="curve" smooth="yes"/>
      <point x="421" y="555"/>
      <point x="391" y="530"/>
      <point x="361" y="530" type="curve" smooth="yes"/>
      <point x="331" y="530"/>
      <point x="311" y="555"/>
    </contour>
  </outline>
</glyph>
<glyph name="Eogonek" format="1">
  <advance width="550"/>
  <unicode hex="0118"/>
  <outline>
    <contour>
      <point x="127" y="0" type="line"/>
      <point x="141" y="80" type="line"/>
      <point x="494" y="80" type="line"/>
      <point x="480" y="0" type="line"/>
    </contour>
    <contour>
      <point x="236" y="620" type="line"/>
      <point x="250" y="700" type="line"/>
      <point x="603" y="700" type="line"/>
      <point x="589" y="620" type="line"/>
    </contour>
    <contour>
      <point x="187" y="340" type="line"/>
      <point x="201" y="420" type="line"/>
      <point x="534" y="420" type="line"/>
      <point x="520" y="340" type="line"/>
    </contour>
    <contour>
      <point x="203" y="700" type="line"/>
      <point x="288" y="700" type="line"/>
      <point x="165" y="0" type="line"/>
      <point x="80" y="0" type="line"/>
    </contour>
    <contour>
      <point x="455" y="-131" type="curve"/>
      <point x="479" y="-181" type="line"/>
      <point x="460" y="-201"/>
      <point x="427" y="-221"/>
      <point x="384" y="-221" type="curve" smooth="yes"/>
      <point x="300" y="-221"/>
      <point x="269" y="-180"/>
      <point x="279" y="-121" type="curve"/>
      <point x="362" y="-101" type="line"/>
      <point x="356" y="-137"/>
      <point x="371" y="-151"/>
      <point x="401" y="-151" type="curve" smooth="yes"/>
      <point x="427" y="-151"/>
      <point x="439" y="-144"/>
    </contour>
    <contour>
      <point x="362" y="-101" type="curve"/>
      <point x="279" y="-121" type="line"/>
      <point x="289" y="-62"/>
      <point x="360" y="-12"/>
      <point x="436" y="24" type="curve"/>
      <point x="473" y="-1" type="line"/>
      <point x="417" y="-23"/>
      <point x="369" y="-64"/>
    </contour>
  </outline>
</glyph>
<glyph name="eogonek" format="1">
  <advance width="515"/>
  <unicode hex="0119"/>
  <outline>
    <contour>
      <point x="133" y="210" type="line"/>
      <point x="145" y="278" type="line"/>
      <point x="508" y="278" type="line"/>
      <point x="516" y="210" type="line"/>
    </contour>
    <contour>
      <point x="439" y="250" type="line" smooth="yes"/>
      <point x="454" y="336"/>
      <point x="424" y="400"/>
      <point x="334" y="400" type="curve" smooth="yes"/>
      <point x="254" y="400"/>
      <point x="179" y="346"/>
      <point x="164" y="260" type="curve"/>
      <point x="157" y="230" type="line"/>
      <point x="138" y="124"/>
      <point x="184" y="65"/>
      <point x="274" y="65" type="curve" smooth="yes"/>
      <point x="341" y="65"/>
      <point x="393" y="98"/>
      <point x="433" y="148" type="curve"/>
      <point x="491" y="107" type="line"/>
      <point x="433" y="37"/>
      <point x="370" y="-10"/>
      <point x="251" y="-10" type="curve" smooth="yes"/>
      <point x="126" y="-10"/>
      <point x="51" y="91"/>
      <point x="76" y="230" type="curve" smooth="yes"/>
      <point x="79" y="247"/>
      <point x="82" y="263"/>
      <point x="88" y="279" type="curve" smooth="yes"/>
      <point x="127" y="392"/>
      <point x="227" y="470"/>
      <point x="346" y="470" type="curve" smooth="yes"/>
      <point x="476" y="470"/>
      <point x="547" y="379"/>
      <point x="521" y="234" type="curve" smooth="yes"/>
      <point x="520" y="226"/>
      <point x="518" y="218"/>
      <point x="516" y="210" type="curve"/>
      <point x="436" y="230" type="line"/>
    </contour>
    <contour>
      <point x="276" y="-133" type="curve"/>
      <point x="300" y="-183" type="line"/>
      <point x="281" y="-203"/>
      <point x="248" y="-223"/>
      <point x="205" y="-223" type="curve" smooth="yes"/>
      <point x="121" y="-223"/>
      <point x="89" y="-182"/>
      <point x="99" y="-123" type="curve"/>
      <point x="183" y="-103" type="line"/>
      <point x="177" y="-139"/>
      <point x="192" y="-153"/>
      <point x="222" y="-153" type="curve" smooth="yes"/>
      <point x="248" y="-153"/>
      <point x="260" y="-146"/>
    </contour>
    <contour>
      <point x="183" y="-103" type="curve"/>
      <point x="99" y="-123" type="line"/>
      <point x="109" y="-64"/>
      <point x="181" y="-14"/>
      <point x="257" y="22" type="curve"/>
      <point x="293" y="-3" type="line"/>
      <point x="237" y="-25"/>
      <point x="190" y="-66"/>
    </contour>
  </outline>
</glyph>
<glyph name="Gcircumflex" format="1">
  <advance width="775"/>
  <unicode hex="011C"/>
  <outline>
    <contour>
      <point x="453" y="275" type="line"/>
      <point x="468" y="355" type="line"/>
      <point x="793" y="355" type="line"/>
      <point x="723" y="275" type="line"/>
    </contour>
    <contour>
      <point x="793" y="355" type="line"/>
      <point x="759" y="161"/>
      <point x="607" y="-10"/>
      <point x="393" y="-10" type="curve" smooth="yes"/>
      <point x="189" y="-10"/>
      <point x="65" y="141"/>
      <point x="102" y="350" type="curve" smooth="yes"/>
      <point x="139" y="559"/>
      <point x="316" y="710"/>
      <point x="520" y="710" type="curve" smooth="yes"/>
      <point x="649" y="710"/>
      <point x="742" y="658"/>
      <point x="785" y="561" type="curve"/>
      <point x="715" y="506" type="line"/>
      <point x="684" y="580"/>
      <point x="612" y="625"/>
      <point x="505" y="625" type="curve" smooth="yes"/>
      <point x="357" y="625"/>
      <point x="221" y="513"/>
      <point x="192" y="350" type="curve" smooth="yes"/>
      <point x="163" y="187"/>
      <point x="260" y="75"/>
      <point x="408" y="75" type="curve" smooth="yes"/>
      <point x="576" y="75"/>
      <point x="682" y="207"/>
      <point x="706" y="345" type="curve"/>
    </contour>
    <contour>
      <point x="548" y="865" type="line"/>
      <point x="421" y="770" type="line"/>
      <point x="378" y="810" type="line"/>
      <point x="563" y="950" type="line"/>
      <point x="698" y="810" type="line"/>
      <point x="641" y="770" type="line"/>
    </contour>
  </outline>
</glyph>
<glyph name="Gbreve" format="1">
  <advance width="775"/>
  <unicode hex="011E"/>
  <outline>
    <contour>
      <point x="453" y="275" type="line"/>
      <point x="468" y="355" type="line"/>
      <point x="793" y="355" type="line"/>
      <point x="723" y="275" type="line"/>
    </contour>
    <contour>
      <point x="793" y="355" type="line"/>
      <point x="759" y="161"/>
      <point x="607" y="-10"/>
      <point x="393" y="-10" type="curve" smooth="yes"/>
      <point x="189" y="-10"/>
      <point x="65" y="141"/>
      <point x="102" y="350" type="curve" smooth="yes"/>
      <point x="139" y="559"/>
      <point x="316" y="710"/>
      <point x="520" y="710" type="curve" smooth="yes"/>
      <point x="649" y="710"/>
      <point x="742" y="658"/>
      <point x="785" y="561" type="curve"/>
      <point x="715" y="506" type="line"/>
      <point x="684" y="580"/>
      <point x="612" y="625"/>
      <point x="505" y="625" type="curve" smooth="yes"/>
      <point x="357" y="625"/>
      <point x="221" y="513"/>
      <point x="192" y="350" type="curve" smooth="yes"/>
      <point x="163" y="187"/>
      <point x="260" y="75"/>
      <point x="408" y="75" type="curve" smooth="yes"/>
      <point x="576" y="75"/>
      <point x="682" y="207"/>
      <point x="706" y="345" type="curve"/>
    </contour>
    <contour>
      <point x="397" y="910" type="curve"/>
      <point x="468" y="910" type="line"/>
      <point x="463" y="884"/>
      <point x="472" y="835"/>
      <point x="542" y="835" type="curve" smooth="yes"/>
      <point x="612" y="835"/>
      <point x="637" y="884"/>
      <point x="642" y="910" type="curve"/>
      <point x="713" y="910" type="line"/>
      <point x="701" y="841"/>
      <point x="636" y="770"/>
      <point x="531" y="770" type="curve" smooth="yes"/>
      <point x="426" y="770"/>
      <point x="385" y="841"/>
    </contour>
  </outline>
</glyph>
<glyph name="gbreve" format="1">
  <advance width="570"/>
  <unicode hex="011F"/>
  <outline>
    <contour>
      <point x="497" y="230" type="curve"/>
      <point x="461" y="230" type="line"/>
      <point x="480" y="336"/>
      <point x="413" y="395"/>
      <point x="343" y="395" type="curve" smooth="yes"/>
      <point x="258" y="395"/>
      <point x="176" y="336"/>
      <point x="157" y="230" type="curve"/>
      <point x="76" y="230" type="line"/>
      <point x="102" y="379"/>
      <point x="221" y="470"/>
      <point x="346" y="470" type="curve" smooth="yes"/>
      <point x="461" y="470"/>
      <point x="523" y="379"/>
    </contour>
    <contour>
      <point x="461" y="230" type="curve"/>
      <point x="497" y="230" type="line"/>
      <point x="471" y="81"/>
      <point x="376" y="-10"/>
      <point x="261" y="-10" type="curve" smooth="yes"/>
      <point x="136" y="-10"/>
      <point x="50" y="81"/>
      <point x="76" y="230" type="curve"/>
      <point x="157" y="230" type="line"/>
      <point x="138" y="124"/>
      <point x="199" y="65"/>
      <point x="284" y="65" type="curve" smooth="yes"/>
      <point x="354" y="65"/>
      <point x="442" y="124"/>
    </contour>
    <contour>
      <point x="39" y="-30" type="curve"/>
      <point x="120" y="-30" type="line"/>
      <point x="108" y="-96"/>
      <point x="155" y="-155"/>
      <point x="245" y="-155" type="curve" smooth="yes"/>
      <point x="315" y="-155"/>
      <point x="402" y="-106"/>
      <point x="422" y="10" type="curve" smooth="yes"/>
      <point x="501" y="460" type="line"/>
      <point x="581" y="460" type="line"/>
      <point x="502" y="10" type="line" smooth="yes"/>
      <point x="474" y="-149"/>
      <point x="346" y="-230"/>
      <point x="231" y="-230" type="curve" smooth="yes"/>
      <point x="96" y="-230"/>
      <point x="18" y="-149"/>
    </contour>
    <contour>
      <point x="223" y="670" type="curve"/>
      <point x="294" y="670" type="line"/>
      <point x="289" y="644"/>
      <point x="298" y="595"/>
      <point x="368" y="595" type="curve" smooth="yes"/>
      <point x="438" y="595"/>
      <point x="463" y="644"/>
      <point x="468" y="670" type="curve"/>
      <point x="539" y="670" type="line"/>
      <point x="527" y="601"/>
      <point x="461" y="530"/>
      <point x="356" y="530" type="curve" smooth="yes"/>
      <point x="251" y="530"/>
      <point x="211" y="601"/>
    </contour>
  </outline>
</glyph>
<glyph name="Hcircumflex" format="1">
  <advance width="715"/>
  <unicode hex="0124"/>
  <outline>
    <contour>
      <point x="187" y="340" type="line"/>
      <point x="201" y="420" type="line"/>
      <point x="681" y="420" type="line"/>
      <point x="667" y="340" type="line"/>
    </contour>
    <contour>
      <point x="673" y="700" type="line"/>
      <point x="758" y="700" type="line"/>
      <point x="635" y="0" type="line"/>
      <point x="550" y="0" type="line"/>
    </contour>
    <contour>
      <point x="203" y="700" type="line"/>
      <point x="288" y="700" type="line"/>
      <point x="165" y="0" type="line"/>
      <point x="80" y="0" type="line"/>
    </contour>
    <contour>
      <point x="511" y="865" type="line"/>
      <point x="384" y="770" type="line"/>
      <point x="341" y="810" type="line"/>
      <point x="526" y="950" type="line"/>
      <point x="661" y="810" type="line"/>
      <point x="604" y="770" type="line"/>
    </contour>
  </outline>
</glyph>
<glyph name="itilde" format="1">
  <advance width="260"/>
  <unicode hex="0129"/>
  <outline>
    <contour>
      <point x="171" y="460" type="line"/>
      <point x="251" y="460" type="line"/>
      <point x="170" y="0" type="line"/>
      <point x="90" y="0" type="line"/>
    </contour>
    <contour>
      <point x="65" y="567" type="line"/>
      <point x="84" y="616"/>
      <point x="138" y="649"/>
      <point x="183" y="649" type="curve" smooth="yes"/>
      <point x="248" y="649"/>
      <point x="245" y="602"/>
      <point x="299" y="602" type="curve" smooth="yes"/>
      <point x="318" y="602"/>
      <point x="338" y="618"/>
      <point x="364" y="650" type="curve"/>
      <point x="402" y="607" type="line"/>
      <point x="379" y="570"/>
      <point x="333" y="534"/>
      <point x="283" y="534" type="curve" smooth="yes"/>
      <point x="228" y="534"/>
      <point x="215" y="581"/>
      <point x="170" y="581" type="curve" smooth="yes"/>
      <point x="129" y="581"/>
      <point x="114" y="545"/>
      <point x="111" y="530" type="curve"/>
    </contour>
  </outline>
</glyph>
<glyph name="Ibreve" format="1">
  <advance width="245"/>
  <unicode hex="012C"/>
  <outline>
    <contour>
      <point x="203" y="700" type="line"/>
      <point x="288" y="700" type="line"/>
      <point x="165" y="0" type="line"/>
      <point x="80" y="0" type="line"/>
    </contour>
    <contour>
      <point x="125" y="910" type="curve"/>
      <point x="196" y="910" type="line"/>
      <point x="191" y="884"/>
      <point x="200" y="835"/>
      <point x="270" y="835" type="curve" smooth="yes"/>
      <point x="340" y="835"/>
      <point x="365" y="884"/>
      <point x="370" y="910" type="curve"/>
      <point x="441" y="910" type="line"/>
      <point x="429" y="841"/>
      <point x="364" y="770"/>
      <point x="259" y="770" type="curve" smooth="yes"/>
      <point x="154" y="770"/>
      <point x="113" y="841"/>
    </contour>
  </outline>
</glyph>
<glyph name="ibreve" format="1">
  <advance width="260"/>
  <unicode hex="012D"/>
  <outline>
    <contour>
      <point x="171" y="460" type="line"/>
      <point x="251" y="460" type="line"/>
      <point x="170" y="0" type="line"/>
      <point x="90" y="0" type="line"/>
    </contour>
    <contour>
      <point x="90" y="670" type="curve"/>
      <point x="161" y="670" type="line"/>
      <point x="156" y="644"/>
      <point x="165" y="595"/>
      <point x="235" y="595" type="curve" smooth="yes"/>
      <point x="305" y="595"/>
      <point x="330" y="644"/>
      <point x="335" y="670" type="curve"/>
      <point x="406" y="670" type="line"/>
      <point x="394" y="601"/>
      <point x="328" y="530"/>
      <point x="223" y="530" type="curve" smooth="yes"/>
      <point x="118" y="530"/>
      <point x="78" y="601"/>
    </contour>
  </outline>
</glyph>
<glyph name="Idotaccent" format="1">
  <advance width="245"/>
  <unicode hex="0130"/>
  <outline>
    <contour>
      <point x="203" y="700" type="line"/>
      <point x="288" y="700" type="line"/>
      <point x="165" y="0" type="line"/>
      <point x="80" y="0" type="line"/>
    </contour>
    <contour>
      <point x="212" y="825" type="curve" smooth="yes"/>
      <point x="217" y="855"/>
      <point x="247" y="880"/>
      <point x="277" y="880" type="curve" smooth="yes"/>
      <point x="307" y="880"/>
      <point x="327" y="855"/>
      <point x="322" y="825" type="curve" smooth="yes"/>
      <point x="317" y="795"/>
      <point x="288" y="770"/>
      <point x="258" y="770" type="curve" smooth="yes"/>
      <point x="228" y="770"/>
      <point x="207" y="795"/>
    </contour>
  </outline>
</glyph>
<glyph name="dotlessi" format="1">
  <advance width="260"/>
  <unicode hex="0131"/>
  <outline>
    <contour>
      <point x="171" y="460" type="line"/>
      <point x="251" y="460" type="line"/>
      <point x="170" y="0" type="line"/>
      <point x="90" y="0" type="line"/>
    </contour>
  </outline>
</glyph>
<glyph name="IJ" format="1">
  <advance width="490"/>
  <unicode hex="0132"/>
  <outline>
    <contour>
      <point x="165" y="-104" type="line"/>
      <point x="175" y="-127"/>
      <point x="201" y="-140"/>
      <point x="237" y="-140" type="curve" smooth="yes"/>
      <point x="267" y="-140"/>
      <point x="309" y="-116"/>
      <point x="321" y="-50" type="curve" smooth="yes"/>
      <point x="453" y="700" type="line"/>
      <point x="533" y="700" type="line"/>
      <point x="399" y="-60" type="line" smooth="yes"/>
      <point x="380" y="-169"/>
      <point x="312" y="-220"/>
      <point x="218" y="-220" type="curve" smooth="yes"/>
      <point x="165" y="-220"/>
      <point x="120" y="-190"/>
      <point x="109" y="-170" type="curve"/>
    </contour>
    <contour>
      <point x="203" y="700" type="line"/>
      <point x="288" y="700" type="line"/>
      <point x="165" y="0" type="line"/>
      <point x="80" y="0" type="line"/>
    </contour>
  </outline>
</glyph>
<glyph name="uni0137" format="1">
  <advance width="440"/>
  <unicode hex="0137"/>
  <outline>
    <contour>
      <point x="208" y="780" type="line"/>
      <point x="288" y="780" type="line"/>
      <point x="150" y="0" type="line"/>
      <point x="70" y="0" type="line"/>
    </contour>
    <contour>
      <point x="401" y="460" type="line"/>
      <point x="501" y="460" type="line"/>
      <point x="268" y="270" type="line"/>
      <point x="440" y="0" type="line"/>
      <point x="340" y="0" type="line"/>
      <point x="168" y="270" type="line"/>
    </contour>
    <contour>
      <point x="248" y="-60" type="line"/>
      <point x="323" y="-90" type="line"/>
      <point x="169" y="-340" type="line"/>
      <point x="115" y="-319" type="line"/>
    </contour>
  </outline>
</glyph>
<glyph name="kgreenlandic" format="1">
  <advance width="440"/>
  <unicode hex="0138"/>
  <outline>
    <contour>
      <point x="151" y="460" type="line"/>
      <point x="231" y="460" type="line"/>
      <point x="150" y="0" type="line"/>
      <point x="70" y="0" type="line"/>
    </contour>
    <contour>
      <point x="401" y="460" type="line"/>
      <point x="501" y="460" type="line"/>
      <point x="268" y="270" type="line"/>
      <point x="440" y="0" type="line"/>
      <point x="340" y="0" type="line"/>
      <point x="168" y="270" type="line"/>
    </contour>
  </outline>
</glyph>
<glyph name="Lcaron" format="1">
  <advance width="450"/>
  <unicode hex="013D"/>
  <outline>
    <contour>
      <point x="127" y="0" type="line"/>
      <point x="141" y="80" type="line"/>
      <point x="454" y="80" type="line"/>
      <point x="440" y="0" type="line"/>
    </contour>
    <contour>
      <point x="203" y="700" type="line"/>
      <point x="288" y="700" type="line"/>
      <point x="165" y="0" type="line"/>
      <point x="80" y="0" type="line"/>
    </contour>
    <contour>
      <point x="443" y="710" type="line"/>
      <point x="518" y="680" type="line"/>
      <point x="364" y="430" type="line"/>
      <point x="310" y="451" type="line"/>
    </contour>
  </outline>
</glyph>
<glyph name="uni0146" format="1">
  <advance width="525"/>
  <unicode hex="0146"/>
  <outline>
    <contour>
      <point x="236" y="460" type="line"/>
      <point x="155" y="0" type="line"/>
      <point x="75" y="0" type="line"/>
      <point x="156" y="460" type="line"/>
    </contour>
    <contour>
      <point x="419" y="280" type="line" smooth="yes"/>
      <point x="432" y="356"/>
      <point x="407" y="395"/>
      <point x="342" y="395" type="curve" smooth="yes"/>
      <point x="272" y="395"/>
      <point x="216" y="346"/>
      <point x="204" y="280" type="curve"/>
      <point x="168" y="280" type="line"/>
      <point x="187" y="389"/>
      <point x="280" y="470"/>
      <point x="375" y="470" type="curve" smooth="yes"/>
      <point x="470" y="470"/>
      <point x="522" y="409"/>
      <point x="501" y="290" type="curve" smooth="yes"/>
      <point x="450" y="0" type="line"/>
      <point x="370" y="0" type="line"/>
    </contour>
    <contour>
      <point x="255" y="-60" type="line"/>
      <point x="330" y="-90" type="line"/>
      <point x="176" y="-340" type="line"/>
      <point x="122" y="-319" type="line"/>
    </contour>
  </outline>
</glyph>
<glyph name="napostrophe" format="1">
  <advance width="635"/>
  <unicode hex="0149"/>
  <outline>
    <contour>
      <point x="346" y="460" type="line"/>
      <point x="265" y="0" type="line"/>
      <point x="185" y="0" type="line"/>
      <point x="266" y="460" type="line"/>
    </contour>
    <contour>
      <point x="529" y="280" type="line" smooth="yes"/>
      <point x="542" y="356"/>
      <point x="517" y="395"/>
      <point x="452" y="395" type="curve" smooth="yes"/>
      <point x="382" y="395"/>
      <point x="326" y="346"/>
      <point x="314" y="280" type="curve"/>
      <point x="278" y="280" type="line"/>
      <point x="297" y="389"/>
      <point x="390" y="470"/>
      <point x="485" y="470" type="curve" smooth="yes"/>
      <point x="580" y="470"/>
      <point x="632" y="409"/>
      <point x="611" y="290" type="curve" smooth="yes"/>
      <point x="560" y="0" type="line"/>
      <point x="480" y="0" type="line"/>
    </contour>
    <contour>
      <point x="253" y="700" type="line"/>
      <point x="348" y="700" type="line"/>
      <point x="208" y="470" type="line"/>
      <point x="153" y="470" type="line"/>
    </contour>
  </outline>
</glyph>
<glyph name="obreve" format="1">
  <advance width="546"/>
  <unicode hex="014F"/>
  <outline>
    <contour>
      <point x="76" y="230" type="curve" smooth="yes"/>
      <point x="101" y="369"/>
      <point x="221" y="470"/>
      <point x="356" y="470" type="curve" smooth="yes"/>
      <point x="491" y="470"/>
      <point x="577" y="369"/>
      <point x="552" y="230" type="curve" smooth="yes"/>
      <point x="527" y="91"/>
      <point x="406" y="-10"/>
      <point x="271" y="-10" type="curve" smooth="yes"/>
      <point x="136" y="-10"/>
      <point x="51" y="91"/>
    </contour>
    <contour>
      <point x="157" y="230" type="curve" smooth="yes"/>
      <point x="140" y="134"/>
      <point x="194" y="65"/>
      <point x="284" y="65" type="curve" smooth="yes"/>
      <point x="374" y="65"/>
      <point x="454" y="134"/>
      <point x="471" y="230" type="curve" smooth="yes"/>
      <point x="488" y="326"/>
      <point x="433" y="395"/>
      <point x="343" y="395" type="curve" smooth="yes"/>
      <point x="253" y="395"/>
      <point x="174" y="326"/>
    </contour>
    <contour>
      <point x="233" y="670" type="curve"/>
      <point x="304" y="670" type="line"/>
      <point x="299" y="644"/>
      <point x="308" y="595"/>
      <point x="378" y="595" type="curve" smooth="yes"/>
      <point x="448" y="595"/>
      <point x="473" y="644"/>
      <point x="478" y="670" type="curve"/>
      <point x="549" y="670" type="line"/>
      <point x="537" y="601"/>
      <point x="471" y="530"/>
      <point x="366" y="530" type="curve" smooth="yes"/>
      <point x="261" y="530"/>
      <point x="221" y="601"/>
    </contour>
  </outline>
</glyph>
<glyph name="rcaron" format="1">
  <advance width="343"/>
  <unicode hex="0159"/>
  <outline>
    <contour>
      <point x="236" y="460" type="line"/>
      <point x="155" y="0" type="line"/>
      <point x="75" y="0" type="line"/>
      <point x="156" y="460" type="line"/>
    </contour>
    <contour>
      <point x="360" y="372" type="line"/>
      <point x="341" y="388"/>
      <point x="328" y="395"/>
      <point x="302" y="395" type="curve" smooth="yes"/>
      <point x="242" y="395"/>
      <point x="216" y="346"/>
      <point x="204" y="280" type="curve"/>
      <point x="168" y="280" type="line"/>
      <point x="187" y="389"/>
      <point x="270" y="470"/>
      <point x="335" y="470" type="curve" smooth="yes"/>
      <point x="368" y="470"/>
      <point x="395" y="463"/>
      <point x="415" y="438" type="curve"/>
    </contour>
    <contour>
      <point x="314" y="615" type="line"/>
      <point x="441" y="710" type="line"/>
      <point x="484" y="670" type="line"/>
      <point x="299" y="530" type="line"/>
      <point x="164" y="670" type="line"/>
      <point x="221" y="710" type="line"/>
    </contour>
  </outline>
</glyph>
<glyph name="scedilla" format="1">
  <advance width="403"/>
  <unicode hex="015F"/>
  <outline>
    <contour>
      <point x="119" y="161" type="line"/>
      <point x="121" y="105"/>
      <point x="164" y="65"/>
      <point x="221" y="65" type="curve" smooth="yes"/>
      <point x="271" y="65"/>
      <point x="305" y="83"/>
      <point x="312" y="123" type="curve" smooth="yes"/>
      <point x="321" y="173"/>
      <point x="273" y="194"/>
      <point x="224" y="215" type="curve" smooth="yes"/>
      <point x="165" y="240"/>
      <point x="102" y="272"/>
      <point x="116" y="349" type="curve" smooth="yes"/>
      <point x="129" y="425"/>
      <point x="212" y="470"/>
      <point x="286" y="470" type="curve" smooth="yes"/>
      <point x="359" y="470"/>
      <point x="427" y="431"/>
      <point x="436" y="380" type="curve"/>
      <point x="365" y="339" type="line"/>
      <point x="348" y="370"/>
      <point x="310" y="394"/>
      <point x="273" y="394" type="curve" smooth="yes"/>
      <point x="233" y="394"/>
      <point x="201" y="380"/>
      <point x="195" y="344" type="curve" smooth="yes"/>
      <point x="189" y="308"/>
      <point x="246" y="287"/>
      <point x="293" y="266" type="curve" smooth="yes"/>
      <point x="353" y="239"/>
      <point x="408" y="197"/>
      <point x="396" y="130" type="curve" smooth="yes"/>
      <point x="379" y="31"/>
      <point x="302" y="-10"/>
      <point x="203" y="-10" type="curve" smooth="yes"/>
      <point x="118" y="-10"/>
      <point x="48" y="48"/>
      <point x="47" y="123" type="curve"/>
    </contour>
    <contour>
      <point x="224" y="59" type="line"/>
      <point x="286" y="59" type="line"/>
      <point x="200" y="-55" type="line"/>
      <point x="111" y="-109" type="line"/>
    </contour>
    <contour>
      <point x="272" y="-127" type="curve"/>
      <point x="214" y="-127" type="line"/>
      <point x="218" y="-103"/>
      <point x="204" y="-91"/>
      <point x="170" y="-91" type="curve" smooth="yes"/>
      <point x="160" y="-91"/>
      <point x="137" y="-93"/>
      <point x="111" y="-109" type="curve"/>
      <point x="158" y="-69" type="line"/>
      <point x="187" y="-53"/>
      <point x="198" y="-53"/>
      <point x="211" y="-53" type="curve" smooth="yes"/>
      <point x="244" y="-53"/>
      <point x="281" y="-78"/>
    </contour>
    <contour>
      <point x="272" y="-127" type="line"/>
      <point x="261" y="-188"/>
      <point x="202" y="-221"/>
      <point x="147" y="-221" type="curve" smooth="yes"/>
      <point x="110" y="-221"/>
      <point x="89" y="-211"/>
      <point x="66" y="-183" type="curve"/>
      <point x="105" y="-143" type="line"/>
      <point x="121" y="-159"/>
      <point x="131" y="-167"/>
      <point x="157" y="-167" type="curve" smooth="yes"/>
      <point x="191" y="-167"/>
      <point x="210" y="-151"/>
      <point x="214" y="-127" type="curve"/>
    </contour>
  </outline>
</glyph>
<glyph name="scaron" format="1">
  <advance width="403"/>
  <unicode hex="0161"/>
  <outline>
    <contour>
      <point x="119" y="161" type="line"/>
      <point x="121" y="105"/>
      <point x="164" y="65"/>
      <point x="221" y="65" type="curve" smooth="yes"/>
      <point x="271" y="65"/>
      <point x="305" y="83"/>
      <point x="312" y="123" type="curve" smooth="yes"/>
      <point x="321" y="173"/>
      <point x="273" y="194"/>
      <point x="224" y="215" type="curve" smooth="yes"/>
      <point x="165" y="240"/>
      <point x="102" y="272"/>
      <point x="116" y="349" type="curve" smooth="yes"/>
      <point x="129" y="425"/>
      <point x="212" y="470"/>
      <point x="286" y="470" type="curve" smooth="yes"/>
      <point x="359" y="470"/>
      <point x="427" y="431"/>
      <point x="436" y="380" type="curve"/>
      <point x="365" y="339" type="line"/>
      <point x="348" y="370"/>
      <point x="310" y="394"/>
      <point x="273" y="394" type="curve" smooth="yes"/>
      <point x="233" y="394"/>
      <point x="201" y="380"/>
      <point x="195" y="344" type="curve" smooth="yes"/>
      <point x="189" y="308"/>
      <point x="246" y="287"/>
      <point x="293" y="266" type="curve" smooth="yes"/>
      <point x="353" y="239"/>
      <point x="408" y="197"/>
      <point x="396" y="130" type="curve" smooth="yes"/>
      <point x="379" y="31"/>
      <point x="302" y="-10"/>
      <point x="203" y="-10" type="curve" smooth="yes"/>
      <point x="118" y="-10"/>
      <point x="48" y="48"/>
      <point x="47" y="123" type="curve"/>
    </contour>
    <contour>
      <point x="311" y="615" type="line"/>
      <point x="438" y="710" type="line"/>
      <point x="481" y="670" type="line"/>
      <point x="296" y="530" type="line"/>
      <point x="161" y="670" type="line"/>
      <point x="218" y="710" type="line"/>
    </contour>
  </outline>
</glyph>
<glyph name="Zacute" format="1">
  <advance width="545"/>
  <unicode hex="0179"/>
  <outline>
    <contour>
      <point x="144" y="620" type="line"/>
      <point x="158" y="700" type="line"/>
      <point x="648" y="700" type="line"/>
      <point x="171" y="80" type="line"/>
      <point x="519" y="80" type="line"/>
      <point x="505" y="0" type="line"/>
      <point x="15" y="0" type="line"/>
      <point x="492" y="620" type="line"/>
    </contour>
    <contour>
      <point x="591.52" y="920" type="line"/>
      <point x="385.52" y="770" type="line"/>
      <point x="345.52" y="800" type="line"/>
      <point x="523.52" y="960" type="line"/>
    </contour>
  </outline>
</glyph>
<glyph name="zacute" format="1">
  <advance width="460"/>
  <unicode hex="017A"/>
  <outline>
    <contour>
      <point x="368" y="385" type="line"/>
      <point x="113" y="385" type="line"/>
      <point x="126" y="460" type="line"/>
      <point x="526" y="460" type="line"/>
      <point x="173" y="75" type="line"/>
      <point x="438" y="75" type="line"/>
      <point x="425" y="0" type="line"/>
      <point x="15" y="0" type="line"/>
    </contour>
    <contour>
      <point x="534.52" y="690" type="line"/>
      <point x="328.52" y="540" type="line"/>
      <point x="288.52" y="570" type="line"/>
      <point x="466.52" y="730" type="line"/>
    </contour>
  </outline>
</glyph>
<glyph name="Zdotaccent" format="1">
  <advance width="545"/>
  <unicode hex="017B"/>
  <outline>
    <contour>
      <point x="144" y="620" type="line"/>
      <point x="158" y="700" type="line"/>
      <point x="648" y="700" type="line"/>
      <point x="171" y="80" type="line"/>
      <point x="519" y="80" type="line"/>
      <point x="505" y="0" type="line"/>
      <point x="15" y="0" type="line"/>
      <point x="492" y="620" type="line"/>
    </contour>
    <contour>
      <point x="370.217" y="825" type="curve" smooth="yes"/>
      <point x="375.217" y="855"/>
      <point x="405.217" y="880"/>
      <point x="435.217" y="880" type="curve" smooth="yes"/>
      <point x="465.217" y="880"/>
      <point x="485.217" y="855"/>
      <point x="480.217" y="825" type="curve" smooth="yes"/>
      <point x="475.217" y="795"/>
      <point x="446.217" y="770"/>
      <point x="416.217" y="770" type="curve" smooth="yes"/>
      <point x="386.217" y="770"/>
      <point x="365.217" y="795"/>
    </contour>
  </outline>
</glyph>
<glyph name="zdotaccent" format="1">
  <advance width="460"/>
  <unicode hex="017C"/>
  <outline>
    <contour>
      <point x="368" y="385" type="line"/>
      <point x="113" y="385" type="line"/>
      <point x="126" y="460" type="line"/>
      <point x="526" y="460" type="line"/>
      <point x="173" y="75" type="line"/>
      <point x="438" y="75" type="line"/>
      <point x="425" y="0" type="line"/>
      <point x="15" y="0" type="line"/>
    </contour>
    <contour>
      <point x="293.217" y="615" type="curve" smooth="yes"/>
      <point x="298.217" y="645"/>
      <point x="328.217" y="670"/>
      <point x="358.217" y="670" type="curve" smooth="yes"/>
      <point x="388.217" y="670"/>
      <point x="408.217" y="645"/>
      <point x="403.217" y="615" type="curve" smooth="yes"/>
      <point x="398.217" y="585"/>
      <point x="369.217" y="560"/>
      <point x="339.217" y="560" type="curve" smooth="yes"/>
      <point x="309.217" y="560"/>
      <point x="288.217" y="585"/>
    </contour>
  </outline>
</glyph>
<glyph name="Zcaron" format="1">
  <advance width="545"/>
  <unicode hex="017D"/>
  <outline>
    <contour>
      <point x="144" y="620" type="line"/>
      <point x="158" y="700" type="line"/>
      <point x="648" y="700" type="line"/>
      <point x="171" y="80" type="line"/>
      <point x="519" y="80" type="line"/>
      <point x="505" y="0" type="line"/>
      <point x="15" y="0" type="line"/>
      <point x="492" y="620" type="line"/>
    </contour>
    <contour>
      <point x="431" y="855" type="line"/>
      <point x="558" y="950" type="line"/>
      <point x="600" y="910" type="line"/>
      <point x="416" y="770" type="line"/>
      <point x="280" y="910" type="line"/>
      <point x="338" y="950" type="line"/>
    </contour>
  </outline>
</glyph>
<glyph name="zcaron" format="1">
  <advance width="460"/>
  <unicode hex="017E"/>
  <outline>
    <contour>
      <point x="108" y="75" type="line"/>
      <point x="438" y="75" type="line"/>
      <point x="425" y="0" type="line"/>
      <point x="15" y="0" type="line"/>
    </contour>
    <contour>
      <point x="126" y="460" type="line"/>
      <point x="526" y="460" type="line"/>
      <point x="443" y="385" type="line"/>
      <point x="113" y="385" type="line"/>
    </contour>
    <contour>
      <point x="436" y="460" type="line"/>
      <point x="526" y="460" type="line"/>
      <point x="105" y="0" type="line"/>
      <point x="15" y="0" type="line"/>
    </contour>
    <contour>
      <point x="353" y="615" type="line"/>
      <point x="480" y="710" type="line"/>
      <point x="523" y="670" type="line"/>
      <point x="338" y="530" type="line"/>
      <point x="203" y="670" type="line"/>
      <point x="260" y="710" type="line"/>
    </contour>
  </outline>
</glyph>
<glyph name="uni0212" format="1">
  <advance width="560"/>
  <unicode hex="0212"/>
  <outline>
    <contour>
      <point x="266" y="345" type="line"/>
      <point x="361" y="345" type="line"/>
      <point x="550" y="0" type="line"/>
      <point x="445" y="0" type="line"/>
    </contour>
    <contour>
      <point x="203" y="700" type="line"/>
      <point x="288" y="700" type="line"/>
      <point x="165" y="0" type="line"/>
      <point x="80" y="0" type="line"/>
    </contour>
    <contour>
      <point x="237" y="625" type="line"/>
      <point x="250" y="700" type="line"/>
      <point x="393" y="700" type="line" smooth="yes"/>
      <point x="528" y="700"/>
      <point x="617" y="619"/>
      <point x="594" y="490" type="curve" smooth="yes"/>
      <point x="571" y="361"/>
      <point x="454" y="280"/>
      <point x="319" y="280" type="curve" smooth="yes"/>
      <point x="176" y="280" type="line"/>
      <point x="190" y="355" type="line"/>
      <point x="333" y="355" type="line" smooth="yes"/>
      <point x="423" y="355"/>
      <point x="494" y="404"/>
      <point x="509" y="490" type="curve" smooth="yes"/>
      <point x="524" y="576"/>
      <point x="470" y="625"/>
      <point x="380" y="625" type="curve" smooth="yes"/>
    </contour>
    <contour>
      <point x="253" y="770" type="curve"/>
      <point x="324" y="770" type="line"/>
      <point x="329" y="796"/>
      <point x="354" y="845"/>
      <point x="424" y="845" type="curve" smooth="yes"/>
      <point x="494" y="845"/>
      <point x="503" y="796"/>
      <point x="498" y="770" type="curve"/>
      <point x="569" y="770" type="line"/>
      <point x="581" y="839"/>
      <point x="540" y="910"/>
      <point x="435" y="910" type="curve" smooth="yes"/>
      <point x="330" y="910"/>
      <point x="265" y="839"/>
    </contour>
  </outline>
</glyph>
<glyph name="uni0218" format="1">
  <advance width="548"/>
  <unicode hex="0218"/>
  <outline>
    <contour>
      <point x="152" y="226" type="line"/>
      <point x="177" y="130"/>
      <point x="220" y="70"/>
      <point x="307" y="70" type="curve" smooth="yes"/>
      <point x="387" y="70"/>
      <point x="435" y="113"/>
      <point x="447" y="183" type="curve" smooth="yes"/>
      <point x="463" y="273"/>
      <point x="386" y="309"/>
      <point x="311" y="338" type="curve" smooth="yes"/>
      <point x="245" y="363"/>
      <point x="148" y="416"/>
      <point x="169" y="535" type="curve" smooth="yes"/>
      <point x="188" y="641"/>
      <point x="289" y="710"/>
      <point x="403" y="710" type="curve" smooth="yes"/>
      <point x="516" y="710"/>
      <point x="578" y="631"/>
      <point x="593" y="560" type="curve"/>
      <point x="516" y="514" type="line"/>
      <point x="496" y="572"/>
      <point x="467" y="629"/>
      <point x="390" y="629" type="curve" smooth="yes"/>
      <point x="320" y="629"/>
      <point x="268" y="590"/>
      <point x="257" y="529" type="curve" smooth="yes"/>
      <point x="245" y="461"/>
      <point x="317" y="428"/>
      <point x="396" y="396" type="curve" smooth="yes"/>
      <point x="464" y="369"/>
      <point x="559" y="317"/>
      <point x="537" y="190" type="curve" smooth="yes"/>
      <point x="516" y="71"/>
      <point x="427" y="-10"/>
      <point x="288" y="-10" type="curve" smooth="yes"/>
      <point x="173" y="-10"/>
      <point x="96" y="68"/>
      <point x="72" y="183" type="curve"/>
    </contour>
    <contour>
      <point x="282" y="-70" type="line"/>
      <point x="356" y="-100" type="line"/>
      <point x="202" y="-350" type="line"/>
      <point x="148" y="-329" type="line"/>
    </contour>
  </outline>
</glyph>
<glyph name="caron" format="1">
  <advance width="480"/>
  <unicode hex="02C7"/>
  <outline>
    <contour>
      <point x="355" y="655" type="line"/>
      <point x="482" y="750" type="line"/>
      <point x="525" y="710" type="line"/>
      <point x="341" y="570" type="line"/>
      <point x="205" y="710" type="line"/>
      <point x="262" y="750" type="line"/>
    </contour>
  </outline>
</glyph>
<glyph name="breve" format="1">
  <advance width="546"/>
  <unicode hex="02D8"/>
  <outline>
    <contour>
      <point x="265" y="850" type="curve"/>
      <point x="336" y="850" type="line"/>
      <point x="331" y="824"/>
      <point x="340" y="775"/>
      <point x="410" y="775" type="curve" smooth="yes"/>
      <point x="480" y="775"/>
      <point x="505" y="824"/>
      <point x="510" y="850" type="curve"/>
      <point x="581" y="850" type="line"/>
      <point x="569" y="781"/>
      <point x="503" y="710"/>
      <point x="398" y="710" type="curve" smooth="yes"/>
      <point x="293" y="710"/>
      <point x="253" y="781"/>
    </contour>
  </outline>
</glyph>
<glyph name="dotaccent" format="1">
  <advance width="300"/>
  <unicode hex="02D9"/>
  <outline>
    <contour>
      <point x="234" y="790" type="curve" smooth="yes"/>
      <point x="239" y="820"/>
      <point x="269" y="845"/>
      <point x="299" y="845" type="curve" smooth="yes"/>
      <point x="329" y="845"/>
      <point x="349" y="820"/>
      <point x="344" y="790" type="curve" smooth="yes"/>
      <point x="339" y="760"/>
      <point x="310" y="735"/>
      <point x="280" y="735" type="curve" smooth="yes"/>
      <point x="250" y="735"/>
      <point x="229" y="760"/>
    </contour>
  </outline>
</glyph>
<glyph name="ring" format="1">
  <advance width="278"/>
  <unicode hex="02DA"/>
  <outline>
    <contour>
      <point x="175" y="785" type="curve" smooth="yes"/>
      <point x="186" y="845"/>
      <point x="243" y="885"/>
      <point x="295" y="885" type="curve" smooth="yes"/>
      <point x="347" y="885"/>
      <point x="390" y="845"/>
      <point x="379" y="785" type="curve" smooth="yes"/>
      <point x="368" y="725"/>
      <point x="312" y="685"/>
      <point x="260" y="685" type="curve" smooth="yes"/>
      <point x="208" y="685"/>
      <point x="164" y="725"/>
    </contour>
    <contour>
      <point x="226" y="785" type="curve" smooth="yes"/>
      <point x="220" y="752"/>
      <point x="243" y="732"/>
      <point x="268" y="732" type="curve" smooth="yes"/>
      <point x="293" y="732"/>
      <point x="322" y="752"/>
      <point x="328" y="785" type="curve" smooth="yes"/>
      <point x="334" y="818"/>
      <point x="312" y="838"/>
      <point x="287" y="838" type="curve" smooth="yes"/>
      <point x="262" y="838"/>
      <point x="232" y="818"/>
    </contour>
  </outline>
</glyph>
<glyph name="tilde" format="1">
  <advance width="530"/>
  <unicode hex="02DC"/>
  <outline>
    <contour>
      <point x="210" y="625" type="line"/>
      <point x="229" y="674"/>
      <point x="284" y="707"/>
      <point x="329" y="707" type="curve" smooth="yes"/>
      <point x="394" y="707"/>
      <point x="390" y="660"/>
      <point x="444" y="660" type="curve" smooth="yes"/>
      <point x="463" y="660"/>
      <point x="483" y="676"/>
      <point x="509" y="708" type="curve"/>
      <point x="547" y="665" type="line"/>
      <point x="524" y="628"/>
      <point x="478" y="592"/>
      <point x="428" y="592" type="curve" smooth="yes"/>
      <point x="373" y="592"/>
      <point x="361" y="639"/>
      <point x="316" y="639" type="curve" smooth="yes"/>
      <point x="275" y="639"/>
      <point x="260" y="603"/>
      <point x="257" y="588" type="curve"/>
    </contour>
  </outline>
</glyph>
<glyph name="pi" format="1">
  <advance width="540"/>
  <unicode hex="03C0"/>
  <outline>
    <contour>
      <point x="166" y="430" type="line"/>
      <point x="246" y="430" type="line"/>
      <point x="170" y="0" type="line"/>
      <point x="90" y="0" type="line"/>
    </contour>
    <contour>
      <point x="111" y="460" type="line"/>
      <point x="581" y="460" type="line"/>
      <point x="568" y="385" type="line"/>
      <point x="98" y="385" type="line"/>
    </contour>
    <contour>
      <point x="416" y="430" type="line"/>
      <point x="496" y="430" type="line"/>
      <point x="445" y="141" type="line" smooth="yes"/>
      <point x="433" y="75"/>
      <point x="456" y="71"/>
      <point x="486" y="71" type="curve"/>
      <point x="471" y="-9" type="line"/>
      <point x="387" y="-9"/>
      <point x="342" y="12"/>
      <point x="361" y="121" type="curve" smooth="yes"/>
    </contour>
  </outline>
</glyph>
<glyph name="uni1E9E" format="1">
  <advance width="716"/>
  <unicode hex="1E9E"/>
  <outline>
    <contour>
      <point x="148" y="386" type="line"/>
      <point x="233" y="386" type="line"/>
      <point x="165" y="0" type="line"/>
      <point x="80" y="0" type="line"/>
    </contour>
    <contour>
      <point x="484" y="345" type="curve"/>
      <point x="494" y="400" type="line"/>
      <point x="584" y="400"/>
      <point x="644" y="455"/>
      <point x="656" y="521" type="curve" smooth="yes"/>
      <point x="668" y="587"/>
      <point x="610" y="633"/>
      <point x="510" y="633" type="curve" smooth="yes"/>
      <point x="385" y="633"/>
      <point x="265" y="567"/>
      <point x="233" y="386" type="curve"/>
      <point x="148" y="386" type="line"/>
      <point x="188" y="615"/>
      <point x="347" y="710"/>
      <point x="522" y="710" type="curve" smooth="yes"/>
      <point x="662" y="710"/>
      <point x="765" y="648"/>
      <point x="745" y="534" type="curve" smooth="yes"/>
      <point x="726" y="425"/>
      <point x="619" y="345"/>
    </contour>
    <contour>
      <point x="451" y="-10" type="curve" smooth="yes"/>
      <point x="316" y="-10"/>
      <point x="244" y="76"/>
      <point x="263" y="185" type="curve"/>
      <point x="349" y="185" type="line"/>
      <point x="337" y="119"/>
      <point x="385" y="70"/>
      <point x="465" y="70" type="curve" smooth="yes"/>
      <point x="545" y="70"/>
      <point x="605" y="119"/>
      <point x="618" y="195" type="curve" smooth="yes"/>
      <point x="633" y="281"/>
      <point x="570" y="325"/>
      <point x="480" y="325" type="curve"/>
      <point x="490" y="380" type="line"/>
      <point x="625" y="380"/>
      <point x="729" y="324"/>
      <point x="704" y="185" type="curve" smooth="yes"/>
      <point x="683" y="66"/>
      <point x="576" y="-10"/>
    </contour>
  </outline>
</glyph>
<glyph name="endash" format="1">
  <advance width="740"/>
  <unicode hex="2013"/>
  <outline>
    <contour>
      <point x="105" y="200" type="line"/>
      <point x="118" y="275" type="line"/>
      <point x="718" y="275" type="line"/>
      <point x="705" y="200" type="line"/>
    </contour>
  </outline>
</glyph>
<glyph name="quoteleft" format="1">
  <advance width="275"/>
  <unicode hex="2018"/>
  <outline>
    <contour>
      <point x="248" y="470" type="line"/>
      <point x="153" y="470" type="line"/>
      <point x="293" y="700" type="line"/>
      <point x="348" y="700" type="line"/>
    </contour>
  </outline>
</glyph>
<glyph name="quotedblleft" format="1">
  <advance width="475"/>
  <unicode hex="201C"/>
  <outline>
    <contour>
      <point x="248" y="470" type="line"/>
      <point x="153" y="470" type="line"/>
      <point x="293" y="700" type="line"/>
      <point x="348" y="700" type="line"/>
    </contour>
    <contour>
      <point x="448" y="470" type="line"/>
      <point x="353" y="470" type="line"/>
      <point x="493" y="700" type="line"/>
      <point x="548" y="700" type="line"/>
    </contour>
  </outline>
</glyph>
<glyph name="quotedblright" format="1">
  <advance width="475"/>
  <unicode hex="201D"/>
  <outline>
    <contour>
      <point x="233" y="700" type="line"/>
      <point x="328" y="700" type="line"/>
      <point x="188" y="470" type="line"/>
      <point x="133" y="470" type="line"/>
    </contour>
    <contour>
      <point x="433" y="700" type="line"/>
      <point x="528" y="700" type="line"/>
      <point x="388" y="470" type="line"/>
      <point x="333" y="470" type="line"/>
    </contour>
  </outline>
</glyph>
<glyph name="dagger" format="1">
  <advance width="570"/>
  <unicode hex="2020"/>
  <outline>
    <contour>
      <point x="185" y="540" type="line"/>
      <point x="575" y="540" type="line"/>
      <point x="562" y="465" type="line"/>
      <point x="172" y="465" type="line"/>
    </contour>
    <contour>
      <point x="368" y="700" type="line"/>
      <point x="448" y="700" type="line"/>
      <point x="299" y="-150" type="line"/>
      <point x="219" y="-150" type="line"/>
    </contour>
  </outline>
</glyph>
<glyph name="ellipsis" format="1">
  <advance width="900"/>
  <unicode hex="2026"/>
  <outline>
    <contour>
      <point x="102" y="40" type="curve" smooth="yes"/>
      <point x="107" y="70"/>
      <point x="137" y="95"/>
      <point x="167" y="95" type="curve" smooth="yes"/>
      <point x="197" y="95"/>
      <point x="217" y="70"/>
      <point x="212" y="40" type="curve" smooth="yes"/>
      <point x="207" y="10"/>
      <point x="177" y="-15"/>
      <point x="147" y="-15" type="curve" smooth="yes"/>
      <point x="117" y="-15"/>
      <point x="97" y="10"/>
    </contour>
    <contour>
      <point x="402" y="40" type="curve" smooth="yes"/>
      <point x="407" y="70"/>
      <point x="437" y="95"/>
      <point x="467" y="95" type="curve" smooth="yes"/>
      <point x="497" y="95"/>
      <point x="517" y="70"/>
      <point x="512" y="40" type="curve" smooth="yes"/>
      <point x="507" y="10"/>
      <point x="477" y="-15"/>
      <point x="447" y="-15" type="curve" smooth="yes"/>
      <point x="417" y="-15"/>
      <point x="397" y="10"/>
    </contour>
    <contour>
      <point x="702" y="40" type="curve" smooth="yes"/>
      <point x="707" y="70"/>
      <point x="737" y="95"/>
      <point x="767" y="95" type="curve" smooth="yes"/>
      <point x="797" y="95"/>
      <point x="817" y="70"/>
      <point x="812" y="40" type="curve" smooth="yes"/>
      <point x="807" y="10"/>
      <point x="777" y="-15"/>
      <point x="747" y="-15" type="curve" smooth="yes"/>
      <point x="717" y="-15"/>
      <point x="697" y="10"/>
    </contour>
  </outline>
</glyph>
<glyph name="perthousand" format="1">
  <advance width="1131"/>
  <unicode hex="2030"/>
  <outline>
    <contour>
      <point x="806" y="150" type="curve" smooth="yes"/>
      <point x="822" y="239"/>
      <point x="898" y="310"/>
      <point x="993" y="310" type="curve" smooth="yes"/>
      <point x="1088" y="310"/>
      <point x="1138" y="239"/>
      <point x="1122" y="150" type="curve" smooth="yes"/>
      <point x="1106" y="61"/>
      <point x="1031" y="-10"/>
      <point x="936" y="-10" type="curve" smooth="yes"/>
      <point x="841" y="-10"/>
      <point x="790" y="61"/>
    </contour>
    <contour>
      <point x="877" y="150" type="curve" smooth="yes"/>
      <point x="868" y="99"/>
      <point x="893" y="55"/>
      <point x="948" y="55" type="curve" smooth="yes"/>
      <point x="1003" y="55"/>
      <point x="1042" y="99"/>
      <point x="1051" y="150" type="curve" smooth="yes"/>
      <point x="1060" y="201"/>
      <point x="1036" y="245"/>
      <point x="981" y="245" type="curve" smooth="yes"/>
      <point x="926" y="245"/>
      <point x="886" y="201"/>
    </contour>
    <contour>
      <point x="132" y="550" type="curve" smooth="yes"/>
      <point x="148" y="639"/>
      <point x="223" y="710"/>
      <point x="318" y="710" type="curve" smooth="yes"/>
      <point x="413" y="710"/>
      <point x="464" y="639"/>
      <point x="448" y="550" type="curve" smooth="yes"/>
      <point x="432" y="461"/>
      <point x="357" y="390"/>
      <point x="262" y="390" type="curve" smooth="yes"/>
      <point x="167" y="390"/>
      <point x="116" y="461"/>
    </contour>
    <contour>
      <point x="203" y="550" type="curve" smooth="yes"/>
      <point x="194" y="499"/>
      <point x="218" y="455"/>
      <point x="273" y="455" type="curve" smooth="yes"/>
      <point x="328" y="455"/>
      <point x="368" y="499"/>
      <point x="377" y="550" type="curve" smooth="yes"/>
      <point x="386" y="601"/>
      <point x="362" y="645"/>
      <point x="307" y="645" type="curve" smooth="yes"/>
      <point x="252" y="645"/>
      <point x="212" y="601"/>
    </contour>
    <contour>
      <point x="426" y="150" type="curve" smooth="yes"/>
      <point x="442" y="239"/>
      <point x="518" y="310"/>
      <point x="613" y="310" type="curve" smooth="yes"/>
      <point x="708" y="310"/>
      <point x="758" y="239"/>
      <point x="742" y="150" type="curve" smooth="yes"/>
      <point x="726" y="61"/>
      <point x="651" y="-10"/>
      <point x="556" y="-10" type="curve" smooth="yes"/>
      <point x="461" y="-10"/>
      <point x="410" y="61"/>
    </contour>
    <contour>
      <point x="497" y="150" type="curve" smooth="yes"/>
      <point x="488" y="99"/>
      <point x="513" y="55"/>
      <point x="568" y="55" type="curve" smooth="yes"/>
      <point x="623" y="55"/>
      <point x="662" y="99"/>
      <point x="671" y="150" type="curve" smooth="yes"/>
      <point x="680" y="201"/>
      <point x="656" y="245"/>
      <point x="601" y="245" type="curve" smooth="yes"/>
      <point x="546" y="245"/>
      <point x="506" y="201"/>
    </contour>
    <contour>
      <point x="686" y="700" type="line"/>
      <point x="761" y="700" type="line"/>
      <point x="188" y="0" type="line"/>
      <point x="113" y="0" type="line"/>
    </contour>
  </outline>
</glyph>
<glyph name="uni203D" format="1">
  <advance width="557"/>
  <unicode hex="203D"/>
  <outline>
    <contour>
      <point x="504" y="500" type="curve" smooth="yes"/>
      <point x="519" y="586"/>
      <point x="471" y="635"/>
      <point x="381" y="635" type="curve" smooth="yes"/>
      <point x="314" y="635"/>
      <point x="262" y="602"/>
      <point x="222" y="552" type="curve"/>
      <point x="165" y="593" type="line"/>
      <point x="223" y="663"/>
      <point x="285" y="710"/>
      <point x="404" y="710" type="curve" smooth="yes"/>
      <point x="529" y="710"/>
      <point x="606" y="619"/>
      <point x="585" y="500" type="curve" smooth="yes"/>
      <point x="564" y="381"/>
      <point x="440" y="290"/>
      <point x="325" y="290" type="curve"/>
      <point x="285" y="345" type="line"/>
      <point x="405" y="345"/>
      <point x="491" y="424"/>
    </contour>
    <contour>
      <point x="290" y="510" type="line"/>
      <point x="390" y="510" type="line"/>
      <point x="310" y="170" type="line"/>
      <point x="250" y="170" type="line"/>
    </contour>
    <contour>
      <point x="202" y="40" type="curve" smooth="yes"/>
      <point x="207" y="70"/>
      <point x="237" y="95"/>
      <point x="267" y="95" type="curve" smooth="yes"/>
      <point x="297" y="95"/>
      <point x="317" y="70"/>
      <point x="312" y="40" type="curve" smooth="yes"/>
      <point x="307" y="10"/>
      <point x="277" y="-15"/>
      <point x="247" y="-15" type="curve" smooth="yes"/>
      <point x="217" y="-15"/>
      <point x="197" y="10"/>
    </contour>
  </outline>
</glyph>
<glyph name="uni2070" format="1">
  <advance width="372"/>
  <unicode hex="2070"/>
  <outline>
    <contour>
      <point x="167" y="490" type="curve" smooth="yes"/>
      <point x="150" y="392"/>
      <point x="178" y="322"/>
      <point x="243" y="322" type="curve" smooth="yes"/>
      <point x="308" y="322"/>
      <point x="360" y="392"/>
      <point x="377" y="490" type="curve" smooth="yes"/>
      <point x="394" y="588"/>
      <point x="367" y="658"/>
      <point x="302" y="658" type="curve" smooth="yes"/>
      <point x="237" y="658"/>
      <point x="184" y="588"/>
    </contour>
    <contour>
      <point x="116" y="490" type="curve" smooth="yes"/>
      <point x="138" y="615"/>
      <point x="218" y="706"/>
      <point x="310" y="706" type="curve" smooth="yes"/>
      <point x="402" y="706"/>
      <point x="450" y="615"/>
      <point x="428" y="490" type="curve" smooth="yes"/>
      <point x="406" y="365"/>
      <point x="326" y="274"/>
      <point x="234" y="274" type="curve" smooth="yes"/>
      <point x="142" y="274"/>
      <point x="94" y="365"/>
    </contour>
  </outline>
</glyph>
<glyph name="uni2075" format="1">
  <advance width="356"/>
  <unicode hex="2075"/>
  <outline>
    <contour>
      <point x="399" y="416" type="curve" smooth="yes"/>
      <point x="382" y="321"/>
      <point x="308" y="272"/>
      <point x="227" y="272" type="curve" smooth="yes"/>
      <point x="150" y="272"/>
      <point x="113" y="312"/>
      <point x="93" y="360" type="curve"/>
      <point x="142" y="390" type="line"/>
      <point x="155" y="354"/>
      <point x="189" y="320"/>
      <point x="235" y="320" type="curve" smooth="yes"/>
      <point x="295" y="320"/>
      <point x="336" y="358"/>
      <point x="346" y="416" type="curve" smooth="yes"/>
      <point x="356" y="474"/>
      <point x="323" y="512"/>
      <point x="269" y="512" type="curve" smooth="yes"/>
      <point x="229" y="512"/>
      <point x="204" y="504"/>
      <point x="156" y="474" type="curve"/>
      <point x="193" y="514" type="line"/>
      <point x="226" y="544"/>
      <point x="264" y="558"/>
      <point x="299" y="558" type="curve" smooth="yes"/>
      <point x="371" y="558"/>
      <point x="414" y="499"/>
    </contour>
    <contour>
      <point x="281" y="653" type="line"/>
      <point x="228" y="528" type="line"/>
      <point x="156" y="474" type="line"/>
      <point x="250" y="698" type="line"/>
      <point x="448" y="698" type="line"/>
      <point x="440" y="653" type="line"/>
    </contour>
  </outline>
</glyph>
<glyph name="uni2077" format="1">
  <advance width="354"/>
  <unicode hex="2077"/>
  <outline>
    <contour>
      <point x="145" y="652" type="line"/>
      <point x="153" y="700" type="line"/>
      <point x="447" y="700" type="line"/>
      <point x="172" y="280" type="line"/>
      <point x="119" y="280" type="line"/>
      <point x="363" y="652" type="line"/>
    </contour>
  </outline>
</glyph>
<glyph name="uni2078" format="1">
  <advance width="322"/>
  <unicode hex="2078"/>
  <outline>
    <contour>
      <point x="151" y="599" type="curve" smooth="yes"/>
      <point x="161" y="658"/>
      <point x="219" y="706"/>
      <point x="285" y="706" type="curve" smooth="yes"/>
      <point x="351" y="706"/>
      <point x="393" y="658"/>
      <point x="383" y="599" type="curve" smooth="yes"/>
      <point x="372" y="534"/>
      <point x="317" y="493"/>
      <point x="248" y="493" type="curve" smooth="yes"/>
      <point x="179" y="493"/>
      <point x="140" y="534"/>
    </contour>
    <contour>
      <point x="199" y="593" type="curve" smooth="yes"/>
      <point x="192" y="553"/>
      <point x="218" y="526"/>
      <point x="254" y="526" type="curve" smooth="yes"/>
      <point x="290" y="526"/>
      <point x="326" y="553"/>
      <point x="333" y="593" type="curve" smooth="yes"/>
      <point x="340" y="633"/>
      <point x="317" y="661"/>
      <point x="278" y="661" type="curve" smooth="yes"/>
      <point x="239" y="661"/>
      <point x="206" y="633"/>
    </contour>
    <contour>
      <point x="99" y="394" type="curve" smooth="yes"/>
      <point x="113" y="471"/>
      <point x="183" y="514"/>
      <point x="252" y="514" type="curve" smooth="yes"/>
      <point x="321" y="514"/>
      <point x="375" y="471"/>
      <point x="361" y="394" type="curve" smooth="yes"/>
      <point x="350" y="329"/>
      <point x="284" y="274"/>
      <point x="209" y="274" type="curve" smooth="yes"/>
      <point x="134" y="274"/>
      <point x="88" y="329"/>
    </contour>
    <contour>
      <point x="150" y="400" type="curve" smooth="yes"/>
      <point x="141" y="348"/>
      <point x="175" y="319"/>
      <point x="217" y="319" type="curve" smooth="yes"/>
      <point x="259" y="319"/>
      <point x="305" y="348"/>
      <point x="314" y="400" type="curve" smooth="yes"/>
      <point x="322" y="446"/>
      <point x="288" y="481"/>
      <point x="246" y="481" type="curve" smooth="yes"/>
      <point x="204" y="481"/>
      <point x="158" y="446"/>
    </contour>
  </outline>
</glyph>
<glyph name="uni2080" format="1">
  <advance width="372"/>
  <unicode hex="2080"/>
  <outline>
    <contour>
      <point x="118" y="210" type="curve" smooth="yes"/>
      <point x="101" y="112"/>
      <point x="128" y="42"/>
      <point x="193" y="42" type="curve" smooth="yes"/>
      <point x="258" y="42"/>
      <point x="311" y="112"/>
      <point x="328" y="210" type="curve" smooth="yes"/>
      <point x="345" y="308"/>
      <point x="318" y="378"/>
      <point x="253" y="378" type="curve" smooth="yes"/>
      <point x="188" y="378"/>
      <point x="135" y="308"/>
    </contour>
    <contour>
      <point x="67" y="210" type="curve" smooth="yes"/>
      <point x="89" y="335"/>
      <point x="169" y="426"/>
      <point x="261" y="426" type="curve" smooth="yes"/>
      <point x="353" y="426"/>
      <point x="401" y="335"/>
      <point x="379" y="210" type="curve" smooth="yes"/>
      <point x="357" y="85"/>
      <point x="277" y="-6"/>
      <point x="185" y="-6" type="curve" smooth="yes"/>
      <point x="93" y="-6"/>
      <point x="45" y="85"/>
    </contour>
  </outline>
</glyph>
<glyph name="uni2083" format="1">
  <advance width="312"/>
  <unicode hex="2083"/>
  <outline>
    <contour>
      <point x="178" y="207" type="curve"/>
      <point x="183" y="240" type="line"/>
      <point x="237" y="240"/>
      <point x="274" y="273"/>
      <point x="281" y="313" type="curve" smooth="yes"/>
      <point x="288" y="353"/>
      <point x="271" y="380"/>
      <point x="229" y="380" type="curve" smooth="yes"/>
      <point x="190" y="380"/>
      <point x="155" y="353"/>
      <point x="148" y="316" type="curve"/>
      <point x="99" y="316" type="line"/>
      <point x="110" y="381"/>
      <point x="168" y="426"/>
      <point x="237" y="426" type="curve" smooth="yes"/>
      <point x="309" y="426"/>
      <point x="343" y="373"/>
      <point x="333" y="314" type="curve" smooth="yes"/>
      <point x="323" y="255"/>
      <point x="259" y="207"/>
    </contour>
    <contour>
      <point x="158" y="-6" type="curve" smooth="yes"/>
      <point x="77" y="-6"/>
      <point x="34" y="46"/>
      <point x="45" y="111" type="curve"/>
      <point x="97" y="111" type="line"/>
      <point x="90" y="71"/>
      <point x="118" y="42"/>
      <point x="166" y="42" type="curve" smooth="yes"/>
      <point x="214" y="42"/>
      <point x="251" y="71"/>
      <point x="259" y="117" type="curve" smooth="yes"/>
      <point x="268" y="169"/>
      <point x="229" y="195"/>
      <point x="175" y="195" type="curve"/>
      <point x="181" y="228" type="line"/>
      <point x="262" y="228"/>
      <point x="325" y="194"/>
      <point x="310" y="111" type="curve" smooth="yes"/>
      <point x="297" y="40"/>
      <point x="233" y="-6"/>
    </contour>
  </outline>
</glyph>
<glyph name="uni2084" format="1">
  <advance width="386"/>
  <unicode hex="2084"/>
  <outline>
    <contour>
      <point x="45" y="84" type="line"/>
      <point x="95" y="129" type="line"/>
      <point x="277" y="129" type="line" smooth="yes"/>
      <point x="287" y="129" type="line" smooth="yes"/>
      <point x="373" y="129" type="line"/>
      <point x="365" y="84" type="line"/>
    </contour>
    <contour>
      <point x="99" y="84" type="line"/>
      <point x="45" y="84" type="line"/>
      <point x="337" y="420" type="line"/>
      <point x="358" y="420" type="line"/>
      <point x="284" y="0" type="line"/>
      <point x="233" y="0" type="line"/>
      <point x="252" y="106" type="line" smooth="yes"/>
      <point x="253" y="112" type="line" smooth="yes"/>
      <point x="287" y="307" type="line"/>
    </contour>
  </outline>
</glyph>
<glyph name="uni2085" format="1">
  <advance width="356"/>
  <unicode hex="2085"/>
  <outline>
    <contour>
      <point x="350" y="136" type="curve" smooth="yes"/>
      <point x="333" y="41"/>
      <point x="259" y="-8"/>
      <point x="178" y="-8" type="curve" smooth="yes"/>
      <point x="101" y="-8"/>
      <point x="64" y="32"/>
      <point x="44" y="80" type="curve"/>
      <point x="92" y="110" type="line"/>
      <point x="105" y="74"/>
      <point x="140" y="40"/>
      <point x="186" y="40" type="curve" smooth="yes"/>
      <point x="246" y="40"/>
      <point x="287" y="78"/>
      <point x="297" y="136" type="curve" smooth="yes"/>
      <point x="307" y="194"/>
      <point x="274" y="232"/>
      <point x="220" y="232" type="curve" smooth="yes"/>
      <point x="180" y="232"/>
      <point x="154" y="224"/>
      <point x="106" y="194" type="curve"/>
      <point x="143" y="234" type="line"/>
      <point x="176" y="264"/>
      <point x="215" y="278"/>
      <point x="250" y="278" type="curve" smooth="yes"/>
      <point x="322" y="278"/>
      <point x="365" y="219"/>
    </contour>
    <contour>
      <point x="232" y="373" type="line"/>
      <point x="179" y="248" type="line"/>
      <point x="106" y="194" type="line"/>
      <point x="201" y="418" type="line"/>
      <point x="399" y="418" type="line"/>
      <point x="391" y="373" type="line"/>
    </contour>
  </outline>
</glyph>
<glyph name="uni2086" format="1">
  <advance width="346"/>
  <unicode hex="2086"/>
  <outline>
    <contour>
      <point x="108" y="136" type="curve" smooth="yes"/>
      <point x="98" y="78"/>
      <point x="131" y="38"/>
      <point x="185" y="38" type="curve" smooth="yes"/>
      <point x="239" y="38"/>
      <point x="286" y="78"/>
      <point x="296" y="136" type="curve" smooth="yes"/>
      <point x="306" y="194"/>
      <point x="273" y="235"/>
      <point x="219" y="235" type="curve" smooth="yes"/>
      <point x="165" y="235"/>
      <point x="118" y="194"/>
    </contour>
    <contour>
      <point x="277" y="418" type="line"/>
      <point x="342" y="418" type="line"/>
      <point x="179" y="245" type="line"/>
      <point x="177" y="248" type="line"/>
      <point x="197" y="268"/>
      <point x="218" y="272"/>
      <point x="245" y="272" type="curve" smooth="yes"/>
      <point x="313" y="272"/>
      <point x="359" y="213"/>
      <point x="345" y="136" type="curve" smooth="yes"/>
      <point x="330" y="50"/>
      <point x="258" y="-8"/>
      <point x="177" y="-8" type="curve" smooth="yes"/>
      <point x="96" y="-8"/>
      <point x="44" y="50"/>
      <point x="59" y="136" type="curve" smooth="yes"/>
      <point x="65" y="170"/>
      <point x="81" y="201"/>
      <point x="101" y="223" type="curve" smooth="yes"/>
    </contour>
  </outline>
</glyph>
<glyph name="uni2089" format="1">
  <advance width="346"/>
  <unicode hex="2089"/>
  <outline>
    <contour>
      <point x="312" y="284" type="curve" smooth="yes"/>
      <point x="322" y="342"/>
      <point x="289" y="382"/>
      <point x="235" y="382" type="curve" smooth="yes"/>
      <point x="181" y="382"/>
      <point x="134" y="342"/>
      <point x="124" y="284" type="curve" smooth="yes"/>
      <point x="114" y="226"/>
      <point x="147" y="185"/>
      <point x="201" y="185" type="curve" smooth="yes"/>
      <point x="255" y="185"/>
      <point x="302" y="226"/>
    </contour>
    <contour>
      <point x="143" y="2" type="line"/>
      <point x="78" y="2" type="line"/>
      <point x="241" y="175" type="line"/>
      <point x="243" y="172" type="line"/>
      <point x="223" y="152"/>
      <point x="202" y="148"/>
      <point x="175" y="148" type="curve" smooth="yes"/>
      <point x="107" y="148"/>
      <point x="61" y="207"/>
      <point x="75" y="284" type="curve" smooth="yes"/>
      <point x="90" y="370"/>
      <point x="162" y="428"/>
      <point x="243" y="428" type="curve" smooth="yes"/>
      <point x="324" y="428"/>
      <point x="376" y="370"/>
      <point x="361" y="284" type="curve" smooth="yes"/>
      <point x="355" y="250"/>
      <point x="339" y="219"/>
      <point x="319" y="197" type="curve" smooth="yes"/>
    </contour>
  </outline>
</glyph>
<glyph name="uni2150" format="1">
  <advance width="842"/>
  <unicode hex="2150"/>
  <outline>
    <contour>
      <point x="691" y="700" type="line"/>
      <point x="756" y="700" type="line"/>
      <point x="113" y="0" type="line"/>
      <point x="48" y="0" type="line"/>
    </contour>
    <contour>
      <point x="138" y="611" type="line"/>
      <point x="147" y="664" type="line"/>
      <point x="297" y="700" type="line"/>
      <point x="222" y="274" type="line"/>
      <point x="171" y="274" type="line"/>
      <point x="236" y="639" type="line"/>
    </contour>
    <contour>
      <point x="584" y="372" type="line"/>
      <point x="592" y="420" type="line"/>
      <point x="886" y="420" type="line"/>
      <point x="611" y="0" type="line"/>
      <point x="558" y="0" type="line"/>
      <point x="802" y="372" type="line"/>
    </contour>
  </outline>
</glyph>
<glyph name="uni2151" format="1">
  <advance width="784"/>
  <unicode hex="2151"/>
  <outline>
    <contour>
      <point x="691" y="700" type="line"/>
      <point x="756" y="700" type="line"/>
      <point x="113" y="0" type="line"/>
      <point x="48" y="0" type="line"/>
    </contour>
    <contour>
      <point x="138" y="611" type="line"/>
      <point x="147" y="664" type="line"/>
      <point x="297" y="700" type="line"/>
      <point x="222" y="274" type="line"/>
      <point x="171" y="274" type="line"/>
      <point x="236" y="639" type="line"/>
    </contour>
    <contour>
      <point x="767" y="284" type="curve" smooth="yes"/>
      <point x="777" y="342"/>
      <point x="744" y="382"/>
      <point x="690" y="382" type="curve" smooth="yes"/>
      <point x="636" y="382"/>
      <point x="589" y="342"/>
      <point x="579" y="284" type="curve" smooth="yes"/>
      <point x="569" y="226"/>
      <point x="602" y="185"/>
      <point x="656" y="185" type="curve" smooth="yes"/>
      <point x="710" y="185"/>
      <point x="757" y="226"/>
    </contour>
    <contour>
      <point x="598" y="2" type="line"/>
      <point x="533" y="2" type="line"/>
      <point x="696" y="175" type="line"/>
      <point x="698" y="172" type="line"/>
      <point x="678" y="152"/>
      <point x="657" y="148"/>
      <point x="630" y="148" type="curve" smooth="yes"/>
      <point x="562" y="148"/>
      <point x="516" y="207"/>
      <point x="530" y="284" type="curve" smooth="yes"/>
      <point x="545" y="370"/>
      <point x="617" y="428"/>
      <point x="698" y="428" type="curve" smooth="yes"/>
      <point x="779" y="428"/>
      <point x="831" y="370"/>
      <point x="816" y="284" type="curve" smooth="yes"/>
      <point x="810" y="250"/>
      <point x="794" y="219"/>
      <point x="774" y="197" type="curve" smooth="yes"/>
    </contour>
  </outline>
</glyph>
<glyph name="onethird" format="1">
  <advance width="755"/>
  <unicode hex="2153"/>
  <outline>
    <contour>
      <point x="691" y="700" type="line"/>
      <point x="756" y="700" type="line"/>
      <point x="113" y="0" type="line"/>
      <point x="48" y="0" type="line"/>
    </contour>
    <contour>
      <point x="138" y="611" type="line"/>
      <point x="147" y="664" type="line"/>
      <point x="297" y="700" type="line"/>
      <point x="222" y="274" type="line"/>
      <point x="171" y="274" type="line"/>
      <point x="236" y="639" type="line"/>
    </contour>
    <contour>
      <point x="616" y="207" type="curve"/>
      <point x="621" y="240" type="line"/>
      <point x="675" y="240"/>
      <point x="712" y="273"/>
      <point x="719" y="313" type="curve" smooth="yes"/>
      <point x="726" y="353"/>
      <point x="709" y="380"/>
      <point x="667" y="380" type="curve" smooth="yes"/>
      <point x="628" y="380"/>
      <point x="593" y="353"/>
      <point x="586" y="316" type="curve"/>
      <point x="537" y="316" type="line"/>
      <point x="548" y="381"/>
      <point x="606" y="426"/>
      <point x="675" y="426" type="curve" smooth="yes"/>
      <point x="747" y="426"/>
      <point x="781" y="373"/>
      <point x="771" y="314" type="curve" smooth="yes"/>
      <point x="761" y="255"/>
      <point x="697" y="207"/>
    </contour>
    <contour>
      <point x="596" y="-6" type="curve" smooth="yes"/>
      <point x="515" y="-6"/>
      <point x="472" y="46"/>
      <point x="483" y="111" type="curve"/>
      <point x="535" y="111" type="line"/>
      <point x="528" y="71"/>
      <point x="556" y="42"/>
      <point x="604" y="42" type="curve" smooth="yes"/>
      <point x="652" y="42"/>
      <point x="689" y="71"/>
      <point x="697" y="117" type="curve" smooth="yes"/>
      <point x="706" y="169"/>
      <point x="667" y="195"/>
      <point x="613" y="195" type="curve"/>
      <point x="619" y="228" type="line"/>
      <point x="700" y="228"/>
      <point x="763" y="194"/>
      <point x="748" y="111" type="curve" smooth="yes"/>
      <point x="735" y="40"/>
      <point x="671" y="-6"/>
    </contour>
  </outline>
</glyph>
<glyph name="twothirds" format="1">
  <advance width="882"/>
  <unicode hex="2154"/>
  <outline>
    <contour>
      <point x="818" y="700" type="line"/>
      <point x="883" y="700" type="line"/>
      <point x="240" y="0" type="line"/>
      <point x="175" y="0" type="line"/>
    </contour>
    <contour>
      <point x="80" y="282" type="line"/>
      <point x="315" y="494" type="line" smooth="yes"/>
      <point x="348" y="523"/>
      <point x="369" y="552"/>
      <point x="375" y="586" type="curve" smooth="yes"/>
      <point x="382" y="623"/>
      <point x="364" y="661"/>
      <point x="313" y="661" type="curve" smooth="yes"/>
      <point x="259" y="661"/>
      <point x="214" y="622"/>
      <point x="203" y="558" type="curve"/>
      <point x="152" y="558" type="line"/>
      <point x="168" y="647"/>
      <point x="234" y="709"/>
      <point x="321" y="709" type="curve" smooth="yes"/>
      <point x="413" y="709"/>
      <point x="437" y="638"/>
      <point x="427" y="582" type="curve" smooth="yes"/>
      <point x="419" y="539"/>
      <point x="389" y="500"/>
      <point x="350" y="466" type="curve" smooth="yes"/>
      <point x="193" y="330" type="line"/>
      <point x="384" y="330" type="line"/>
      <point x="376" y="282" type="line"/>
    </contour>
    <contour>
      <point x="742" y="207" type="curve"/>
      <point x="748" y="240" type="line"/>
      <point x="802" y="240"/>
      <point x="839" y="273"/>
      <point x="846" y="313" type="curve" smooth="yes"/>
      <point x="853" y="353"/>
      <point x="836" y="380"/>
      <point x="794" y="380" type="curve" smooth="yes"/>
      <point x="755" y="380"/>
      <point x="720" y="353"/>
      <point x="713" y="316" type="curve"/>
      <point x="664" y="316" type="line"/>
      <point x="675" y="381"/>
      <point x="733" y="426"/>
      <point x="802" y="426" type="curve" smooth="yes"/>
      <point x="874" y="426"/>
      <point x="908" y="373"/>
      <point x="898" y="314" type="curve" smooth="yes"/>
      <point x="888" y="255"/>
      <point x="823" y="207"/>
    </contour>
    <contour>
      <point x="723" y="-6" type="curve" smooth="yes"/>
      <point x="642" y="-6"/>
      <point x="599" y="46"/>
      <point x="610" y="111" type="curve"/>
      <point x="662" y="111" type="line"/>
      <point x="655" y="71"/>
      <point x="683" y="42"/>
      <point x="731" y="42" type="curve" smooth="yes"/>
      <point x="779" y="42"/>
      <point x="816" y="71"/>
      <point x="824" y="117" type="curve" smooth="yes"/>
      <point x="833" y="169"/>
      <point x="794" y="195"/>
      <point x="740" y="195" type="curve"/>
      <point x="746" y="228" type="line"/>
      <point x="827" y="228"/>
      <point x="890" y="194"/>
      <point x="875" y="111" type="curve" smooth="yes"/>
      <point x="862" y="40"/>
      <point x="798" y="-6"/>
    </contour>
  </outline>
</glyph>
<glyph name="uni2157" format="1">
  <advance width="831"/>
  <unicode hex="2157"/>
  <outline>
    <contour>
      <point x="778" y="700" type="line"/>
      <point x="843" y="700" type="line"/>
      <point x="200" y="0" type="line"/>
      <point x="135" y="0" type="line"/>
    </contour>
    <contour>
      <point x="232" y="487" type="curve"/>
      <point x="238" y="520" type="line"/>
      <point x="292" y="520"/>
      <point x="329" y="553"/>
      <point x="336" y="593" type="curve" smooth="yes"/>
      <point x="343" y="633"/>
      <point x="325" y="660"/>
      <point x="283" y="660" type="curve" smooth="yes"/>
      <point x="244" y="660"/>
      <point x="209" y="633"/>
      <point x="202" y="596" type="curve"/>
      <point x="153" y="596" type="line"/>
      <point x="164" y="661"/>
      <point x="222" y="706"/>
      <point x="291" y="706" type="curve" smooth="yes"/>
      <point x="363" y="706"/>
      <point x="398" y="653"/>
      <point x="388" y="594" type="curve" smooth="yes"/>
      <point x="378" y="535"/>
      <point x="313" y="487"/>
    </contour>
    <contour>
      <point x="212" y="274" type="curve" smooth="yes"/>
      <point x="131" y="274"/>
      <point x="88" y="326"/>
      <point x="99" y="391" type="curve"/>
      <point x="151" y="391" type="line"/>
      <point x="144" y="351"/>
      <point x="173" y="322"/>
      <point x="221" y="322" type="curve" smooth="yes"/>
      <point x="269" y="322"/>
      <point x="305" y="351"/>
      <point x="313" y="397" type="curve" smooth="yes"/>
      <point x="322" y="449"/>
      <point x="284" y="475"/>
      <point x="230" y="475" type="curve"/>
      <point x="236" y="508" type="line"/>
      <point x="317" y="508"/>
      <point x="379" y="474"/>
      <point x="364" y="391" type="curve" smooth="yes"/>
      <point x="351" y="320"/>
      <point x="287" y="274"/>
    </contour>
    <contour>
      <point x="825" y="136" type="curve" smooth="yes"/>
      <point x="808" y="41"/>
      <point x="734" y="-8"/>
      <point x="653" y="-8" type="curve" smooth="yes"/>
      <point x="576" y="-8"/>
      <point x="539" y="32"/>
      <point x="519" y="80" type="curve"/>
      <point x="567" y="110" type="line"/>
      <point x="580" y="74"/>
      <point x="615" y="40"/>
      <point x="661" y="40" type="curve" smooth="yes"/>
      <point x="721" y="40"/>
      <point x="762" y="78"/>
      <point x="772" y="136" type="curve" smooth="yes"/>
      <point x="782" y="194"/>
      <point x="749" y="232"/>
      <point x="695" y="232" type="curve" smooth="yes"/>
      <point x="655" y="232"/>
      <point x="629" y="224"/>
      <point x="581" y="194" type="curve"/>
      <point x="618" y="234" type="line"/>
      <point x="651" y="264"/>
      <point x="690" y="278"/>
      <point x="725" y="278" type="curve" smooth="yes"/>
      <point x="797" y="278"/>
      <point x="840" y="219"/>
    </contour>
    <contour>
      <point x="707" y="373" type="line"/>
      <point x="654" y="248" type="line"/>
      <point x="581" y="194" type="line"/>
      <point x="676" y="418" type="line"/>
      <point x="874" y="418" type="line"/>
      <point x="866" y="373" type="line"/>
    </contour>
  </outline>
</glyph>
<glyph name="uni2158" format="1">
  <advance width="866"/>
  <unicode hex="2158"/>
  <outline>
    <contour>
      <point x="813" y="700" type="line"/>
      <point x="878" y="700" type="line"/>
      <point x="235" y="0" type="line"/>
      <point x="170" y="0" type="line"/>
    </contour>
    <contour>
      <point x="94" y="364" type="line"/>
      <point x="144" y="409" type="line"/>
      <point x="326" y="409" type="line" smooth="yes"/>
      <point x="336" y="409" type="line" smooth="yes"/>
      <point x="422" y="409" type="line"/>
      <point x="414" y="364" type="line"/>
    </contour>
    <contour>
      <point x="148" y="364" type="line"/>
      <point x="94" y="364" type="line"/>
      <point x="386" y="700" type="line"/>
      <point x="407" y="700" type="line"/>
      <point x="333" y="280" type="line"/>
      <point x="282" y="280" type="line"/>
      <point x="301" y="386" type="line" smooth="yes"/>
      <point x="302" y="392" type="line" smooth="yes"/>
      <point x="337" y="587" type="line"/>
    </contour>
    <contour>
      <point x="860" y="136" type="curve" smooth="yes"/>
      <point x="843" y="41"/>
      <point x="769" y="-8"/>
      <point x="688" y="-8" type="curve" smooth="yes"/>
      <point x="611" y="-8"/>
      <point x="574" y="32"/>
      <point x="554" y="80" type="curve"/>
      <point x="602" y="110" type="line"/>
      <point x="615" y="74"/>
      <point x="650" y="40"/>
      <point x="696" y="40" type="curve" smooth="yes"/>
      <point x="756" y="40"/>
      <point x="797" y="78"/>
      <point x="807" y="136" type="curve" smooth="yes"/>
      <point x="817" y="194"/>
      <point x="784" y="232"/>
      <point x="730" y="232" type="curve" smooth="yes"/>
      <point x="690" y="232"/>
      <point x="664" y="224"/>
      <point x="616" y="194" type="curve"/>
      <point x="653" y="234" type="line"/>
      <point x="686" y="264"/>
      <point x="725" y="278"/>
      <point x="760" y="278" type="curve" smooth="yes"/>
      <point x="832" y="278"/>
      <point x="875" y="219"/>
    </contour>
    <contour>
      <point x="742" y="373" type="line"/>
      <point x="689" y="248" type="line"/>
      <point x="616" y="194" type="line"/>
      <point x="711" y="418" type="line"/>
      <point x="909" y="418" type="line"/>
      <point x="901" y="373" type="line"/>
    </contour>
  </outline>
</glyph>
<glyph name="oneeighth" format="1">
  <advance width="760"/>
  <unicode hex="215B"/>
  <outline>
    <contour>
      <point x="691" y="700" type="line"/>
      <point x="756" y="700" type="line"/>
      <point x="113" y="0" type="line"/>
      <point x="48" y="0" type="line"/>
    </contour>
    <contour>
      <point x="138" y="611" type="line"/>
      <point x="147" y="664" type="line"/>
      <point x="297" y="700" type="line"/>
      <point x="222" y="274" type="line"/>
      <point x="171" y="274" type="line"/>
      <point x="236" y="639" type="line"/>
    </contour>
    <contour>
      <point x="539" y="319" type="curve" smooth="yes"/>
      <point x="549" y="378"/>
      <point x="608" y="426"/>
      <point x="674" y="426" type="curve" smooth="yes"/>
      <point x="740" y="426"/>
      <point x="781" y="378"/>
      <point x="771" y="319" type="curve" smooth="yes"/>
      <point x="760" y="254"/>
      <point x="706" y="213"/>
      <point x="637" y="213" type="curve" smooth="yes"/>
      <point x="568" y="213"/>
      <point x="528" y="254"/>
    </contour>
    <contour>
      <point x="587" y="313" type="curve" smooth="yes"/>
      <point x="580" y="273"/>
      <point x="606" y="246"/>
      <point x="642" y="246" type="curve" smooth="yes"/>
      <point x="678" y="246"/>
      <point x="714" y="273"/>
      <point x="721" y="313" type="curve" smooth="yes"/>
      <point x="728" y="353"/>
      <point x="705" y="381"/>
      <point x="666" y="381" type="curve" smooth="yes"/>
      <point x="627" y="381"/>
      <point x="594" y="353"/>
    </contour>
    <contour>
      <point x="488" y="114" type="curve" smooth="yes"/>
      <point x="502" y="191"/>
      <point x="571" y="234"/>
      <point x="640" y="234" type="curve" smooth="yes"/>
      <point x="709" y="234"/>
      <point x="764" y="191"/>
      <point x="750" y="114" type="curve" smooth="yes"/>
      <point x="739" y="49"/>
      <point x="673" y="-6"/>
      <point x="598" y="-6" type="curve" smooth="yes"/>
      <point x="523" y="-6"/>
      <point x="477" y="49"/>
    </contour>
    <contour>
      <point x="538" y="120" type="curve" smooth="yes"/>
      <point x="529" y="68"/>
      <point x="564" y="39"/>
      <point x="606" y="39" type="curve" smooth="yes"/>
      <point x="648" y="39"/>
      <point x="693" y="68"/>
      <point x="702" y="120" type="curve" smooth="yes"/>
      <point x="710" y="166"/>
      <point x="676" y="201"/>
      <point x="634" y="201" type="curve" smooth="yes"/>
      <point x="592" y="201"/>
      <point x="546" y="166"/>
    </contour>
  </outline>
</glyph>
<glyph name="threeeighths" format="1">
  <advance width="847"/>
  <unicode hex="215C"/>
  <outline>
    <contour>
      <point x="778" y="700" type="line"/>
      <point x="843" y="700" type="line"/>
      <point x="200" y="0" type="line"/>
      <point x="135" y="0" type="line"/>
    </contour>
    <contour>
      <point x="232" y="487" type="curve"/>
      <point x="238" y="520" type="line"/>
      <point x="292" y="520"/>
      <point x="329" y="553"/>
      <point x="336" y="593" type="curve" smooth="yes"/>
      <point x="343" y="633"/>
      <point x="325" y="660"/>
      <point x="283" y="660" type="curve" smooth="yes"/>
      <point x="244" y="660"/>
      <point x="209" y="633"/>
      <point x="202" y="596" type="curve"/>
      <point x="153" y="596" type="line"/>
      <point x="164" y="661"/>
      <point x="222" y="706"/>
      <point x="291" y="706" type="curve" smooth="yes"/>
      <point x="363" y="706"/>
      <point x="398" y="653"/>
      <point x="388" y="594" type="curve" smooth="yes"/>
      <point x="378" y="535"/>
      <point x="313" y="487"/>
    </contour>
    <contour>
      <point x="212" y="274" type="curve" smooth="yes"/>
      <point x="131" y="274"/>
      <point x="88" y="326"/>
      <point x="99" y="391" type="curve"/>
      <point x="151" y="391" type="line"/>
      <point x="144" y="351"/>
      <point x="173" y="322"/>
      <point x="221" y="322" type="curve" smooth="yes"/>
      <point x="269" y="322"/>
      <point x="305" y="351"/>
      <point x="313" y="397" type="curve" smooth="yes"/>
      <point x="322" y="449"/>
      <point x="284" y="475"/>
      <point x="230" y="475" type="curve"/>
      <point x="236" y="508" type="line"/>
      <point x="317" y="508"/>
      <point x="379" y="474"/>
      <point x="364" y="391" type="curve" smooth="yes"/>
      <point x="351" y="320"/>
      <point x="287" y="274"/>
    </contour>
    <contour>
      <point x="626" y="319" type="curve" smooth="yes"/>
      <point x="636" y="378"/>
      <point x="695" y="426"/>
      <point x="761" y="426" type="curve" smooth="yes"/>
      <point x="827" y="426"/>
      <point x="868" y="378"/>
      <point x="858" y="319" type="curve" smooth="yes"/>
      <point x="847" y="254"/>
      <point x="793" y="213"/>
      <point x="724" y="213" type="curve" smooth="yes"/>
      <point x="655" y="213"/>
      <point x="615" y="254"/>
    </contour>
    <contour>
      <point x="674" y="313" type="curve" smooth="yes"/>
      <point x="667" y="273"/>
      <point x="693" y="246"/>
      <point x="729" y="246" type="curve" smooth="yes"/>
      <point x="765" y="246"/>
      <point x="801" y="273"/>
      <point x="808" y="313" type="curve" smooth="yes"/>
      <point x="815" y="353"/>
      <point x="792" y="381"/>
      <point x="753" y="381" type="curve" smooth="yes"/>
      <point x="714" y="381"/>
      <point x="681" y="353"/>
    </contour>
    <contour>
      <point x="575" y="114" type="curve" smooth="yes"/>
      <point x="589" y="191"/>
      <point x="658" y="234"/>
      <point x="727" y="234" type="curve" smooth="yes"/>
      <point x="796" y="234"/>
      <point x="851" y="191"/>
      <point x="837" y="114" type="curve" smooth="yes"/>
      <point x="826" y="49"/>
      <point x="760" y="-6"/>
      <point x="685" y="-6" type="curve" smooth="yes"/>
      <point x="610" y="-6"/>
      <point x="564" y="49"/>
    </contour>
    <contour>
      <point x="625" y="120" type="curve" smooth="yes"/>
      <point x="616" y="68"/>
      <point x="651" y="39"/>
      <point x="693" y="39" type="curve" smooth="yes"/>
      <point x="735" y="39"/>
      <point x="780" y="68"/>
      <point x="789" y="120" type="curve" smooth="yes"/>
      <point x="797" y="166"/>
      <point x="763" y="201"/>
      <point x="721" y="201" type="curve" smooth="yes"/>
      <point x="679" y="201"/>
      <point x="633" y="166"/>
    </contour>
  </outline>
</glyph>
<glyph name="seveneighths" format="1">
  <advance width="772"/>
  <unicode hex="215E"/>
  <outline>
    <contour>
      <point x="703" y="700" type="line"/>
      <point x="768" y="700" type="line"/>
      <point x="125" y="0" type="line"/>
      <point x="60" y="0" type="line"/>
    </contour>
    <contour>
      <point x="145" y="652" type="line"/>
      <point x="153" y="700" type="line"/>
      <point x="447" y="700" type="line"/>
      <point x="172" y="280" type="line"/>
      <point x="119" y="280" type="line"/>
      <point x="363" y="652" type="line"/>
    </contour>
    <contour>
      <point x="551" y="319" type="curve" smooth="yes"/>
      <point x="561" y="378"/>
      <point x="620" y="426"/>
      <point x="686" y="426" type="curve" smooth="yes"/>
      <point x="752" y="426"/>
      <point x="793" y="378"/>
      <point x="783" y="319" type="curve" smooth="yes"/>
      <point x="772" y="254"/>
      <point x="718" y="213"/>
      <point x="649" y="213" type="curve" smooth="yes"/>
      <point x="580" y="213"/>
      <point x="540" y="254"/>
    </contour>
    <contour>
      <point x="599" y="313" type="curve" smooth="yes"/>
      <point x="592" y="273"/>
      <point x="618" y="246"/>
      <point x="654" y="246" type="curve" smooth="yes"/>
      <point x="690" y="246"/>
      <point x="726" y="273"/>
      <point x="733" y="313" type="curve" smooth="yes"/>
      <point x="740" y="353"/>
      <point x="717" y="381"/>
      <point x="678" y="381" type="curve" smooth="yes"/>
      <point x="639" y="381"/>
      <point x="606" y="353"/>
    </contour>
    <contour>
      <point x="500" y="114" type="curve" smooth="yes"/>
      <point x="514" y="191"/>
      <point x="583" y="234"/>
      <point x="652" y="234" type="curve" smooth="yes"/>
      <point x="721" y="234"/>
      <point x="776" y="191"/>
      <point x="762" y="114" type="curve" smooth="yes"/>
      <point x="751" y="49"/>
      <point x="685" y="-6"/>
      <point x="610" y="-6" type="curve" smooth="yes"/>
      <point x="535" y="-6"/>
      <point x="489" y="49"/>
    </contour>
    <contour>
      <point x="550" y="120" type="curve" smooth="yes"/>
      <point x="541" y="68"/>
      <point x="576" y="39"/>
      <point x="618" y="39" type="curve" smooth="yes"/>
      <point x="660" y="39"/>
      <point x="705" y="68"/>
      <point x="714" y="120" type="curve" smooth="yes"/>
      <point x="722" y="166"/>
      <point x="688" y="201"/>
      <point x="646" y="201" type="curve" smooth="yes"/>
      <point x="604" y="201"/>
      <point x="558" y="166"/>
    </contour>
  </outline>
</glyph>
<glyph name="uniFF10" format="1">
  <advance width="580"/>
  <unicode hex="FF10"/>
  <outline>
    <contour>
      <point x="177" y="350" type="curve" smooth="yes"/>
      <point x="148" y="187"/>
      <point x="194" y="70"/>
      <point x="302" y="70" type="curve" smooth="yes"/>
      <point x="410" y="70"/>
      <point x="498" y="187"/>
      <point x="527" y="350" type="curve" smooth="yes"/>
      <point x="556" y="513"/>
      <point x="509" y="630"/>
      <point x="401" y="630" type="curve" smooth="yes"/>
      <point x="293" y="630"/>
      <point x="206" y="513"/>
    </contour>
    <contour>
      <point x="92" y="350" type="curve" smooth="yes"/>
      <point x="129" y="559"/>
      <point x="261" y="710"/>
      <point x="415" y="710" type="curve" smooth="yes"/>
      <point x="569" y="710"/>
      <point x="649" y="559"/>
      <point x="612" y="350" type="curve" smooth="yes"/>
      <point x="575" y="141"/>
      <point x="442" y="-10"/>
      <point x="288" y="-10" type="curve" smooth="yes"/>
      <point x="134" y="-10"/>
      <point x="55" y="141"/>
    </contour>
  </outline>
</glyph>
<glyph name="uniFF11" format="1">
  <advance width="580"/>
  <unicode hex="FF11"/>
  <outline>
    <contour>
      <point x="214" y="562" type="line"/>
      <point x="230" y="650" type="line"/>
      <point x="480" y="710" type="line"/>
      <point x="355" y="0" type="line"/>
      <point x="270" y="0" type="line"/>
      <point x="377" y="608" type="line"/>
    </contour>
  </outline>
</glyph>
<glyph name="uniFF13" format="1">
  <advance width="580"/>
  <unicode hex="FF13"/>
  <outline>
    <contour>
      <point x="331" y="345" type="curve"/>
      <point x="341" y="400" type="line"/>
      <point x="431" y="400"/>
      <point x="491" y="455"/>
      <point x="503" y="521" type="curve" smooth="yes"/>
      <point x="515" y="587"/>
      <point x="487" y="633"/>
      <point x="417" y="633" type="curve" smooth="yes"/>
      <point x="352" y="633"/>
      <point x="292" y="587"/>
      <point x="281" y="526" type="curve"/>
      <point x="200" y="526" type="line"/>
      <point x="219" y="635"/>
      <point x="314" y="710"/>
      <point x="429" y="710" type="curve" smooth="yes"/>
      <point x="549" y="710"/>
      <point x="607" y="623"/>
      <point x="590" y="524" type="curve" smooth="yes"/>
      <point x="573" y="425"/>
      <point x="466" y="345"/>
    </contour>
    <contour>
      <point x="298" y="-10" type="curve" smooth="yes"/>
      <point x="163" y="-10"/>
      <point x="91" y="76"/>
      <point x="110" y="185" type="curve"/>
      <point x="196" y="185" type="line"/>
      <point x="184" y="119"/>
      <point x="232" y="70"/>
      <point x="312" y="70" type="curve" smooth="yes"/>
      <point x="392" y="70"/>
      <point x="452" y="119"/>
      <point x="465" y="195" type="curve" smooth="yes"/>
      <point x="480" y="281"/>
      <point x="417" y="325"/>
      <point x="327" y="325" type="curve"/>
      <point x="337" y="380" type="line"/>
      <point x="472" y="380"/>
      <point x="576" y="324"/>
      <point x="551" y="185" type="curve" smooth="yes"/>
      <point x="530" y="66"/>
      <point x="423" y="-10"/>
    </contour>
  </outline>
</glyph>
<glyph name="uniFF14" format="1">
  <advance width="580"/>
  <unicode hex="FF14"/>
  <outline>
    <contour>
      <point x="43" y="140" type="line"/>
      <point x="126" y="215" type="line"/>
      <point x="429" y="215" type="line" smooth="yes"/>
      <point x="446" y="215" type="line" smooth="yes"/>
      <point x="589" y="215" type="line"/>
      <point x="576" y="140" type="line"/>
    </contour>
    <contour>
      <point x="133" y="140" type="line"/>
      <point x="43" y="140" type="line"/>
      <point x="529" y="700" type="line"/>
      <point x="564" y="700" type="line"/>
      <point x="441" y="0" type="line"/>
      <point x="356" y="0" type="line"/>
      <point x="387" y="176" type="line" smooth="yes"/>
      <point x="389" y="187" type="line" smooth="yes"/>
      <point x="446" y="511" type="line"/>
    </contour>
  </outline>
</glyph>
<glyph name="uniFF18" format="1">
  <advance width="580"/>
  <unicode hex="FF18"/>
  <outline>
    <contour>
      <point x="191" y="531" type="curve" smooth="yes"/>
      <point x="208" y="630"/>
      <point x="305" y="710"/>
      <point x="415" y="710" type="curve" smooth="yes"/>
      <point x="525" y="710"/>
      <point x="594" y="630"/>
      <point x="577" y="531" type="curve" smooth="yes"/>
      <point x="558" y="422"/>
      <point x="468" y="355"/>
      <point x="353" y="355" type="curve" smooth="yes"/>
      <point x="238" y="355"/>
      <point x="172" y="422"/>
    </contour>
    <contour>
      <point x="270" y="521" type="curve" smooth="yes"/>
      <point x="258" y="455"/>
      <point x="302" y="410"/>
      <point x="362" y="410" type="curve" smooth="yes"/>
      <point x="422" y="410"/>
      <point x="482" y="455"/>
      <point x="494" y="521" type="curve" smooth="yes"/>
      <point x="506" y="587"/>
      <point x="467" y="635"/>
      <point x="402" y="635" type="curve" smooth="yes"/>
      <point x="337" y="635"/>
      <point x="282" y="587"/>
    </contour>
    <contour>
      <point x="106" y="190" type="curve" smooth="yes"/>
      <point x="129" y="319"/>
      <point x="244" y="390"/>
      <point x="359" y="390" type="curve" smooth="yes"/>
      <point x="474" y="390"/>
      <point x="565" y="319"/>
      <point x="542" y="190" type="curve" smooth="yes"/>
      <point x="523" y="81"/>
      <point x="413" y="-10"/>
      <point x="288" y="-10" type="curve" smooth="yes"/>
      <point x="163" y="-10"/>
      <point x="87" y="81"/>
    </contour>
    <contour>
      <point x="188" y="200" type="curve" smooth="yes"/>
      <point x="173" y="114"/>
      <point x="231" y="65"/>
      <point x="301" y="65" type="curve" smooth="yes"/>
      <point x="371" y="65"/>
      <point x="447" y="114"/>
      <point x="462" y="200" type="curve" smooth="yes"/>
      <point x="475" y="276"/>
      <point x="419" y="335"/>
      <point x="349" y="335" type="curve" smooth="yes"/>
      <point x="279" y="335"/>
      <point x="201" y="276"/>
    </contour>
  </outline>
</glyph>
<glyph name="adieresis.alt" format="1">
  <advance width="485"/>
  <outline>
    <contour>
      <point x="135" y="135" type="curve" smooth="yes"/>
      <point x="126" y="86"/>
      <point x="155" y="61"/>
      <point x="219" y="61" type="curve" smooth="yes"/>
      <point x="299" y="61"/>
      <point x="362" y="94"/>
      <point x="377" y="180" type="curve"/>
      <point x="384" y="130" type="line"/>
      <point x="368" y="41"/>
      <point x="281" y="-10"/>
      <point x="186" y="-10" type="curve" smooth="yes"/>
      <point x="91" y="-10"/>
      <point x="37" y="41"/>
      <point x="52" y="125" type="curve" smooth="yes"/>
      <point x="71" y="232"/>
      <point x="165" y="286"/>
      <point x="276" y="286" type="curve" smooth="yes"/>
      <point x="364" y="286"/>
      <point x="407" y="242"/>
      <point x="418" y="225" type="curve"/>
      <point x="409" y="178" type="line"/>
      <point x="370" y="210"/>
      <point x="328" y="225"/>
      <point x="270" y="225" type="curve" smooth="yes"/>
      <point x="189" y="225"/>
      <point x="145" y="191"/>
    </contour>
    <contour>
      <point x="173" y="352" type="curve"/>
      <point x="145" y="413" type="line"/>
      <point x="183" y="438"/>
      <point x="248" y="470"/>
      <point x="331" y="470" type="curve" smooth="yes"/>
      <point x="436" y="470"/>
      <point x="499" y="419"/>
      <point x="483" y="330" type="curve" smooth="yes"/>
      <point x="425" y="0" type="line"/>
      <point x="345" y="0" type="line"/>
      <point x="403" y="330" type="line" smooth="yes"/>
      <point x="411" y="376"/>
      <point x="369" y="400"/>
      <point x="319" y="400" type="curve" smooth="yes"/>
      <point x="253" y="400"/>
      <point x="198" y="368"/>
    </contour>
    <contour>
      <point x="396" y="585" type="curve" smooth="yes"/>
      <point x="401" y="615"/>
      <point x="431" y="640"/>
      <point x="461" y="640" type="curve" smooth="yes"/>
      <point x="491" y="640"/>
      <point x="511" y="615"/>
      <point x="506" y="585" type="curve" smooth="yes"/>
      <point x="501" y="555"/>
      <point x="471" y="530"/>
      <point x="441" y="530" type="curve" smooth="yes"/>
      <point x="411" y="530"/>
      <point x="391" y="555"/>
    </contour>
    <contour>
      <point x="196" y="585" type="curve" smooth="yes"/>
      <point x="201" y="615"/>
      <point x="231" y="640"/>
      <point x="261" y="640" type="curve" smooth="yes"/>
      <point x="291" y="640"/>
      <point x="311" y="615"/>
      <point x="306" y="585" type="curve" smooth="yes"/>
      <point x="301" y="555"/>
      <point x="271" y="530"/>
      <point x="241" y="530" type="curve" smooth="yes"/>
      <point x="211" y="530"/>
      <point x="191" y="555"/>
    </contour>
  </outline>
</glyph>
